  0
SECTION
  2
HEADER
  9
$ACADVER
  1
AC1015
  9
$ACADMAINTVER
 70
     6
  9
$DWGCODEPAGE
  3
ANSI_1252
  9
$INSBASE
 10
0.0
 20
0.0
 30
0.0
  9
$EXTMIN
 10
0.0
 20
0.0
 30
0.0
  9
$EXTMAX
 10
16.5354330709
 20
11.6929133858
 30
0.0
  9
$LIMMIN
 10
0.0
 20
0.0
  9
$LIMMAX
 10
16.5354330709
 20
11.6929133858
  9
$ORTHOMODE
 70
     0
  9
$REGENMODE
 70
     1
  9
$FILLMODE
 70
     1
  9
$QTEXTMODE
 70
     0
  9
$MIRRTEXT
 70
     1
  9
$LTSCALE
 40
1.0
  9
$ATTMODE
 70
     1
  9
$TEXTSIZE
 40
0.1377952756
  9
$TRACEWID
 40
0.05
  9
$TEXTSTYLE
  7
Standard
  9
$CLAYER
  8
0
  9
$CELTYPE
  6
ByLayer
  9
$CECOLOR
 62
   256
  9
$CELTSCALE
 40
1.0
  9
$DISPSILH
 70
     0
  9
$DIMSCALE
 40
1.0
  9
$DIMASZ
 40
0.13
  9
$DIMEXO
 40
0.0393700787
  9
$DIMDLI
 40
0.38
  9
$DIMRND
 40
0.0
  9
$DIMDLE
 40
0.0
  9
$DIMEXE
 40
0.0393700787
  9
$DIMTP
 40
0.0
  9
$DIMTM
 40
0.0
  9
$DIMTXT
 40
0.1377952756
  9
$DIMCEN
 40
0.09
  9
$DIMTSZ
 40
0.0
  9
$DIMTOL
 70
     0
  9
$DIMLIM
 70
     0
  9
$DIMTIH
 70
     1
  9
$DIMTOH
 70
     1
  9
$DIMSE1
 70
     0
  9
$DIMSE2
 70
     0
  9
$DIMTAD
 70
     1
  9
$DIMZIN
 70
     1
  9
$DIMBLK
  1

  9
$DIMASO
 70
     1
  9
$DIMSHO
 70
     1
  9
$DIMPOST
  1

  9
$DIMAPOST
  1

  9
$DIMALT
 70
     0
  9
$DIMALTD
 70
     2
  9
$DIMALTF
 40
25.4
  9
$DIMLFAC
 40
1.0
  9
$DIMTOFL
 70
     0
  9
$DIMTVP
 40
0.0
  9
$DIMTIX
 70
     0
  9
$DIMSOXD
 70
     0
  9
$DIMSAH
 70
     0
  9
$DIMBLK1
  1

  9
$DIMBLK2
  1

  9
$DIMSTYLE
  2
Standard
  9
$DIMCLRD
 70
     0
  9
$DIMCLRE
 70
     0
  9
$DIMCLRT
 70
     0
  9
$DIMTFAC
 40
1.0
  9
$DIMGAP
 40
0.06
  9
$DIMJUST
 70
     0
  9
$DIMSD1
 70
     0
  9
$DIMSD2
 70
     0
  9
$DIMTOLJ
 70
     1
  9
$DIMTZIN
 70
     1
  9
$DIMALTZ
 70
     0
  9
$DIMALTTZ
 70
     0
  9
$DIMUPT
 70
     0
  9
$DIMDEC
 70
     2
  9
$DIMTDEC
 70
     2
  9
$DIMALTU
 70
     2
  9
$DIMALTTD
 70
     2
  9
$DIMTXSTY
  7
Standard
  9
$DIMAUNIT
 70
     0
  9
$DIMADEC
 70
     2
  9
$DIMALTRND
 40
0.0
  9
$DIMAZIN
 70
     0
  9
$DIMDSEP
 70
    46
  9
$DIMATFIT
 70
     3
  9
$DIMFRAC
 70
     0
  9
$DIMLDRBLK
  1

  9
$DIMLUNIT
 70
     2
  9
$DIMLWD
 70
    -2
  9
$DIMLWE
 70
    -2
  9
$DIMTMOVE
 70
     0
  9
$LUNITS
 70
     2
  9
$LUPREC
 70
     2
  9
$SKETCHINC
 40
0.1
  9
$FILLETRAD
 40
0.5
  9
$AUNITS
 70
     0
  9
$AUPREC
 70
     2
  9
$MENU
  1
.
  9
$ELEVATION
 40
0.0
  9
$PELEVATION
 40
0.0
  9
$THICKNESS
 40
0.0
  9
$LIMCHECK
 70
     0
  9
$CHAMFERA
 40
0.0
  9
$CHAMFERB
 40
0.0
  9
$CHAMFERC
 40
0.0
  9
$CHAMFERD
 40
0.0
  9
$SKPOLY
 70
     0
  9
$TDCREATE
 40
2459340.074189548
  9
$TDUCREATE
 40
2459340.032522882
  9
$TDUPDATE
 40
2459340.074189988
  9
$TDUUPDATE
 40
2459340.032523322
  9
$TDINDWG
 40
0.0000000116
  9
$TDUSRTIMER
 40
0.0000000116
  9
$USRTIMER
 70
     1
  9
$ANGBASE
 50
0.0
  9
$ANGDIR
 70
     0
  9
$PDMODE
 70
     0
  9
$PDSIZE
 40
-1.0
  9
$PLINEWID
 40
0.0
  9
$SPLFRAME
 70
     0
  9
$SPLINETYPE
 70
     6
  9
$SPLINESEGS
 70
     8
  9
$HANDSEED
  5
C5
  9
$SURFTAB1
 70
     6
  9
$SURFTAB2
 70
     6
  9
$SURFTYPE
 70
     6
  9
$SURFU
 70
     6
  9
$SURFV
 70
     6
  9
$UCSBASE
  2

  9
$UCSNAME
  2

  9
$UCSORG
 10
0.0
 20
0.0
 30
0.0
  9
$UCSXDIR
 10
1.0
 20
0.0
 30
0.0
  9
$UCSYDIR
 10
0.0
 20
1.0
 30
0.0
  9
$UCSORTHOREF
  2

  9
$UCSORTHOVIEW
 70
     0
  9
$UCSORGTOP
 10
0.0
 20
0.0
 30
0.0
  9
$UCSORGBOTTOM
 10
0.0
 20
0.0
 30
0.0
  9
$UCSORGLEFT
 10
0.0
 20
0.0
 30
0.0
  9
$UCSORGRIGHT
 10
0.0
 20
0.0
 30
0.0
  9
$UCSORGFRONT
 10
0.0
 20
0.0
 30
0.0
  9
$UCSORGBACK
 10
0.0
 20
0.0
 30
0.0
  9
$PUCSBASE
  2

  9
$PUCSNAME
  2

  9
$PUCSORG
 10
0.0
 20
0.0
 30
0.0
  9
$PUCSXDIR
 10
1.0
 20
0.0
 30
0.0
  9
$PUCSYDIR
 10
0.0
 20
1.0
 30
0.0
  9
$PUCSORTHOREF
  2

  9
$PUCSORTHOVIEW
 70
     0
  9
$PUCSORGTOP
 10
0.0
 20
0.0
 30
0.0
  9
$PUCSORGBOTTOM
 10
0.0
 20
0.0
 30
0.0
  9
$PUCSORGLEFT
 10
0.0
 20
0.0
 30
0.0
  9
$PUCSORGRIGHT
 10
0.0
 20
0.0
 30
0.0
  9
$PUCSORGFRONT
 10
0.0
 20
0.0
 30
0.0
  9
$PUCSORGBACK
 10
0.0
 20
0.0
 30
0.0
  9
$USERI1
 70
     0
  9
$USERI2
 70
     0
  9
$USERI3
 70
     0
  9
$USERI4
 70
     0
  9
$USERI5
 70
     0
  9
$USERR1
 40
0.0
  9
$USERR2
 40
0.0
  9
$USERR3
 40
0.0
  9
$USERR4
 40
0.0
  9
$USERR5
 40
0.0
  9
$WORLDVIEW
 70
     1
  9
$SHADEDGE
 70
     3
  9
$SHADEDIF
 70
    70
  9
$TILEMODE
 70
     1
  9
$MAXACTVP
 70
    64
  9
$PINSBASE
 10
0.0
 20
0.0
 30
0.0
  9
$PLIMCHECK
 70
     0
  9
$PEXTMIN
 10
1.0000000000E+20
 20
1.0000000000E+20
 30
1.0000000000E+20
  9
$PEXTMAX
 10
-1.0000000000E+20
 20
-1.0000000000E+20
 30
-1.0000000000E+20
  9
$PLIMMIN
 10
0.0
 20
0.0
  9
$PLIMMAX
 10
12.0
 20
9.0
  9
$UNITMODE
 70
     0
  9
$VISRETAIN
 70
     1
  9
$PLINEGEN
 70
     0
  9
$PSLTSCALE
 70
     1
  9
$TREEDEPTH
 70
  3020
  9
$CMLSTYLE
  2
Standard
  9
$CMLJUST
 70
     0
  9
$CMLSCALE
 40
1.0
  9
$PROXYGRAPHICS
 70
     1
  9
$MEASUREMENT
 70
     0
  9
$CELWEIGHT
370
    -1
  9
$ENDCAPS
280
     0
  9
$JOINSTYLE
280
     0
  9
$LWDISPLAY
290
     1
  9
$INSUNITS
 70
     1
  9
$HYPERLINKBASE
  1

  9
$STYLESHEET
  1

  9
$XEDIT
290
     1
  9
$CEPSNTYPE
380
     0
  9
$PSTYLEMODE
290
     1
  9
$FINGERPRINTGUID
  2
{f9bc3a67-363d-4336-abe4-05fe521603b7}
  9
$VERSIONGUID
  2
{FAEB1C32-E019-11D5-929B-00C0DF256EC4}
  9
$EXTNAMES
290
     1
  9
$PSVPSCALE
 40
0.0
  9
$OLESTARTUP
290
     0
  0
ENDSEC
  0
SECTION
  2
CLASSES
  0
CLASS
  1
ACDBDICTIONARYWDFLT
  2
AcDbDictionaryWithDefault
  3
ObjectDBX Classes
 90
        0
280
     0
281
     0
  0
CLASS
  1
VISUALSTYLE
  2
AcDbVisualStyle
  3
ObjectDBX Classes
 90
     4095
280
     0
281
     0
  0
CLASS
  1
MATERIAL
  2
AcDbMaterial
  3
ObjectDBX Classes
 90
     1153
280
     0
281
     0
  0
CLASS
  1
SCALE
  2
AcDbScale
  3
ObjectDBX Classes
 90
     1153
280
     0
281
     0
  0
CLASS
  1
TABLESTYLE
  2
AcDbTableStyle
  3
ObjectDBX Classes
 90
     4095
280
     0
281
     0
  0
CLASS
  1
MLEADERSTYLE
  2
AcDbMLeaderStyle
  3
ACDB_MLEADERSTYLE_CLASS
 90
     4095
280
     0
281
     0
  0
CLASS
  1
SUN
  2
AcDbSun
  3
SCENEOE
 90
     1153
280
     0
281
     0
  0
CLASS
  1
ACDBPLACEHOLDER
  2
AcDbPlaceHolder
  3
ObjectDBX Classes
 90
        0
280
     0
281
     0
  0
CLASS
  1
LAYOUT
  2
AcDbLayout
  3
ObjectDBX Classes
 90
        0
280
     0
281
     0
  0
ENDSEC
  0
SECTION
  2
TABLES
  0
TABLE
  2
VPORT
  5
8
330
0
100
AcDbSymbolTable
 70
     1
  0
VPORT
  5
29
330
8
100
AcDbSymbolTableRecord
100
AcDbViewportTableRecord
  2
*Active
 70
     0
 10
0.0
 20
0.0
 11
1.0
 21
1.0
 12
8.2677165354
 22
5.8464566929
 13
0.0
 23
0.0
 14
0.5
 24
0.5
 15
0.5
 25
0.5
 16
0.0
 26
0.0
 36
1.0
 17
0.0
 27
0.0
 37
0.0
 40
11.6929133858
 41
1.4141414141
 42
50.0
 43
0.0
 44
0.0
 50
0.0
 51
0.0
 71
     0
 72
  2000
 73
     1
 74
     3
 75
     0
 76
     0
 77
     0
 78
     0
281
     0
 65
     1
110
0.0
120
0.0
130
0.0
111
1.0
121
0.0
131
0.0
112
0.0
122
1.0
132
0.0
 79
     0
146
0.0
  0
ENDTAB
  0
TABLE
  2
LTYPE
  5
5
330
0
100
AcDbSymbolTable
 70
     6
  0
LTYPE
  5
14
330
5
100
AcDbSymbolTableRecord
100
AcDbLinetypeTableRecord
  2
ByBlock
 70
     0
  3

 72
    65
 73
     0
 40
0.0
  0
LTYPE
  5
15
330
5
100
AcDbSymbolTableRecord
100
AcDbLinetypeTableRecord
  2
ByLayer
 70
     0
  3

 72
    65
 73
     0
 40
0.0
  0
LTYPE
  5
16
330
5
100
AcDbSymbolTableRecord
100
AcDbLinetypeTableRecord
  2
Continuous
 70
     0
  3
Solid line
 72
    65
 73
     0
 40
0.0
  0
LTYPE
  5
6E
330
5
100
AcDbSymbolTableRecord
100
AcDbLinetypeTableRecord
  2
HIDDEN
 70
     0
  3
Hidden __ __ __ __ __ __ __ __ __ __ __ __ __ __
 72
    65
 73
     2
 40
0.075
 49
0.05
 74
     0
 49
-0.025
 74
     0
  0
LTYPE
  5
6F
330
5
100
AcDbSymbolTableRecord
100
AcDbLinetypeTableRecord
  2
PHANTOM
 70
     0
  3
Phantom ______  __  __  ______  __  __  ______
 72
    65
 73
     6
 40
0.5
 49
0.25
 74
     0
 49
-0.05
 74
     0
 49
0.05
 74
     0
 49
-0.05
 74
     0
 49
0.05
 74
     0
 49
-0.05
 74
     0
  0
LTYPE
  5
70
330
5
100
AcDbSymbolTableRecord
100
AcDbLinetypeTableRecord
  2
CENTER
 70
     0
  3
Center ____ _ ____ _ ____ _ ____ _ ____ _ ____
 72
    65
 73
     4
 40
0.4
 49
0.25
 74
     0
 49
-0.05
 74
     0
 49
0.05
 74
     0
 49
-0.05
 74
     0
  0
LTYPE
  5
71
330
5
100
AcDbSymbolTableRecord
100
AcDbLinetypeTableRecord
  2
CENTERX2
 70
     0
  3
Center (2x) ________  __  ________  __  _____
 72
    65
 73
     4
 40
0.8
 49
0.5
 74
     0
 49
-0.1
 74
     0
 49
0.1
 74
     0
 49
-0.1
 74
     0
  0
LTYPE
  5
72
330
5
100
AcDbSymbolTableRecord
100
AcDbLinetypeTableRecord
  2
DOT2
 70
     0
  3
Dot (.5x) ........................................
 72
    65
 73
     2
 40
0.025
 49
0.0
 74
     0
 49
-0.025
 74
     0
  0
ENDTAB
  0
TABLE
  2
LAYER
  5
2
330
0
100
AcDbSymbolTable
 70
     2
  0
LAYER
  5
10
330
2
100
AcDbSymbolTableRecord
100
AcDbLayerTableRecord
  2
0
 70
     0
 62
     7
  6
Continuous
370
    -3
390
F
  0
LAYER
  5
73
330
2
100
AcDbSymbolTableRecord
100
AcDbLayerTableRecord
  2
FORMAT
 70
     0
 62
     7
  6
Continuous
370
    -3
390
F
  0
ENDTAB
  0
TABLE
  2
STYLE
  5
3
330
0
100
AcDbSymbolTable
 70
     2
  0
STYLE
  5
11
330
3
100
AcDbSymbolTableRecord
100
AcDbTextStyleTableRecord
  2
Standard
 70
     0
 40
0.0
 41
1.0
 50
0.0
 71
     0
 42
0.1377952756
  3
txt
  4

  0
STYLE
  5
C2
330
3
100
AcDbSymbolTableRecord
100
AcDbTextStyleTableRecord
  2
SLDTEXTSTYLE0
 70
     0
 40
0.0
 41
0.7
 50
0.0
 71
     0
 42
0.1377952756
  3
TXT
  4

  0
ENDTAB
  0
TABLE
  2
VIEW
  5
6
330
0
100
AcDbSymbolTable
 70
     0
  0
ENDTAB
  0
TABLE
  2
UCS
  5
7
330
0
100
AcDbSymbolTable
 70
     0
  0
ENDTAB
  0
TABLE
  2
APPID
  5
9
330
0
100
AcDbSymbolTable
 70
     1
  0
APPID
  5
12
330
9
100
AcDbSymbolTableRecord
100
AcDbRegAppTableRecord
  2
ACAD
 70
     0
  0
ENDTAB
  0
TABLE
  2
DIMSTYLE
  5
A
330
0
100
AcDbSymbolTable
 70
     1
100
AcDbDimStyleTable
  0
DIMSTYLE
105
27
330
A
100
AcDbSymbolTableRecord
100
AcDbDimStyleTableRecord
  2
Standard
 70
     0
178
     0
340
11
  0
ENDTAB
  0
TABLE
  2
BLOCK_RECORD
  5
1
330
0
100
AcDbSymbolTable
 70
     1
  0
BLOCK_RECORD
  5
1F
330
1
100
AcDbSymbolTableRecord
100
AcDbBlockTableRecord
  2
*Model_Space
340
22
  0
BLOCK_RECORD
  5
1B
330
1
100
AcDbSymbolTableRecord
100
AcDbBlockTableRecord
  2
*Paper_Space
340
1E
  0
BLOCK_RECORD
  5
23
330
1
100
AcDbSymbolTableRecord
100
AcDbBlockTableRecord
  2
*Paper_Space0
340
26
  0
ENDTAB
  0
ENDSEC
  0
SECTION
  2
BLOCKS
  0
BLOCK
  5
20
330
1F
100
AcDbEntity
  8
0
100
AcDbBlockBegin
  2
*Model_Space
 70
     0
 10
0.0
 20
0.0
 30
0.0
  3
*Model_Space
  1

  0
ENDBLK
  5
21
330
1F
100
AcDbEntity
  8
0
100
AcDbBlockEnd
  0
BLOCK
  5
1C
330
1B
100
AcDbEntity
 67
     1
  8
0
100
AcDbBlockBegin
  2
*Paper_Space
 70
     0
 10
0.0
 20
0.0
 30
0.0
  3
*Paper_Space
  1

  0
ENDBLK
  5
1D
330
1B
100
AcDbEntity
 67
     1
  8
0
100
AcDbBlockEnd
  0
BLOCK
  5
24
330
23
100
AcDbEntity
  8
0
100
AcDbBlockBegin
  2
*Paper_Space0
 70
     0
 10
0.0
 20
0.0
 30
0.0
  3
*Paper_Space0
  1

  0
ENDBLK
  5
25
330
23
100
AcDbEntity
  8
0
100
AcDbBlockEnd
  0
ENDSEC
  0
SECTION
  2
ENTITIES
  0
LINE
  5
74
330
1F
100
AcDbEntity
  8
0
  6
Continuous
 62
     7
370
    25
100
AcDbLine
 10
7.5337873888
 20
3.2542284709
 30
0.0
 11
7.651897625
 21
3.2542284709
 31
0.0
  0
LINE
  5
75
330
1F
100
AcDbEntity
  8
0
  6
Continuous
 62
     7
370
    25
100
AcDbLine
 10
7.651897625
 20
3.2542284709
 30
0.0
 11
7.651897625
 21
3.4510788646
 31
0.0
  0
LINE
  5
76
330
1F
100
AcDbEntity
  8
0
  6
Continuous
 62
     7
370
    25
100
AcDbLine
 10
7.651897625
 20
3.4510788646
 30
0.0
 11
7.5337873888
 21
3.4510788646
 31
0.0
  0
LINE
  5
77
330
1F
100
AcDbEntity
  8
0
  6
Continuous
 62
     7
370
    25
100
AcDbLine
 10
7.5337873888
 20
3.4510788646
 30
0.0
 11
7.5337873888
 21
3.2542284709
 31
0.0
  0
LINE
  5
78
330
1F
100
AcDbEntity
  8
0
  6
Continuous
 62
     7
370
    25
100
AcDbLine
 10
7.5337873888
 20
10.4274568174
 30
0.0
 11
7.651897625
 21
10.4274568174
 31
0.0
  0
LINE
  5
79
330
1F
100
AcDbEntity
  8
0
  6
Continuous
 62
     7
370
    25
100
AcDbLine
 10
7.651897625
 20
10.4274568174
 30
0.0
 11
7.651897625
 21
10.6243072111
 31
0.0
  0
LINE
  5
7A
330
1F
100
AcDbEntity
  8
0
  6
Continuous
 62
     7
370
    25
100
AcDbLine
 10
7.651897625
 20
10.6243072111
 30
0.0
 11
7.5337873888
 21
10.6243072111
 31
0.0
  0
LINE
  5
7B
330
1F
100
AcDbEntity
  8
0
  6
Continuous
 62
     7
370
    25
100
AcDbLine
 10
7.5337873888
 20
10.6243072111
 30
0.0
 11
7.5337873888
 21
10.4274568174
 31
0.0
  0
LINE
  5
7C
330
1F
100
AcDbEntity
  8
0
  6
Continuous
 62
     7
370
    25
100
AcDbLine
 10
11.3526850266
 20
10.8172205969
 30
0.0
 11
11.3526850266
 21
11.1124961875
 31
0.0
  0
LINE
  5
7D
330
1F
100
AcDbEntity
  8
0
  6
Continuous
 62
     7
370
    25
100
AcDbLine
 10
11.4707952628
 20
10.8172205969
 30
0.0
 11
11.3526850266
 21
10.8172205969
 31
0.0
  0
LINE
  5
7E
330
1F
100
AcDbEntity
  8
0
  6
Continuous
 62
     7
370
    25
100
AcDbLine
 10
11.4707952628
 20
10.5219450064
 30
0.0
 11
11.4707952628
 21
10.8172205969
 31
0.0
  0
LINE
  5
7F
330
1F
100
AcDbEntity
  8
0
  6
Continuous
 62
     7
370
    25
100
AcDbLine
 10
11.3526850266
 20
10.5219450064
 30
0.0
 11
11.4707952628
 21
10.5219450064
 31
0.0
  0
SPLINE
  5
80
330
1F
100
AcDbEntity
  8
0
  6
Continuous
 62
     7
370
    25
100
AcDbSpline
210
0.0
220
0.0
230
1.0
 70
     8
 71
     3
 72
    24
 73
    20
 74
     0
 42
0.000000001
 43
0.00000001
 40
0.0065827398050234
 40
0.0065827398050234
 40
0.0065827398050234
 40
0.0065827398050234
 40
0.0302259385152195
 40
0.0604518770304389
 40
0.1209037540608777
 40
0.1813556310913165
 40
0.2418075081217553
 40
0.3627112621826329
 40
0.4836150162435107
 40
0.6045187703043884
 40
0.6649706473348271
 40
0.725422524365266
 40
0.7858744013957049
 40
0.8463262784261436
 40
0.8765522169413631
 40
0.9067781554565825
 40
0.937004093971802
 40
0.9521170632294116
 40
0.9672300324870213
 40
0.9672300324870213
 40
0.9672300324870213
 40
0.9672300324870213
 10
1.557652662261692
 20
6.998322959131147
 30
0.0
 10
1.607497659040968
 20
7.068749066536982
 30
0.0
 10
1.724691249072505
 20
7.22686948964235
 30
0.0
 10
1.986884019550766
 20
7.546278406230172
 30
0.0
 10
2.364997476792969
 20
7.937525196928417
 30
0.0
 10
2.864870114992877
 20
8.359478756271855
 30
0.0
 10
3.588044048356191
 20
8.862423856859996
 30
0.0
 10
4.587593621996279
 20
9.38423573177085
 30
0.0
 10
5.900103386903629
 20
9.85444483213452
 30
0.0
 10
7.05082936771981
 20
10.12985404886598
 30
0.0
 10
7.982530681963245
 20
10.2896219655221
 30
0.0
 10
8.681069559389476
 20
10.38167362933296
 30
0.0
 10
9.373587244949302
 20
10.44851195162486
 30
0.0
 10
9.940871997256888
 20
10.48539591318662
 30
0.0
 10
10.38592272357333
 20
10.50495766577085
 30
0.0
 10
10.71465621333234
 20
10.51499649750264
 30
0.0
 10
10.98362822495075
 20
10.51978646871091
 30
0.0
 10
11.1958396893617
 20
10.52164489695999
 30
0.0
 10
11.3002628079914
 20
10.52194501827783
 30
0.0
 10
11.35268502655829
 20
10.5219450063752
 30
0.0
  0
LINE
  5
81
330
1F
100
AcDbEntity
  8
0
  6
Continuous
 62
     7
370
    25
100
AcDbLine
 10
1.3195491068
 20
6.9983229591
 30
0.0
 11
1.5576526623
 21
6.9983229591
 31
0.0
  0
LINE
  5
82
330
1F
100
AcDbEntity
  8
0
  6
Continuous
 62
     7
370
    25
100
AcDbLine
 10
1.3195491068
 20
6.8802127229
 30
0.0
 11
1.3195491068
 21
6.9983229591
 31
0.0
  0
LINE
  5
83
330
1F
100
AcDbEntity
  8
0
  6
Continuous
 62
     7
370
    25
100
AcDbLine
 10
1.5576526623
 20
6.8802127229
 30
0.0
 11
1.3195491068
 21
6.8802127229
 31
0.0
  0
SPLINE
  5
84
330
1F
100
AcDbEntity
  8
0
  6
Continuous
 62
     7
370
    25
100
AcDbSpline
210
0.0
220
0.0
230
1.0
 70
     8
 71
     3
 72
    24
 73
    20
 74
     0
 42
0.000000001
 43
0.00000001
 40
0.0
 40
0.0
 40
0.0
 40
0.0
 40
0.0151129692576097
 40
0.0302259385152194
 40
0.0604518770304388
 40
0.0906778155456583
 40
0.1209037540608777
 40
0.1813556310913165
 40
0.2418075081217554
 40
0.3022593851521942
 40
0.3627112621826331
 40
0.4836150162435108
 40
0.6045187703043884
 40
0.7254225243652661
 40
0.785874401395705
 40
0.8463262784261438
 40
0.9067781554565827
 40
0.9370040939718021
 40
0.9606472926818501
 40
0.9606472926818501
 40
0.9606472926818501
 40
0.9606472926818501
 10
11.3526850265583
 20
3.356590675666707
 30
0.0
 10
11.3002628079914
 20
3.356590663764087
 30
0.0
 10
11.19583968936169
 20
3.356890785081934
 30
0.0
 10
10.98362822495071
 20
3.358749213331031
 30
0.0
 10
10.71465621333227
 20
3.363539184539333
 30
0.0
 10
10.38592272357323
 20
3.373578016271142
 30
0.0
 10
9.940871997256721
 20
3.393139768855419
 30
0.0
 10
9.373587244949078
 20
3.430023730417227
 30
0.0
 10
8.681069559389165
 20
3.496862052709198
 30
0.0
 10
7.982530681962859
 20
3.588913716520124
 30
0.0
 10
7.050829367719318
 20
3.74868163317635
 30
0.0
 10
5.900103386903021
 20
4.02409084990794
 30
0.0
 10
4.587593621995556
 20
4.494299950271778
 30
0.0
 10
3.58804404835538
 20
5.016111825182779
 30
0.0
 10
2.864870114992021
 20
5.519056925771047
 30
0.0
 10
2.364997476792099
 20
5.941010485114576
 30
0.0
 10
1.986884019549868
 20
6.332257275812904
 30
0.0
 10
1.724691249071956
 20
6.651666192400373
 30
0.0
 10
1.607497659040714
 20
6.809786615505316
 30
0.0
 10
1.557652662261734
 20
6.880212722910712
 30
0.0
  0
LINE
  5
85
330
1F
100
AcDbEntity
  8
0
  6
Continuous
 62
     7
370
    25
100
AcDbLine
 10
11.4707952628
 20
3.3565906757
 30
0.0
 11
11.3526850266
 21
3.3565906757
 31
0.0
  0
LINE
  5
86
330
1F
100
AcDbEntity
  8
0
  6
Continuous
 62
     7
370
    25
100
AcDbLine
 10
11.4707952628
 20
3.0613150851
 30
0.0
 11
11.4707952628
 21
3.3565906757
 31
0.0
  0
LINE
  5
87
330
1F
100
AcDbEntity
  8
0
  6
Continuous
 62
     7
370
    25
100
AcDbLine
 10
11.3526850266
 20
3.0613150851
 30
0.0
 11
11.4707952628
 21
3.0613150851
 31
0.0
  0
LINE
  5
88
330
1F
100
AcDbEntity
  8
0
  6
Continuous
 62
     7
370
    25
100
AcDbLine
 10
11.3526850266
 20
2.7660394946
 30
0.0
 11
11.3526850266
 21
3.0613150851
 31
0.0
  0
SPLINE
  5
89
330
1F
100
AcDbEntity
  8
0
  6
Continuous
 62
     7
370
    25
100
AcDbSpline
210
0.0
220
0.0
230
1.0
 70
     8
 71
     3
 72
     8
 73
     4
 74
     0
 42
0.000000001
 43
0.00000001
 40
0.0
 40
0.0
 40
0.0
 40
0.0
 40
1.0
 40
1.0
 40
1.0
 40
1.0
 10
0.8139693436130944
 20
6.939267841020954
 30
0.0
 10
2.923510785492358
 20
3.437374665123683
 30
0.0
 10
7.828620489936231
 20
2.766039494564344
 30
0.0
 10
11.3526850265583
 20
2.766039494564345
 30
0.0
  0
SPLINE
  5
8A
330
1F
100
AcDbEntity
  8
0
  6
Continuous
 62
     7
370
    25
100
AcDbSpline
210
0.0
220
0.0
230
1.0
 70
     8
 71
     3
 72
     8
 73
     4
 74
     0
 42
0.000000001
 43
0.00000001
 40
0.0
 40
0.0
 40
0.0
 40
0.0
 40
1.0
 40
1.0
 40
1.0
 40
1.0
 10
11.3526850265583
 20
11.11249618747757
 30
0.0
 10
7.828620489936229
 20
11.11249618747757
 30
0.0
 10
2.923510785492355
 20
10.44116101691823
 30
0.0
 10
0.8139693436130944
 20
6.939267841020954
 30
0.0
  0
LINE
  5
8B
330
1F
100
AcDbEntity
  8
0
  6
Continuous
 62
     7
370
    25
100
AcDbLine
 10
8.9367006212
 20
11.6074934896
 30
0.0
 11
8.9367006212
 21
11.2098556944
 31
0.0
  0
LINE
  5
8C
330
1F
100
AcDbEntity
  8
0
  6
Continuous
 62
     7
370
    25
100
AcDbLine
 10
8.818590385
 20
11.2098556944
 30
0.0
 11
8.9367006212
 21
11.2098556944
 31
0.0
  0
LINE
  5
8D
330
1F
100
AcDbEntity
  8
0
  6
Continuous
 62
     7
370
    25
100
AcDbLine
 10
8.818590385
 20
11.2098556944
 30
0.0
 11
8.818590385
 21
11.0169423085
 31
0.0
  0
SPLINE
  5
8E
330
1F
100
AcDbEntity
  8
0
  6
Continuous
 62
     7
370
    25
100
AcDbSpline
210
0.0
220
0.0
230
1.0
 70
     8
 71
     3
 72
    27
 73
    23
 74
     0
 42
0.000000001
 43
0.00000001
 40
0.0060415254985332
 40
0.0060415254985332
 40
0.0060415254985332
 40
0.0060415254985332
 40
0.0151613101496257
 40
0.0303226202992515
 40
0.060645240598503
 40
0.0909678608977544
 40
0.1212904811970059
 40
0.1819357217955089
 40
0.2425809623940119
 40
0.303226202992515
 40
0.363871443591018
 40
0.4851619247880239
 40
0.6064524059850298
 40
0.6670976465835329
 40
0.7277428871820358
 40
0.7883881277805388
 40
0.8490333683790419
 40
0.8793559886782933
 40
0.9096786089775448
 40
0.9400012292767963
 40
0.955162539426422
 40
0.9703238495760478
 40
0.9703238495760478
 40
0.9703238495760478
 40
0.9703238495760478
 10
0.7439747490092392
 20
7.140958056556347
 30
0.0
 10
0.7602708079124209
 20
7.168960293048939
 30
0.0
 10
0.8040053634979534
 20
7.24325792002086
 30
0.0
 10
0.9030775269842501
 20
7.406456219374092
 30
0.0
 10
1.043928269116173
 20
7.625523667903827
 30
0.0
 10
1.217784099036061
 20
7.875910131070931
 30
0.0
 10
1.456209024110809
 20
8.193788957488435
 30
0.0
 10
1.766619942529573
 20
8.56185558283361
 30
0.0
 10
2.159342549931849
 20
8.959342341179834
 30
0.0
 10
2.573027328550995
 20
9.315264378099021
 30
0.0
 10
3.153948771411635
 20
9.73772367929065
 30
0.0
 10
3.93826728159015
 20
10.17392468297986
 30
0.0
 10
4.808956761918786
 20
10.49947473580028
 30
0.0
 10
5.561207510533186
 20
10.69841315039696
 30
0.0
 10
6.153789975928857
 20
10.81791315011084
 30
0.0
 10
6.775173986905731
 20
10.90877873982953
 30
0.0
 10
7.317166351612538
 20
10.96155378382274
 30
0.0
 10
7.765333242450565
 20
10.99059099293951
 30
0.0
 10
8.108698893605762
 20
11.00593139747559
 30
0.0
 10
8.401041443279407
 20
11.0134816124781
 30
0.0
 10
8.638256365188331
 20
11.0164629608982
 30
0.0
 10
8.75862534364703
 20
11.01694779855196
 30
0.0
 10
8.81859038502261
 20
11.01694230852461
 30
0.0
  0
LINE
  5
8F
330
1F
100
AcDbEntity
  8
0
  6
Continuous
 62
     7
370
    25
100
AcDbLine
 10
0.743974749
 20
7.1409580566
 30
0.0
 11
0.4093290802
 21
7.1409580566
 31
0.0
  0
LINE
  5
90
330
1F
100
AcDbEntity
  8
0
  6
Continuous
 62
     7
370
    25
100
AcDbLine
 10
0.4093290802
 20
7.1409580566
 30
0.0
 11
0.4093290802
 21
7.0228478203
 31
0.0
  0
LINE
  5
91
330
1F
100
AcDbEntity
  8
0
  6
Continuous
 62
     7
370
    25
100
AcDbLine
 10
0.4093290802
 20
7.0228478203
 30
0.0
 11
0.7507655773
 21
7.0228478203
 31
0.0
  0
SPLINE
  5
92
330
1F
100
AcDbEntity
  8
0
  6
Continuous
 62
     7
370
    25
100
AcDbSpline
210
0.0
220
0.0
230
1.0
 70
     8
 71
     3
 72
    21
 73
    17
 74
     0
 42
0.000000001
 43
0.00000001
 40
0.4977527433463894
 40
0.4977527433463894
 40
0.4977527433463894
 40
0.4977527433463894
 40
0.4978056213768671
 40
0.4979427340424082
 40
0.4982169593734905
 40
0.4984911847045728
 40
0.498765410035655
 40
0.4993138606978196
 40
0.4998623113599841
 40
0.5004107620221486
 40
0.5009592126843132
 40
0.5012334380153954
 40
0.5015076633464777
 40
0.50178188867756
 40
0.5019190013431012
 40
0.5020120685321587
 40
0.5020120685321587
 40
0.5020120685321587
 40
0.5020120685321587
 10
5.983944719003956
 20
3.160712747621244
 30
0.0
 10
5.955151981413939
 20
3.168047964197989
 30
0.0
 10
5.85194879851126
 20
3.1948109654103
 30
0.0
 10
5.603663494853237
 20
3.263369212763454
 30
0.0
 10
5.245893077108845
 20
3.37553960525457
 30
0.0
 10
4.831732810378461
 20
3.527270571694455
 30
0.0
 10
4.299097979469232
 20
3.752424525846405
 30
0.0
 10
3.669663576985843
 20
4.076557398943141
 30
0.0
 10
2.970566499924989
 20
4.534001140404668
 30
0.0
 10
2.325808441093553
 20
5.060775715082961
 30
0.0
 10
1.832490573334548
 20
5.558705091861358
 30
0.0
 10
1.463728954771266
 20
5.99331477734189
 30
0.0
 10
1.200085073436333
 20
6.337573286607736
 30
0.0
 10
0.9910207100571637
 20
6.640077797317874
 30
0.0
 10
0.8433138273088738
 20
6.870961589636267
 30
0.0
 10
0.7771663482741711
 20
6.978974775245918
 30
0.0
 10
0.7507655773301652
 20
7.022847820335876
 30
0.0
  0
LINE
  5
93
330
1F
100
AcDbEntity
  8
0
  6
Continuous
 62
     7
370
    25
100
AcDbLine
 10
5.983944719
 20
2.9460761668
 30
0.0
 11
5.983944719
 21
3.1607127476
 31
0.0
  0
LINE
  5
94
330
1F
100
AcDbEntity
  8
0
  6
Continuous
 62
     7
370
    25
100
AcDbLine
 10
6.102054952
 20
2.9460761668
 30
0.0
 11
5.983944719
 21
2.9460761668
 31
0.0
  0
LINE
  5
95
330
1F
100
AcDbEntity
  8
0
  6
Continuous
 62
     7
370
    25
100
AcDbLine
 10
6.102054952
 20
2.7492257731
 30
0.0
 11
6.102054952
 21
2.9460761668
 31
0.0
  0
LINE
  5
96
330
1F
100
AcDbEntity
  8
0
  6
Continuous
 62
     7
370
    25
100
AcDbLine
 10
5.983944719
 20
2.7492257731
 30
0.0
 11
6.102054952
 21
2.7492257731
 31
0.0
  0
LINE
  5
97
330
1F
100
AcDbEntity
  8
0
  6
Continuous
 62
     7
370
    25
100
AcDbLine
 10
5.9839447185
 20
2.5523753787
 30
0.0
 11
5.983944719
 21
2.7492257731
 31
0.0
  0
SPLINE
  5
98
330
1F
100
AcDbEntity
  8
0
  6
Continuous
 62
     7
370
    25
100
AcDbSpline
210
0.0
220
0.0
230
1.0
 70
     8
 71
     3
 72
     8
 73
     4
 74
     0
 42
0.000000001
 43
0.00000001
 40
0.4976685087097256
 40
0.4976685087097256
 40
0.4976685087097256
 40
0.4976685087097256
 40
0.502248981076242
 40
0.502248981076242
 40
0.502248981076242
 40
0.502248981076242
 10
5.983944718518992
 20
2.552375378726335
 30
0.0
 10
3.327148026500083
 20
3.190527952489029
 30
0.0
 10
1.344349175624034
 20
4.699714304417509
 30
0.0
 10
0.035548165890844
 20
7.079934434511773
 30
0.0
  0
SPLINE
  5
99
330
1F
100
AcDbEntity
  8
0
  6
Continuous
 62
     7
370
    25
100
AcDbSpline
210
0.0
220
0.0
230
1.0
 70
     8
 71
     3
 72
     8
 73
     4
 74
     0
 42
0.000000001
 43
0.00000001
 40
0.0
 40
0.0
 40
0.0
 40
0.0
 40
1.0
 40
1.0
 40
1.0
 40
1.0
 10
8.81859038502261
 20
11.60749348962697
 30
0.0
 10
4.736902104403723
 20
11.60749348962697
 30
0.0
 10
1.854038182560413
 20
10.50001290101999
 30
0.0
 10
0.0355481658850503
 20
7.079934434509098
 30
0.0
  0
LINE
  5
9A
330
1F
100
AcDbEntity
  8
0
  6
Continuous
 62
     7
370
    25
100
AcDbLine
 10
8.818590385
 20
11.6074934896
 30
0.0
 11
8.9367006212
 21
11.6074934896
 31
0.0
  0
LINE
  5
9B
330
1F
100
AcDbEntity
  8
0
  6
Continuous
 62
     7
370
    25
100
AcDbLine
 10
6.6858197904
 20
8.455595909
 30
0.0
 11
6.0151362613
 21
8.455595909
 31
0.0
  0
LINE
  5
9C
330
1F
100
AcDbEntity
  8
0
  6
Continuous
 62
     7
370
    25
100
AcDbLine
 10
6.0151362613
 20
8.455595909
 30
0.0
 11
6.0151362613
 21
8.8681305667
 31
0.0
  0
LINE
  5
9D
330
1F
100
AcDbEntity
  8
0
  6
Continuous
 62
     7
370
    25
100
AcDbLine
 10
5.8970260251
 20
8.8681305667
 30
0.0
 11
6.0151362613
 21
8.8681305667
 31
0.0
  0
LINE
  5
9E
330
1F
100
AcDbEntity
  8
0
  6
Continuous
 62
     7
370
    25
100
AcDbLine
 10
5.8970260251
 20
9.2618313541
 30
0.0
 11
5.8970260251
 21
8.8681305667
 31
0.0
  0
LINE
  5
9F
330
1F
100
AcDbEntity
  8
0
  6
Continuous
 62
     7
370
    25
100
AcDbLine
 10
6.0151362613
 20
9.2618313541
 30
0.0
 11
5.8970260251
 21
9.2618313541
 31
0.0
  0
SPLINE
  5
A0
330
1F
100
AcDbEntity
  8
0
  6
Continuous
 62
     7
370
    25
100
AcDbSpline
210
0.0
220
0.0
230
1.0
 70
     8
 71
     3
 72
     8
 73
     4
 74
     0
 42
0.000000001
 43
0.00000001
 40
0.0000000000001041
 40
0.0000000000001041
 40
0.0000000000001041
 40
0.0000000000001041
 40
0.9930958494242368
 40
0.9930958494242368
 40
0.9930958494242368
 40
0.9930958494242368
 10
6.015136261316006
 20
9.261831354128544
 30
0.0
 10
9.771119991889192
 20
9.262647375961487
 30
0.0
 10
13.89746192983781
 20
7.563013499931153
 30
0.0
 10
16.49890759181269
 20
4.793327417224599
 30
0.0
  0
LINE
  5
A1
330
1F
100
AcDbEntity
  8
0
  6
Continuous
 62
     7
370
    25
100
AcDbLine
 10
16.4989075918
 20
4.7933274172
 30
0.0
 11
16.0482721811
 21
4.7933274171
 31
0.0
  0
LINE
  5
A2
330
1F
100
AcDbEntity
  8
0
  6
Continuous
 62
     7
370
    25
100
AcDbLine
 10
16.0482721811
 20
4.7933274171
 30
0.0
 11
16.0482721811
 21
4.6752171809
 31
0.0
  0
LINE
  5
A3
330
1F
100
AcDbEntity
  8
0
  6
Continuous
 62
     7
370
    25
100
AcDbLine
 10
16.0482721811
 20
4.6752171809
 30
0.0
 11
16.4992555971
 21
4.6752171809
 31
0.0
  0
SPLINE
  5
A4
330
1F
100
AcDbEntity
  8
0
  6
Continuous
 62
     7
370
    25
100
AcDbSpline
210
0.0
220
0.0
230
1.0
 70
     8
 71
     3
 72
     8
 73
     4
 74
     0
 42
0.000000001
 43
0.00000001
 40
0.4982604013792186
 40
0.4982604013792186
 40
0.4982604013792186
 40
0.4982604013792186
 40
0.5017290625861307
 40
0.5017290625861307
 40
0.5017290625861307
 40
0.5017290625861307
 10
16.4992555971349
 20
4.675217180886033
 30
0.0
 10
14.62883887462002
 20
2.660867679835607
 30
0.0
 10
12.40709831100015
 20
1.171366368398516
 30
0.0
 10
9.834033906275314
 20
0.2067132465747626
 30
0.0
  0
LINE
  5
A5
330
1F
100
AcDbEntity
  8
0
  6
Continuous
 62
     7
370
    25
100
AcDbLine
 10
9.8340339063
 20
0.2067132466
 30
0.0
 11
9.8340338991
 21
0.6105217831
 31
0.0
  0
LINE
  5
A6
330
1F
100
AcDbEntity
  8
0
  6
Continuous
 62
     7
370
    25
100
AcDbLine
 10
9.8340338991
 20
0.6105217831
 30
0.0
 11
9.7159236629
 21
0.6105217831
 31
0.0
  0
LINE
  5
A7
330
1F
100
AcDbEntity
  8
0
  6
Continuous
 62
     7
370
    25
100
AcDbLine
 10
9.7159236629
 20
0.6105217831
 30
0.0
 11
9.7159236582
 21
1.0042225689
 31
0.0
  0
SPLINE
  5
A8
330
1F
100
AcDbEntity
  8
0
  6
Continuous
 62
     7
370
    25
100
AcDbSpline
210
0.0
220
0.0
230
1.0
 70
     8
 71
     3
 72
    17
 73
    13
 74
     0
 42
0.000000001
 43
0.00000001
 40
0.4986783576085748
 40
0.4986783576085748
 40
0.4986783576085748
 40
0.4986783576085748
 40
0.498869026669672
 40
0.4990596957307692
 40
0.4994410338529637
 40
0.4998223719751582
 40
0.5002037100973526
 40
0.5005850482195471
 40
0.5009663863417416
 40
0.5013477244639362
 40
0.5015383935250334
 40
0.5016544184643204
 40
0.5016544184643204
 40
0.5016544184643204
 40
0.5016544184643204
 10
15.26087060624714
 20
4.536349880458072
 30
0.0
 10
15.15840414250412
 20
4.437406154038157
 30
0.0
 10
14.95062599303235
 20
4.241762370858484
 30
0.0
 10
14.52810964375272
 20
3.863696055442105
 30
0.0
 10
13.98481805615679
 20
3.413843321729594
 30
0.0
 10
13.30907611007657
 20
2.910756664993882
 30
0.0
 10
12.6091327657843
 20
2.444020908110207
 30
0.0
 10
11.88473712468868
 20
2.013489963766438
 30
0.0
 10
11.13565645919271
 20
1.619044922438763
 30
0.0
 10
10.49035397390473
 20
1.320251924763603
 30
0.0
 10
10.01358645539706
 20
1.120971065184147
 30
0.0
 10
9.797809065366838
 20
1.035826338554052
 30
0.0
 10
9.715923658242344
 20
1.004222568923835
 30
0.0
  0
LINE
  5
A9
330
1F
100
AcDbEntity
  8
0
  6
Continuous
 62
     7
370
    25
100
AcDbLine
 10
15.2608706062
 20
4.9067098284
 30
0.0
 11
15.2608706062
 21
4.5363498805
 31
0.0
  0
SPLINE
  5
AA
330
1F
100
AcDbEntity
  8
0
  6
Continuous
 62
     7
370
    25
100
AcDbSpline
210
0.0
220
0.0
230
1.0
 70
     8
 71
     3
 72
    21
 73
    17
 74
     0
 42
0.000000001
 43
0.00000001
 40
0.0626053330073345
 40
0.0626053330073345
 40
0.0626053330073345
 40
0.0626053330073345
 40
0.0889888209647736
 40
0.1153723089222128
 40
0.1681392848370911
 40
0.2209062607519695
 40
0.2736732366668478
 40
0.3792071884966044
 40
0.4847411403263611
 40
0.5902750921561177
 40
0.6958090439858744
 40
0.7485760199007527
 40
0.8013429958156311
 40
0.8541099717305094
 40
0.8804934596879486
 40
0.9068769476453876
 40
0.9068769476453876
 40
0.9068769476453876
 40
0.9068769476453876
 10
6.68581979041782
 20
8.455595909038587
 30
0.0
 10
6.780954276286058
 20
8.450302462452145
 30
0.0
 10
6.970695747458295
 20
8.437565178705807
 30
0.0
 10
7.352802106387244
 20
8.40327420977306
 30
0.0
 10
7.83245513042966
 20
8.344136460475804
 30
0.0
 10
8.410147134275114
 20
8.247529459466556
 30
0.0
 10
9.180486570183106
 20
8.08517695748393
 30
0.0
 10
10.13906005415963
 20
7.820577176451429
 30
0.0
 10
11.26762377002242
 20
7.408734138183509
 30
0.0
 10
12.35988595500008
 20
6.907300202683573
 30
0.0
 10
13.22785168841524
 20
6.419007771725065
 30
0.0
 10
13.88979182770261
 20
5.988840608238431
 30
0.0
 10
14.36832677002647
 20
5.647135074157837
 30
0.0
 10
14.75064977018863
 20
5.347172114736808
 30
0.0
 10
15.04601390880398
 20
5.098251024721024
 30
0.0
 10
15.18969082038425
 20
4.971204815615438
 30
0.0
 10
15.26087060624809
 20
4.906709828375933
 30
0.0
  0
LINE
  5
AB
330
1F
100
AcDbEntity
  8
0
  6
Continuous
 62
     7
370
    25
100
AcDbLine
 10
7.6297773559
 20
7.7907571895
 30
0.0
 11
7.7478875921
 21
7.7907571895
 31
0.0
  0
LINE
  5
AC
330
1F
100
AcDbEntity
  8
0
  6
Continuous
 62
     7
370
    25
100
AcDbLine
 10
7.7478875921
 20
7.7907571895
 30
0.0
 11
7.7478875921
 21
7.9876075832
 31
0.0
  0
LINE
  5
AD
330
1F
100
AcDbEntity
  8
0
  6
Continuous
 62
     7
370
    25
100
AcDbLine
 10
7.7478875921
 20
7.9876075832
 30
0.0
 11
7.6297773559
 21
7.9876075832
 31
0.0
  0
LINE
  5
AE
330
1F
100
AcDbEntity
  8
0
  6
Continuous
 62
     7
370
    25
100
AcDbLine
 10
7.6297773559
 20
7.9876075832
 30
0.0
 11
7.6297773559
 21
7.7907571895
 31
0.0
  0
LINE
  5
AF
330
1F
100
AcDbEntity
  8
0
  6
Continuous
 62
     7
370
    25
100
AcDbLine
 10
7.6297773559
 20
0.6175288431
 30
0.0
 11
7.7478875921
 21
0.6175288431
 31
0.0
  0
LINE
  5
B0
330
1F
100
AcDbEntity
  8
0
  6
Continuous
 62
     7
370
    25
100
AcDbLine
 10
7.7478875921
 20
0.6175288431
 30
0.0
 11
7.7478875921
 21
0.8143792368
 31
0.0
  0
LINE
  5
B1
330
1F
100
AcDbEntity
  8
0
  6
Continuous
 62
     7
370
    25
100
AcDbLine
 10
7.7478875921
 20
0.8143792368
 30
0.0
 11
7.6297773559
 21
0.8143792368
 31
0.0
  0
LINE
  5
B2
330
1F
100
AcDbEntity
  8
0
  6
Continuous
 62
     7
370
    25
100
AcDbLine
 10
7.6297773559
 20
0.8143792368
 30
0.0
 11
7.6297773559
 21
0.6175288431
 31
0.0
  0
SPLINE
  5
B3
330
1F
100
AcDbEntity
  8
0
  6
Continuous
 62
     7
370
    25
100
AcDbSpline
210
0.0
220
0.0
230
1.0
 70
     8
 71
     3
 72
     8
 73
     4
 74
     0
 42
0.000000001
 43
0.00000001
 40
0.0
 40
0.0
 40
0.0
 40
0.0
 40
0.9932859672851336
 40
0.9932859672851336
 40
0.9932859672851336
 40
0.9932859672851336
 10
4.913241922799385
 20
0.1293398647407923
 30
0.0
 10
8.361262212545077
 20
0.1293398647407917
 30
0.0
 10
11.77415917324806
 20
1.342686871762291
 30
0.0
 10
13.65828733404624
 20
4.243513094929701
 30
0.0
  0
LINE
  5
B4
330
1F
100
AcDbEntity
  8
0
  6
Continuous
 62
     7
370
    25
100
AcDbLine
 10
4.9132419228
 20
0.4246154553
 30
0.0
 11
4.9132419228
 21
0.1293398647
 31
0.0
  0
LINE
  5
B5
330
1F
100
AcDbEntity
  8
0
  6
Continuous
 62
     7
370
    25
100
AcDbLine
 10
4.7951316866
 20
0.4246154553
 30
0.0
 11
4.9132419228
 21
0.4246154553
 31
0.0
  0
LINE
  5
B6
330
1F
100
AcDbEntity
  8
0
  6
Continuous
 62
     7
370
    25
100
AcDbLine
 10
4.7951316866
 20
0.7198910458
 30
0.0
 11
4.7951316866
 21
0.4246154553
 31
0.0
  0
LINE
  5
B7
330
1F
100
AcDbEntity
  8
0
  6
Continuous
 62
     7
370
    25
100
AcDbLine
 10
4.9132419228
 20
0.7198910458
 30
0.0
 11
4.7951316866
 21
0.7198910458
 31
0.0
  0
SPLINE
  5
B8
330
1F
100
AcDbEntity
  8
0
  6
Continuous
 62
     7
370
    25
100
AcDbSpline
210
0.0
220
0.0
230
1.0
 70
     8
 71
     3
 72
    19
 73
    15
 74
     0
 42
0.000000001
 43
0.00000001
 40
0.0
 40
0.0
 40
0.0
 40
0.0
 40
0.029991734361048
 40
0.059983468722096
 40
0.1199669374441921
 40
0.1799504061662881
 40
0.2399338748883841
 40
0.3599008123325762
 40
0.4798677497767683
 40
0.5998346872209603
 40
0.7198016246651525
 40
0.8397685621093446
 40
0.8997520308314406
 40
0.9597354995535367
 40
0.9597354995535367
 40
0.9597354995535367
 40
0.9597354995535367
 10
12.98120859048646
 20
4.297972163958535
 30
0.0
 10
12.92588230575321
 20
4.220309424080698
 30
0.0
 10
12.81189538462021
 20
4.066635326052767
 30
0.0
 10
12.57518636476134
 20
3.771815940773177
 30
0.0
 10
12.2613790585698
 20
3.423638905322677
 30
0.0
 10
11.85819808757312
 20
3.038315895336243
 30
0.0
 10
11.28682031879233
 20
2.566500751670914
 30
0.0
 10
10.51291587887447
 20
2.053815754868115
 30
0.0
 10
9.501115491563976
 20
1.55778912556814
 30
0.0
 10
8.419978958165245
 20
1.177841469978175
 30
0.0
 10
7.284533265468653
 20
0.9109613163673191
 30
0.0
 10
6.306067400472934
 20
0.7800608125125583
 30
0.0
 10
5.512473464263787
 20
0.7283861255693501
 30
0.0
 10
5.11279116341775
 20
0.7198910458431567
 30
0.0
 10
4.91324192279937
 20
0.7198910458431567
 30
0.0
  0
SPLINE
  5
B9
330
1F
100
AcDbEntity
  8
0
  6
Continuous
 62
     7
370
    25
100
AcDbSpline
210
0.0
220
0.0
230
1.0
 70
     8
 71
     3
 72
    21
 73
    17
 74
     0
 42
0.000000001
 43
0.00000001
 40
0.0
 40
0.0
 40
0.0
 40
0.0
 40
0.0300080345412647
 40
0.0600160690825293
 40
0.1200321381650588
 40
0.1800482072475881
 40
0.2400642763301174
 40
0.3600964144951762
 40
0.4801285526602349
 40
0.6001606908252936
 40
0.7201928289903523
 40
0.7802088980728816
 40
0.840224967155411
 40
0.9002410362379403
 40
0.930249070779205
 40
0.9602571053204697
 40
0.9602571053204697
 40
0.9602571053204697
 40
0.9602571053204697
 10
4.913241922799354
 20
7.885245376551713
 30
0.0
 10
5.016865016480187
 20
7.885245376551713
 30
0.0
 10
5.224661022584911
 20
7.883113232780585
 30
0.0
 10
5.635722044278134
 20
7.870240364466497
 30
0.0
 10
6.14365770612044
 20
7.837860582340908
 30
0.0
 10
6.741561179236989
 20
7.772487928067698
 30
0.0
 10
7.521978409609894
 20
7.649390610537409
 30
0.0
 10
8.46286857886781
 20
7.427096023552307
 30
0.0
 10
9.527594613221165
 20
7.047653018404274
 30
0.0
 10
10.51999890435775
 20
6.552159554899298
 30
0.0
 10
11.28100069441384
 20
6.039169623216236
 30
0.0
 10
11.84716861445898
 20
5.565958156964809
 30
0.0
 10
12.24967054681363
 20
5.178852046701641
 30
0.0
 10
12.56618060747836
 20
4.82839351599459
 30
0.0
 10
12.80719397387424
 20
4.531365016915561
 30
0.0
 10
12.92427409410141
 20
4.376222162310987
 30
0.0
 10
12.98120859048645
 20
4.297972163958534
 30
0.0
  0
LINE
  5
BA
330
1F
100
AcDbEntity
  8
0
  6
Continuous
 62
     7
370
    25
100
AcDbLine
 10
4.7951316866
 20
7.8852453766
 30
0.0
 11
4.9132419228
 21
7.8852453766
 31
0.0
  0
LINE
  5
BB
330
1F
100
AcDbEntity
  8
0
  6
Continuous
 62
     7
370
    25
100
AcDbLine
 10
4.7951316866
 20
8.1805209671
 30
0.0
 11
4.7951316866
 21
7.8852453766
 31
0.0
  0
LINE
  5
BC
330
1F
100
AcDbEntity
  8
0
  6
Continuous
 62
     7
370
    25
100
AcDbLine
 10
4.9132419228
 20
8.1805209671
 30
0.0
 11
4.7951316866
 21
8.1805209671
 31
0.0
  0
LINE
  5
BD
330
1F
100
AcDbEntity
  8
0
  6
Continuous
 62
     7
370
    25
100
AcDbLine
 10
4.9132419228
 20
8.4757965577
 30
0.0
 11
4.9132419228
 21
8.1805209671
 31
0.0
  0
SPLINE
  5
BE
330
1F
100
AcDbEntity
  8
0
  6
Continuous
 62
     7
370
    25
100
AcDbSpline
210
0.0
220
0.0
230
1.0
 70
     8
 71
     3
 72
     8
 73
     4
 74
     0
 42
0.000000001
 43
0.00000001
 40
0.0067140327018611
 40
0.0067140327018611
 40
0.0067140327018611
 40
0.0067140327018611
 40
1.0
 40
1.0
 40
1.0
 40
1.0
 10
13.65700885356051
 20
4.361623331296666
 30
0.0
 10
11.7115451019829
 20
7.262449556311299
 30
0.0
 10
8.489201203383885
 20
8.475796557654089
 30
0.0
 10
4.913241922799385
 20
8.475796557654089
 30
0.0
  0
LINE
  5
BF
330
1F
100
AcDbEntity
  8
0
  6
Continuous
 62
     7
370
    25
100
AcDbLine
 10
13.6570088535
 20
4.3616233313
 30
0.0
 11
13.3225032276
 21
4.3616233313
 31
0.0
  0
LINE
  5
C0
330
1F
100
AcDbEntity
  8
0
  6
Continuous
 62
     7
370
    25
100
AcDbLine
 10
13.3225032276
 20
4.3616233313
 30
0.0
 11
13.3225032276
 21
4.243513095
 31
0.0
  0
LINE
  5
C1
330
1F
100
AcDbEntity
  8
0
  6
Continuous
 62
     7
370
    25
100
AcDbLine
 10
13.3225032276
 20
4.243513095
 30
0.0
 11
13.658287334
 21
4.2435130949
 31
0.0
  0
MTEXT
  5
C3
330
1F
100
AcDbEntity
  8
0
  6
Continuous
 62
     7
100
AcDbMText
 10
0.0
 20
0.5641932659
 30
0.0
 40
0.2022874016
 41
0.0
 71
     1
 72
     1
  1
SOLIDWORKS Educational Product.
  7
SLDTEXTSTYLE0
 73
     1
 44
1.0
  0
MTEXT
  5
C4
330
1F
100
AcDbEntity
  8
0
  6
Continuous
 62
     7
100
AcDbMText
 10
0.0
 20
0.2607621635
 30
0.0
 40
0.2022874016
 41
0.0
 71
     1
 72
     1
  1
For Instructional Use Only.
  7
SLDTEXTSTYLE0
 73
     1
 44
1.0
  0
ENDSEC
  0
SECTION
  2
OBJECTS
  0
DICTIONARY
  5
C
330
0
100
AcDbDictionary
281
     1
  3
ACAD_GROUP
350
D
  3
ACAD_LAYOUT
350
1A
  3
ACAD_MLINESTYLE
350
17
  3
ACAD_PLOTSETTINGS
350
19
  3
ACAD_PLOTSTYLENAME
350
E
  3
ACAD_SCALELIST
350
47
  0
DICTIONARY
  5
D
102
{ACAD_REACTORS
330
C
102
}
330
C
100
AcDbDictionary
281
     1
  0
DICTIONARY
  5
1A
102
{ACAD_REACTORS
330
C
102
}
330
C
100
AcDbDictionary
281
     1
  3
Layout1
350
1E
  3
Layout2
350
26
  3
Model
350
22
  0
DICTIONARY
  5
17
102
{ACAD_REACTORS
330
C
102
}
330
C
100
AcDbDictionary
281
     1
  3
Standard
350
18
  0
DICTIONARY
  5
19
102
{ACAD_REACTORS
330
C
102
}
330
C
100
AcDbDictionary
281
     1
  0
ACDBDICTIONARYWDFLT
  5
E
102
{ACAD_REACTORS
330
C
102
}
330
C
100
AcDbDictionary
281
     1
  3
Normal
350
F
100
AcDbDictionaryWithDefault
340
F
  0
DICTIONARY
  5
47
102
{ACAD_REACTORS
330
C
102
}
330
C
100
AcDbDictionary
281
     1
  3
A0
350
48
  3
A1
350
49
  3
A2
350
4A
  3
A3
350
4B
  3
A4
350
4C
  3
A5
350
4D
  3
A6
350
4E
  3
A7
350
4F
  3
A8
350
50
  3
A9
350
51
  3
B0
350
52
  3
B1
350
53
  3
B2
350
54
  3
B3
350
55
  3
B4
350
56
  3
B5
350
57
  3
B6
350
58
  3
B7
350
59
  3
B8
350
5A
  3
B9
350
5B
  3
C0
350
5C
  3
C1
350
5D
  3
C2
350
5E
  3
C3
350
5F
  3
C4
350
60
  3
C5
350
61
  3
C6
350
62
  3
C7
350
63
  3
C8
350
64
  3
C9
350
65
  3
D0
350
66
  3
D1
350
67
  3
D2
350
68
  0
LAYOUT
  5
1E
102
{ACAD_REACTORS
330
1A
102
}
330
1A
100
AcDbPlotSettings
  1

  2
none_device
  4

  6

 40
0.0
 41
0.0
 42
0.0
 43
0.0
 44
0.0
 45
0.0
 46
0.0
 47
0.0
 48
0.0
 49
0.0
140
0.0
141
0.0
142
1.0
143
1.0
 70
   688
 72
     0
 73
     0
 74
     5
  7

 75
    16
147
1.0
148
0.0
149
0.0
100
AcDbLayout
  1
Layout1
 70
     1
 71
     1
 10
0.0
 20
0.0
 11
12.0
 21
9.0
 12
0.0
 22
0.0
 32
0.0
 14
1.0000000000E+20
 24
1.0000000000E+20
 34
1.0000000000E+20
 15
-1.0000000000E+20
 25
-1.0000000000E+20
 35
-1.0000000000E+20
146
0.0
 13
0.0
 23
0.0
 33
0.0
 16
1.0
 26
0.0
 36
0.0
 17
0.0
 27
1.0
 37
0.0
 76
     0
330
1B
  0
LAYOUT
  5
26
102
{ACAD_REACTORS
330
1A
102
}
330
1A
100
AcDbPlotSettings
  1

  2
none_device
  4

  6

 40
0.0
 41
0.0
 42
0.0
 43
0.0
 44
0.0
 45
0.0
 46
0.0
 47
0.0
 48
0.0
 49
0.0
140
0.0
141
0.0
142
1.0
143
1.0
 70
   688
 72
     0
 73
     0
 74
     5
  7

 75
    16
147
1.0
148
0.0
149
0.0
100
AcDbLayout
  1
Layout2
 70
     1
 71
     2
 10
0.0
 20
0.0
 11
0.0
 21
0.0
 12
0.0
 22
0.0
 32
0.0
 14
0.0
 24
0.0
 34
0.0
 15
0.0
 25
0.0
 35
0.0
146
0.0
 13
0.0
 23
0.0
 33
0.0
 16
1.0
 26
0.0
 36
0.0
 17
0.0
 27
1.0
 37
0.0
 76
     0
330
23
  0
LAYOUT
  5
22
102
{ACAD_REACTORS
330
1A
102
}
330
1A
100
AcDbPlotSettings
  1

  2
none_device
  4
Letter_(8.50_x_11.00_Inches)
  6

 40
6.35
 41
6.35
 42
6.35000508
 43
6.35000508
 44
215.9
 45
279.4
 46
0.0
 47
0.0
 48
0.0
 49
0.0
140
0.0
141
0.0
142
1.0
143
1.0
 70
  1712
 72
     0
 73
     0
 74
     0
  7

 75
     0
147
1.0
148
0.0
149
0.0
100
AcDbLayout
  1
Model
 70
     1
 71
     0
 10
0.0
 20
0.0
 11
16.5354330709
 21
11.6929133858
 12
0.0
 22
0.0
 32
0.0
 14
0.0
 24
0.0
 34
0.0
 15
16.5354330709
 25
11.6929133858
 35
0.0
146
0.0
 13
0.0
 23
0.0
 33
0.0
 16
1.0
 26
0.0
 36
0.0
 17
0.0
 27
1.0
 37
0.0
 76
     0
330
1F
331
29
  0
MLINESTYLE
  5
18
102
{ACAD_REACTORS
330
17
102
}
330
17
100
AcDbMlineStyle
  2
Standard
 70
     0
  3

 62
   256
 51
90.0
 52
90.0
 71
     2
 49
0.5
 62
   256
  6
BYLAYER
 49
-0.5
 62
   256
  6
BYLAYER
  0
ACDBPLACEHOLDER
  5
F
102
{ACAD_REACTORS
330
E
102
}
330
E
  0
SCALE
  5
48
102
{ACAD_REACTORS
330
47
102
}
330
47
100
AcDbScale
 70
     0
300
1:1
140
1.0
141
1.0
290
     1
  0
SCALE
  5
49
102
{ACAD_REACTORS
330
47
102
}
330
47
100
AcDbScale
 70
     0
300
1:2
140
1.0
141
2.0
290
     0
  0
SCALE
  5
4A
102
{ACAD_REACTORS
330
47
102
}
330
47
100
AcDbScale
 70
     0
300
1:4
140
1.0
141
4.0
290
     0
  0
SCALE
  5
4B
102
{ACAD_REACTORS
330
47
102
}
330
47
100
AcDbScale
 70
     0
300
1:5
140
1.0
141
5.0
290
     0
  0
SCALE
  5
4C
102
{ACAD_REACTORS
330
47
102
}
330
47
100
AcDbScale
 70
     0
300
1:8
140
1.0
141
8.0
290
     0
  0
SCALE
  5
4D
102
{ACAD_REACTORS
330
47
102
}
330
47
100
AcDbScale
 70
     0
300
1:10
140
1.0
141
10.0
290
     0
  0
SCALE
  5
4E
102
{ACAD_REACTORS
330
47
102
}
330
47
100
AcDbScale
 70
     0
300
1:16
140
1.0
141
16.0
290
     0
  0
SCALE
  5
4F
102
{ACAD_REACTORS
330
47
102
}
330
47
100
AcDbScale
 70
     0
300
1:20
140
1.0
141
20.0
290
     0
  0
SCALE
  5
50
102
{ACAD_REACTORS
330
47
102
}
330
47
100
AcDbScale
 70
     0
300
1:30
140
1.0
141
30.0
290
     0
  0
SCALE
  5
51
102
{ACAD_REACTORS
330
47
102
}
330
47
100
AcDbScale
 70
     0
300
1:40
140
1.0
141
40.0
290
     0
  0
SCALE
  5
52
102
{ACAD_REACTORS
330
47
102
}
330
47
100
AcDbScale
 70
     0
300
1:50
140
1.0
141
50.0
290
     0
  0
SCALE
  5
53
102
{ACAD_REACTORS
330
47
102
}
330
47
100
AcDbScale
 70
     0
300
1:100
140
1.0
141
100.0
290
     0
  0
SCALE
  5
54
102
{ACAD_REACTORS
330
47
102
}
330
47
100
AcDbScale
 70
     0
300
2:1
140
2.0
141
1.0
290
     0
  0
SCALE
  5
55
102
{ACAD_REACTORS
330
47
102
}
330
47
100
AcDbScale
 70
     0
300
4:1
140
4.0
141
1.0
290
     0
  0
SCALE
  5
56
102
{ACAD_REACTORS
330
47
102
}
330
47
100
AcDbScale
 70
     0
300
8:1
140
8.0
141
1.0
290
     0
  0
SCALE
  5
57
102
{ACAD_REACTORS
330
47
102
}
330
47
100
AcDbScale
 70
     0
300
10:1
140
10.0
141
1.0
290
     0
  0
SCALE
  5
58
102
{ACAD_REACTORS
330
47
102
}
330
47
100
AcDbScale
 70
     0
300
100:1
140
100.0
141
1.0
290
     0
  0
SCALE
  5
59
102
{ACAD_REACTORS
330
47
102
}
330
47
100
AcDbScale
 70
     0
300
1/128" = 1'-0"
140
0.0078125
141
12.0
290
     0
  0
SCALE
  5
5A
102
{ACAD_REACTORS
330
47
102
}
330
47
100
AcDbScale
 70
     0
300
1/64" = 1'-0"
140
0.015625
141
12.0
290
     0
  0
SCALE
  5
5B
102
{ACAD_REACTORS
330
47
102
}
330
47
100
AcDbScale
 70
     0
300
1/32" = 1'-0"
140
0.03125
141
12.0
290
     0
  0
SCALE
  5
5C
102
{ACAD_REACTORS
330
47
102
}
330
47
100
AcDbScale
 70
     0
300
1/16" = 1'-0"
140
0.0625
141
12.0
290
     0
  0
SCALE
  5
5D
102
{ACAD_REACTORS
330
47
102
}
330
47
100
AcDbScale
 70
     0
300
3/32" = 1'-0"
140
0.09375
141
12.0
290
     0
  0
SCALE
  5
5E
102
{ACAD_REACTORS
330
47
102
}
330
47
100
AcDbScale
 70
     0
300
1/8" = 1'-0"
140
0.125
141
12.0
290
     0
  0
SCALE
  5
5F
102
{ACAD_REACTORS
330
47
102
}
330
47
100
AcDbScale
 70
     0
300
3/16" = 1'-0"
140
0.1875
141
12.0
290
     0
  0
SCALE
  5
60
102
{ACAD_REACTORS
330
47
102
}
330
47
100
AcDbScale
 70
     0
300
1/4" = 1'-0"
140
0.25
141
12.0
290
     0
  0
SCALE
  5
61
102
{ACAD_REACTORS
330
47
102
}
330
47
100
AcDbScale
 70
     0
300
3/8" = 1'-0"
140
0.375
141
12.0
290
     0
  0
SCALE
  5
62
102
{ACAD_REACTORS
330
47
102
}
330
47
100
AcDbScale
 70
     0
300
1/2" = 1'-0"
140
0.5
141
12.0
290
     0
  0
SCALE
  5
63
102
{ACAD_REACTORS
330
47
102
}
330
47
100
AcDbScale
 70
     0
300
3/4" = 1'-0"
140
0.75
141
12.0
290
     0
  0
SCALE
  5
64
102
{ACAD_REACTORS
330
47
102
}
330
47
100
AcDbScale
 70
     0
300
1" = 1'-0"
140
1.0
141
12.0
290
     0
  0
SCALE
  5
65
102
{ACAD_REACTORS
330
47
102
}
330
47
100
AcDbScale
 70
     0
300
1-1/2" = 1'-0"
140
1.5
141
12.0
290
     0
  0
SCALE
  5
66
102
{ACAD_REACTORS
330
47
102
}
330
47
100
AcDbScale
 70
     0
300
3" = 1'-0"
140
3.0
141
12.0
290
     0
  0
SCALE
  5
67
102
{ACAD_REACTORS
330
47
102
}
330
47
100
AcDbScale
 70
     0
300
6" = 1'-0"
140
6.0
141
12.0
290
     0
  0
SCALE
  5
68
102
{ACAD_REACTORS
330
47
102
}
330
47
100
AcDbScale
 70
     0
300
1'-0" = 1'-0"
140
12.0
141
12.0
290
     0
  0
ENDSEC
  0
EOF
