  0
SECTION
  2
HEADER
  9
$ACADVER
  1
AC1015
  9
$ACADMAINTVER
 70
     6
  9
$DWGCODEPAGE
  3
ANSI_1252
  9
$INSBASE
 10
0.0
 20
0.0
 30
0.0
  9
$EXTMIN
 10
0.0
 20
0.0
 30
0.0
  9
$EXTMAX
 10
16.5354330709
 20
11.6929133858
 30
0.0
  9
$LIMMIN
 10
0.0
 20
0.0
  9
$LIMMAX
 10
16.5354330709
 20
11.6929133858
  9
$ORTHOMODE
 70
     0
  9
$REGENMODE
 70
     1
  9
$FILLMODE
 70
     1
  9
$QTEXTMODE
 70
     0
  9
$MIRRTEXT
 70
     1
  9
$LTSCALE
 40
1.0
  9
$ATTMODE
 70
     1
  9
$TEXTSIZE
 40
0.1377952756
  9
$TRACEWID
 40
0.05
  9
$TEXTSTYLE
  7
Standard
  9
$CLAYER
  8
0
  9
$CELTYPE
  6
ByLayer
  9
$CECOLOR
 62
   256
  9
$CELTSCALE
 40
1.0
  9
$DISPSILH
 70
     0
  9
$DIMSCALE
 40
1.0
  9
$DIMASZ
 40
0.13
  9
$DIMEXO
 40
0.0393700787
  9
$DIMDLI
 40
0.38
  9
$DIMRND
 40
0.0
  9
$DIMDLE
 40
0.0
  9
$DIMEXE
 40
0.0393700787
  9
$DIMTP
 40
0.0
  9
$DIMTM
 40
0.0
  9
$DIMTXT
 40
0.1377952756
  9
$DIMCEN
 40
0.09
  9
$DIMTSZ
 40
0.0
  9
$DIMTOL
 70
     0
  9
$DIMLIM
 70
     0
  9
$DIMTIH
 70
     1
  9
$DIMTOH
 70
     1
  9
$DIMSE1
 70
     0
  9
$DIMSE2
 70
     0
  9
$DIMTAD
 70
     1
  9
$DIMZIN
 70
     1
  9
$DIMBLK
  1

  9
$DIMASO
 70
     1
  9
$DIMSHO
 70
     1
  9
$DIMPOST
  1

  9
$DIMAPOST
  1

  9
$DIMALT
 70
     0
  9
$DIMALTD
 70
     2
  9
$DIMALTF
 40
25.4
  9
$DIMLFAC
 40
1.0
  9
$DIMTOFL
 70
     0
  9
$DIMTVP
 40
0.0
  9
$DIMTIX
 70
     0
  9
$DIMSOXD
 70
     0
  9
$DIMSAH
 70
     0
  9
$DIMBLK1
  1

  9
$DIMBLK2
  1

  9
$DIMSTYLE
  2
Standard
  9
$DIMCLRD
 70
     0
  9
$DIMCLRE
 70
     0
  9
$DIMCLRT
 70
     0
  9
$DIMTFAC
 40
1.0
  9
$DIMGAP
 40
0.06
  9
$DIMJUST
 70
     0
  9
$DIMSD1
 70
     0
  9
$DIMSD2
 70
     0
  9
$DIMTOLJ
 70
     1
  9
$DIMTZIN
 70
     1
  9
$DIMALTZ
 70
     0
  9
$DIMALTTZ
 70
     0
  9
$DIMUPT
 70
     0
  9
$DIMDEC
 70
     2
  9
$DIMTDEC
 70
     2
  9
$DIMALTU
 70
     2
  9
$DIMALTTD
 70
     2
  9
$DIMTXSTY
  7
Standard
  9
$DIMAUNIT
 70
     0
  9
$DIMADEC
 70
     2
  9
$DIMALTRND
 40
0.0
  9
$DIMAZIN
 70
     0
  9
$DIMDSEP
 70
    46
  9
$DIMATFIT
 70
     3
  9
$DIMFRAC
 70
     0
  9
$DIMLDRBLK
  1

  9
$DIMLUNIT
 70
     2
  9
$DIMLWD
 70
    -2
  9
$DIMLWE
 70
    -2
  9
$DIMTMOVE
 70
     0
  9
$LUNITS
 70
     2
  9
$LUPREC
 70
     2
  9
$SKETCHINC
 40
0.1
  9
$FILLETRAD
 40
0.5
  9
$AUNITS
 70
     0
  9
$AUPREC
 70
     2
  9
$MENU
  1
.
  9
$ELEVATION
 40
0.0
  9
$PELEVATION
 40
0.0
  9
$THICKNESS
 40
0.0
  9
$LIMCHECK
 70
     0
  9
$CHAMFERA
 40
0.0
  9
$CHAMFERB
 40
0.0
  9
$CHAMFERC
 40
0.0
  9
$CHAMFERD
 40
0.0
  9
$SKPOLY
 70
     0
  9
$TDCREATE
 40
2459340.069874711
  9
$TDUCREATE
 40
2459340.028208044
  9
$TDUPDATE
 40
2459340.069875486
  9
$TDUUPDATE
 40
2459340.028208819
  9
$TDINDWG
 40
0.0000000116
  9
$TDUSRTIMER
 40
0.0000000116
  9
$USRTIMER
 70
     1
  9
$ANGBASE
 50
0.0
  9
$ANGDIR
 70
     0
  9
$PDMODE
 70
     0
  9
$PDSIZE
 40
-1.0
  9
$PLINEWID
 40
0.0
  9
$SPLFRAME
 70
     0
  9
$SPLINETYPE
 70
     6
  9
$SPLINESEGS
 70
     8
  9
$HANDSEED
  5
351
  9
$SURFTAB1
 70
     6
  9
$SURFTAB2
 70
     6
  9
$SURFTYPE
 70
     6
  9
$SURFU
 70
     6
  9
$SURFV
 70
     6
  9
$UCSBASE
  2

  9
$UCSNAME
  2

  9
$UCSORG
 10
0.0
 20
0.0
 30
0.0
  9
$UCSXDIR
 10
1.0
 20
0.0
 30
0.0
  9
$UCSYDIR
 10
0.0
 20
1.0
 30
0.0
  9
$UCSORTHOREF
  2

  9
$UCSORTHOVIEW
 70
     0
  9
$UCSORGTOP
 10
0.0
 20
0.0
 30
0.0
  9
$UCSORGBOTTOM
 10
0.0
 20
0.0
 30
0.0
  9
$UCSORGLEFT
 10
0.0
 20
0.0
 30
0.0
  9
$UCSORGRIGHT
 10
0.0
 20
0.0
 30
0.0
  9
$UCSORGFRONT
 10
0.0
 20
0.0
 30
0.0
  9
$UCSORGBACK
 10
0.0
 20
0.0
 30
0.0
  9
$PUCSBASE
  2

  9
$PUCSNAME
  2

  9
$PUCSORG
 10
0.0
 20
0.0
 30
0.0
  9
$PUCSXDIR
 10
1.0
 20
0.0
 30
0.0
  9
$PUCSYDIR
 10
0.0
 20
1.0
 30
0.0
  9
$PUCSORTHOREF
  2

  9
$PUCSORTHOVIEW
 70
     0
  9
$PUCSORGTOP
 10
0.0
 20
0.0
 30
0.0
  9
$PUCSORGBOTTOM
 10
0.0
 20
0.0
 30
0.0
  9
$PUCSORGLEFT
 10
0.0
 20
0.0
 30
0.0
  9
$PUCSORGRIGHT
 10
0.0
 20
0.0
 30
0.0
  9
$PUCSORGFRONT
 10
0.0
 20
0.0
 30
0.0
  9
$PUCSORGBACK
 10
0.0
 20
0.0
 30
0.0
  9
$USERI1
 70
     0
  9
$USERI2
 70
     0
  9
$USERI3
 70
     0
  9
$USERI4
 70
     0
  9
$USERI5
 70
     0
  9
$USERR1
 40
0.0
  9
$USERR2
 40
0.0
  9
$USERR3
 40
0.0
  9
$USERR4
 40
0.0
  9
$USERR5
 40
0.0
  9
$WORLDVIEW
 70
     1
  9
$SHADEDGE
 70
     3
  9
$SHADEDIF
 70
    70
  9
$TILEMODE
 70
     1
  9
$MAXACTVP
 70
    64
  9
$PINSBASE
 10
0.0
 20
0.0
 30
0.0
  9
$PLIMCHECK
 70
     0
  9
$PEXTMIN
 10
1.0000000000E+20
 20
1.0000000000E+20
 30
1.0000000000E+20
  9
$PEXTMAX
 10
-1.0000000000E+20
 20
-1.0000000000E+20
 30
-1.0000000000E+20
  9
$PLIMMIN
 10
0.0
 20
0.0
  9
$PLIMMAX
 10
12.0
 20
9.0
  9
$UNITMODE
 70
     0
  9
$VISRETAIN
 70
     1
  9
$PLINEGEN
 70
     0
  9
$PSLTSCALE
 70
     1
  9
$TREEDEPTH
 70
  3020
  9
$CMLSTYLE
  2
Standard
  9
$CMLJUST
 70
     0
  9
$CMLSCALE
 40
1.0
  9
$PROXYGRAPHICS
 70
     1
  9
$MEASUREMENT
 70
     0
  9
$CELWEIGHT
370
    -1
  9
$ENDCAPS
280
     0
  9
$JOINSTYLE
280
     0
  9
$LWDISPLAY
290
     1
  9
$INSUNITS
 70
     1
  9
$HYPERLINKBASE
  1

  9
$STYLESHEET
  1

  9
$XEDIT
290
     1
  9
$CEPSNTYPE
380
     0
  9
$PSTYLEMODE
290
     1
  9
$FINGERPRINTGUID
  2
{5baf778e-8648-40f9-badb-57fb63a28cbd}
  9
$VERSIONGUID
  2
{FAEB1C32-E019-11D5-929B-00C0DF256EC4}
  9
$EXTNAMES
290
     1
  9
$PSVPSCALE
 40
0.0
  9
$OLESTARTUP
290
     0
  0
ENDSEC
  0
SECTION
  2
CLASSES
  0
CLASS
  1
ACDBDICTIONARYWDFLT
  2
AcDbDictionaryWithDefault
  3
ObjectDBX Classes
 90
        0
280
     0
281
     0
  0
CLASS
  1
VISUALSTYLE
  2
AcDbVisualStyle
  3
ObjectDBX Classes
 90
     4095
280
     0
281
     0
  0
CLASS
  1
MATERIAL
  2
AcDbMaterial
  3
ObjectDBX Classes
 90
     1153
280
     0
281
     0
  0
CLASS
  1
SCALE
  2
AcDbScale
  3
ObjectDBX Classes
 90
     1153
280
     0
281
     0
  0
CLASS
  1
TABLESTYLE
  2
AcDbTableStyle
  3
ObjectDBX Classes
 90
     4095
280
     0
281
     0
  0
CLASS
  1
MLEADERSTYLE
  2
AcDbMLeaderStyle
  3
ACDB_MLEADERSTYLE_CLASS
 90
     4095
280
     0
281
     0
  0
CLASS
  1
SUN
  2
AcDbSun
  3
SCENEOE
 90
     1153
280
     0
281
     0
  0
CLASS
  1
ACDBPLACEHOLDER
  2
AcDbPlaceHolder
  3
ObjectDBX Classes
 90
        0
280
     0
281
     0
  0
CLASS
  1
LAYOUT
  2
AcDbLayout
  3
ObjectDBX Classes
 90
        0
280
     0
281
     0
  0
ENDSEC
  0
SECTION
  2
TABLES
  0
TABLE
  2
VPORT
  5
8
330
0
100
AcDbSymbolTable
 70
     1
  0
VPORT
  5
29
330
8
100
AcDbSymbolTableRecord
100
AcDbViewportTableRecord
  2
*Active
 70
     0
 10
0.0
 20
0.0
 11
1.0
 21
1.0
 12
8.2677165354
 22
5.8464566929
 13
0.0
 23
0.0
 14
0.5
 24
0.5
 15
0.5
 25
0.5
 16
0.0
 26
0.0
 36
1.0
 17
0.0
 27
0.0
 37
0.0
 40
11.6929133858
 41
1.4141414141
 42
50.0
 43
0.0
 44
0.0
 50
0.0
 51
0.0
 71
     0
 72
  2000
 73
     1
 74
     3
 75
     0
 76
     0
 77
     0
 78
     0
281
     0
 65
     1
110
0.0
120
0.0
130
0.0
111
1.0
121
0.0
131
0.0
112
0.0
122
1.0
132
0.0
 79
     0
146
0.0
  0
ENDTAB
  0
TABLE
  2
LTYPE
  5
5
330
0
100
AcDbSymbolTable
 70
     6
  0
LTYPE
  5
14
330
5
100
AcDbSymbolTableRecord
100
AcDbLinetypeTableRecord
  2
ByBlock
 70
     0
  3

 72
    65
 73
     0
 40
0.0
  0
LTYPE
  5
15
330
5
100
AcDbSymbolTableRecord
100
AcDbLinetypeTableRecord
  2
ByLayer
 70
     0
  3

 72
    65
 73
     0
 40
0.0
  0
LTYPE
  5
16
330
5
100
AcDbSymbolTableRecord
100
AcDbLinetypeTableRecord
  2
Continuous
 70
     0
  3
Solid line
 72
    65
 73
     0
 40
0.0
  0
LTYPE
  5
6E
330
5
100
AcDbSymbolTableRecord
100
AcDbLinetypeTableRecord
  2
HIDDEN
 70
     0
  3
Hidden __ __ __ __ __ __ __ __ __ __ __ __ __ __
 72
    65
 73
     2
 40
0.075
 49
0.05
 74
     0
 49
-0.025
 74
     0
  0
LTYPE
  5
6F
330
5
100
AcDbSymbolTableRecord
100
AcDbLinetypeTableRecord
  2
PHANTOM
 70
     0
  3
Phantom ______  __  __  ______  __  __  ______
 72
    65
 73
     6
 40
0.5
 49
0.25
 74
     0
 49
-0.05
 74
     0
 49
0.05
 74
     0
 49
-0.05
 74
     0
 49
0.05
 74
     0
 49
-0.05
 74
     0
  0
LTYPE
  5
70
330
5
100
AcDbSymbolTableRecord
100
AcDbLinetypeTableRecord
  2
CENTER
 70
     0
  3
Center ____ _ ____ _ ____ _ ____ _ ____ _ ____
 72
    65
 73
     4
 40
0.4
 49
0.25
 74
     0
 49
-0.05
 74
     0
 49
0.05
 74
     0
 49
-0.05
 74
     0
  0
LTYPE
  5
71
330
5
100
AcDbSymbolTableRecord
100
AcDbLinetypeTableRecord
  2
CENTERX2
 70
     0
  3
Center (2x) ________  __  ________  __  _____
 72
    65
 73
     4
 40
0.8
 49
0.5
 74
     0
 49
-0.1
 74
     0
 49
0.1
 74
     0
 49
-0.1
 74
     0
  0
LTYPE
  5
72
330
5
100
AcDbSymbolTableRecord
100
AcDbLinetypeTableRecord
  2
DOT2
 70
     0
  3
Dot (.5x) ........................................
 72
    65
 73
     2
 40
0.025
 49
0.0
 74
     0
 49
-0.025
 74
     0
  0
ENDTAB
  0
TABLE
  2
LAYER
  5
2
330
0
100
AcDbSymbolTable
 70
     2
  0
LAYER
  5
10
330
2
100
AcDbSymbolTableRecord
100
AcDbLayerTableRecord
  2
0
 70
     0
 62
     7
  6
Continuous
370
    -3
390
F
  0
LAYER
  5
73
330
2
100
AcDbSymbolTableRecord
100
AcDbLayerTableRecord
  2
FORMAT
 70
     0
 62
     7
  6
Continuous
370
    -3
390
F
  0
ENDTAB
  0
TABLE
  2
STYLE
  5
3
330
0
100
AcDbSymbolTable
 70
     2
  0
STYLE
  5
11
330
3
100
AcDbSymbolTableRecord
100
AcDbTextStyleTableRecord
  2
Standard
 70
     0
 40
0.0
 41
1.0
 50
0.0
 71
     0
 42
0.1377952756
  3
txt
  4

  0
STYLE
  5
34E
330
3
100
AcDbSymbolTableRecord
100
AcDbTextStyleTableRecord
  2
SLDTEXTSTYLE0
 70
     0
 40
0.0
 41
0.7
 50
0.0
 71
     0
 42
0.1377952756
  3
TXT
  4

  0
ENDTAB
  0
TABLE
  2
VIEW
  5
6
330
0
100
AcDbSymbolTable
 70
     0
  0
ENDTAB
  0
TABLE
  2
UCS
  5
7
330
0
100
AcDbSymbolTable
 70
     0
  0
ENDTAB
  0
TABLE
  2
APPID
  5
9
330
0
100
AcDbSymbolTable
 70
     1
  0
APPID
  5
12
330
9
100
AcDbSymbolTableRecord
100
AcDbRegAppTableRecord
  2
ACAD
 70
     0
  0
ENDTAB
  0
TABLE
  2
DIMSTYLE
  5
A
330
0
100
AcDbSymbolTable
 70
     1
100
AcDbDimStyleTable
  0
DIMSTYLE
105
27
330
A
100
AcDbSymbolTableRecord
100
AcDbDimStyleTableRecord
  2
Standard
 70
     0
178
     0
340
11
  0
ENDTAB
  0
TABLE
  2
BLOCK_RECORD
  5
1
330
0
100
AcDbSymbolTable
 70
     1
  0
BLOCK_RECORD
  5
1F
330
1
100
AcDbSymbolTableRecord
100
AcDbBlockTableRecord
  2
*Model_Space
340
22
  0
BLOCK_RECORD
  5
1B
330
1
100
AcDbSymbolTableRecord
100
AcDbBlockTableRecord
  2
*Paper_Space
340
1E
  0
BLOCK_RECORD
  5
23
330
1
100
AcDbSymbolTableRecord
100
AcDbBlockTableRecord
  2
*Paper_Space0
340
26
  0
ENDTAB
  0
ENDSEC
  0
SECTION
  2
BLOCKS
  0
BLOCK
  5
20
330
1F
100
AcDbEntity
  8
0
100
AcDbBlockBegin
  2
*Model_Space
 70
     0
 10
0.0
 20
0.0
 30
0.0
  3
*Model_Space
  1

  0
ENDBLK
  5
21
330
1F
100
AcDbEntity
  8
0
100
AcDbBlockEnd
  0
BLOCK
  5
1C
330
1B
100
AcDbEntity
 67
     1
  8
0
100
AcDbBlockBegin
  2
*Paper_Space
 70
     0
 10
0.0
 20
0.0
 30
0.0
  3
*Paper_Space
  1

  0
ENDBLK
  5
1D
330
1B
100
AcDbEntity
 67
     1
  8
0
100
AcDbBlockEnd
  0
BLOCK
  5
24
330
23
100
AcDbEntity
  8
0
100
AcDbBlockBegin
  2
*Paper_Space0
 70
     0
 10
0.0
 20
0.0
 30
0.0
  3
*Paper_Space0
  1

  0
ENDBLK
  5
25
330
23
100
AcDbEntity
  8
0
100
AcDbBlockEnd
  0
ENDSEC
  0
SECTION
  2
ENTITIES
  0
LINE
  5
74
330
1F
100
AcDbEntity
  8
0
  6
Continuous
 62
     7
370
    25
100
AcDbLine
 10
8.066296556
 20
7.2000835416
 30
0.0
 11
7.7710209655
 21
7.2000835416
 31
0.0
  0
LINE
  5
75
330
1F
100
AcDbEntity
  8
0
  6
Continuous
 62
     7
370
    25
100
AcDbLine
 10
7.7710209655
 20
7.2000835416
 30
0.0
 11
7.7710209655
 21
7.0819733054
 31
0.0
  0
LINE
  5
76
330
1F
100
AcDbEntity
  8
0
  6
Continuous
 62
     7
370
    25
100
AcDbLine
 10
7.7710209655
 20
7.0819733054
 30
0.0
 11
8.066296556
 21
7.0819733054
 31
0.0
  0
LINE
  5
77
330
1F
100
AcDbEntity
  8
0
  6
Continuous
 62
     7
370
    25
100
AcDbLine
 10
8.066296556
 20
7.0819733054
 30
0.0
 11
8.066296556
 21
7.2000835416
 31
0.0
  0
LINE
  5
78
330
1F
100
AcDbEntity
  8
0
  6
Continuous
 62
     7
370
    25
100
AcDbLine
 10
4.129288682
 20
11.6666189747
 30
0.0
 11
4.129288682
 21
11.2729181873
 31
0.0
  0
LINE
  5
79
330
1F
100
AcDbEntity
  8
0
  6
Continuous
 62
     7
370
    25
100
AcDbLine
 10
4.129288682
 20
11.2729181873
 30
0.0
 11
4.2473989182
 21
11.2729181873
 31
0.0
  0
LINE
  5
7A
330
1F
100
AcDbEntity
  8
0
  6
Continuous
 62
     7
370
    25
100
AcDbLine
 10
4.2473989182
 20
11.2729181873
 30
0.0
 11
4.2473989182
 21
11.6666189747
 31
0.0
  0
LINE
  5
7B
330
1F
100
AcDbEntity
  8
0
  6
Continuous
 62
     7
370
    25
100
AcDbLine
 10
4.2473989182
 20
11.6666189747
 30
0.0
 11
4.129288682
 21
11.6666189747
 31
0.0
  0
LINE
  5
7C
330
1F
100
AcDbEntity
  8
0
  6
Continuous
 62
     7
370
    25
100
AcDbLine
 10
0.3103910442
 20
7.2000835416
 30
0.0
 11
0.3103910442
 21
7.0819733054
 31
0.0
  0
LINE
  5
7D
330
1F
100
AcDbEntity
  8
0
  6
Continuous
 62
     7
370
    25
100
AcDbLine
 10
0.3103910442
 20
7.0819733054
 30
0.0
 11
0.6056666348
 21
7.0819733054
 31
0.0
  0
LINE
  5
7E
330
1F
100
AcDbEntity
  8
0
  6
Continuous
 62
     7
370
    25
100
AcDbLine
 10
0.6056666348
 20
7.0819733054
 30
0.0
 11
0.6056666348
 21
7.2000835416
 31
0.0
  0
LINE
  5
7F
330
1F
100
AcDbEntity
  8
0
  6
Continuous
 62
     7
370
    25
100
AcDbLine
 10
0.6056666348
 20
7.2000835416
 30
0.0
 11
0.3103910442
 21
7.2000835416
 31
0.0
  0
LINE
  5
80
330
1F
100
AcDbEntity
  8
0
  6
Continuous
 62
     7
370
    25
100
AcDbLine
 10
1.6634427552
 20
11.4737055888
 30
0.0
 11
1.5497911274
 21
11.2768551951
 31
0.0
  0
LINE
  5
81
330
1F
100
AcDbEntity
  8
0
  6
Continuous
 62
     7
370
    25
100
AcDbLine
 10
1.5497911274
 20
11.2768551951
 30
0.0
 11
1.777094383
 21
10.8831544077
 31
0.0
  0
LINE
  5
82
330
1F
100
AcDbEntity
  8
0
  6
Continuous
 62
     7
370
    25
100
AcDbLine
 10
1.777094383
 20
10.8831544077
 30
0.0
 11
2.2317008942
 21
10.8831544077
 31
0.0
  0
LINE
  5
83
330
1F
100
AcDbEntity
  8
0
  6
Continuous
 62
     7
370
    25
100
AcDbLine
 10
2.2317008942
 20
10.8831544077
 30
0.0
 11
2.4590041498
 21
11.2768551951
 31
0.0
  0
LINE
  5
84
330
1F
100
AcDbEntity
  8
0
  6
Continuous
 62
     7
370
    25
100
AcDbLine
 10
2.4590041498
 20
11.2768551951
 30
0.0
 11
2.345352522
 21
11.4737055888
 31
0.0
  0
LINE
  5
85
330
1F
100
AcDbEntity
  8
0
  6
Continuous
 62
     7
370
    25
100
AcDbLine
 10
2.345352522
 20
11.4737055888
 30
0.0
 11
1.6634427552
 21
11.4737055888
 31
0.0
  0
LINE
  5
86
330
1F
100
AcDbEntity
  8
0
  6
Continuous
 62
     7
370
    25
100
AcDbLine
 10
6.5995932172
 20
9.8989024392
 30
0.0
 11
6.8268964728
 21
10.2926032266
 31
0.0
  0
LINE
  5
87
330
1F
100
AcDbEntity
  8
0
  6
Continuous
 62
     7
370
    25
100
AcDbLine
 10
6.8268964728
 20
10.2926032266
 30
0.0
 11
6.5995932172
 21
10.686304014
 31
0.0
  0
LINE
  5
88
330
1F
100
AcDbEntity
  8
0
  6
Continuous
 62
     7
370
    25
100
AcDbLine
 10
6.5995932172
 20
10.686304014
 30
0.0
 11
6.1449867061
 21
10.686304014
 31
0.0
  0
LINE
  5
89
330
1F
100
AcDbEntity
  8
0
  6
Continuous
 62
     7
370
    25
100
AcDbLine
 10
6.1449867061
 20
10.686304014
 30
0.0
 11
5.9176834505
 21
10.2926032266
 31
0.0
  0
LINE
  5
8A
330
1F
100
AcDbEntity
  8
0
  6
Continuous
 62
     7
370
    25
100
AcDbLine
 10
5.9176834505
 20
10.2926032266
 30
0.0
 11
6.1449867061
 21
9.8989024392
 31
0.0
  0
LINE
  5
8B
330
1F
100
AcDbEntity
  8
0
  6
Continuous
 62
     7
370
    25
100
AcDbLine
 10
6.1449867061
 20
9.8989024392
 30
0.0
 11
6.5995932172
 21
9.8989024392
 31
0.0
  0
LINE
  5
8C
330
1F
100
AcDbEntity
  8
0
  6
Continuous
 62
     7
370
    25
100
AcDbLine
 10
6.8268964728
 20
9.3083512581
 30
0.0
 11
6.5995932172
 21
9.7020520455
 31
0.0
  0
LINE
  5
8D
330
1F
100
AcDbEntity
  8
0
  6
Continuous
 62
     7
370
    25
100
AcDbLine
 10
6.5995932172
 20
9.7020520455
 30
0.0
 11
6.1449867061
 21
9.7020520455
 31
0.0
  0
LINE
  5
8E
330
1F
100
AcDbEntity
  8
0
  6
Continuous
 62
     7
370
    25
100
AcDbLine
 10
6.1449867061
 20
9.7020520455
 30
0.0
 11
5.9176834505
 21
9.3083512581
 31
0.0
  0
LINE
  5
8F
330
1F
100
AcDbEntity
  8
0
  6
Continuous
 62
     7
370
    25
100
AcDbLine
 10
5.9176834505
 20
9.3083512581
 30
0.0
 11
6.8268964728
 21
9.3083512581
 31
0.0
  0
LINE
  5
90
330
1F
100
AcDbEntity
  8
0
  6
Continuous
 62
     7
370
    25
100
AcDbLine
 10
5.5767285671
 20
10.2926032266
 30
0.0
 11
5.4630769393
 21
10.2926032266
 31
0.0
  0
LINE
  5
91
330
1F
100
AcDbEntity
  8
0
  6
Continuous
 62
     7
370
    25
100
AcDbLine
 10
5.4630769393
 20
10.2926032266
 30
0.0
 11
5.4630769393
 21
9.5052016518
 31
0.0
  0
LINE
  5
92
330
1F
100
AcDbEntity
  8
0
  6
Continuous
 62
     7
370
    25
100
AcDbLine
 10
5.4630769393
 20
9.5052016518
 30
0.0
 11
5.5767285671
 21
9.5052016518
 31
0.0
  0
LINE
  5
93
330
1F
100
AcDbEntity
  8
0
  6
Continuous
 62
     7
370
    25
100
AcDbLine
 10
5.5767285671
 20
9.5052016518
 30
0.0
 11
5.8040318227
 21
9.8989024392
 31
0.0
  0
LINE
  5
94
330
1F
100
AcDbEntity
  8
0
  6
Continuous
 62
     7
370
    25
100
AcDbLine
 10
5.8040318227
 20
9.8989024392
 30
0.0
 11
5.5767285671
 21
10.2926032266
 31
0.0
  0
LINE
  5
95
330
1F
100
AcDbEntity
  8
0
  6
Continuous
 62
     7
370
    25
100
AcDbLine
 10
7.6224578674
 20
10.2926032266
 30
0.0
 11
7.1678513562
 21
10.2926032266
 31
0.0
  0
LINE
  5
96
330
1F
100
AcDbEntity
  8
0
  6
Continuous
 62
     7
370
    25
100
AcDbLine
 10
7.1678513562
 20
10.2926032266
 30
0.0
 11
6.9405481006
 21
9.8989024392
 31
0.0
  0
LINE
  5
97
330
1F
100
AcDbEntity
  8
0
  6
Continuous
 62
     7
370
    25
100
AcDbLine
 10
6.9405481006
 20
9.8989024392
 30
0.0
 11
7.1678513562
 21
9.5052016518
 31
0.0
  0
LINE
  5
98
330
1F
100
AcDbEntity
  8
0
  6
Continuous
 62
     7
370
    25
100
AcDbLine
 10
7.1678513562
 20
9.5052016518
 30
0.0
 11
7.6224578674
 21
9.5052016518
 31
0.0
  0
LINE
  5
99
330
1F
100
AcDbEntity
  8
0
  6
Continuous
 62
     7
370
    25
100
AcDbLine
 10
7.6224578674
 20
9.5052016518
 30
0.0
 11
7.849761123
 21
9.8989024392
 31
0.0
  0
LINE
  5
9A
330
1F
100
AcDbEntity
  8
0
  6
Continuous
 62
     7
370
    25
100
AcDbLine
 10
7.849761123
 20
9.8989024392
 30
0.0
 11
7.6224578674
 21
10.2926032266
 31
0.0
  0
LINE
  5
9B
330
1F
100
AcDbEntity
  8
0
  6
Continuous
 62
     7
370
    25
100
AcDbLine
 10
7.6224578674
 20
10.4894536203
 30
0.0
 11
7.849761123
 21
10.8831544077
 31
0.0
  0
LINE
  5
9C
330
1F
100
AcDbEntity
  8
0
  6
Continuous
 62
     7
370
    25
100
AcDbLine
 10
7.849761123
 20
10.8831544077
 30
0.0
 11
7.6224578674
 21
11.2768551951
 31
0.0
  0
LINE
  5
9D
330
1F
100
AcDbEntity
  8
0
  6
Continuous
 62
     7
370
    25
100
AcDbLine
 10
7.6224578674
 20
11.2768551951
 30
0.0
 11
7.1678513562
 21
11.2768551951
 31
0.0
  0
LINE
  5
9E
330
1F
100
AcDbEntity
  8
0
  6
Continuous
 62
     7
370
    25
100
AcDbLine
 10
7.1678513562
 20
11.2768551951
 30
0.0
 11
6.9405481006
 21
10.8831544077
 31
0.0
  0
LINE
  5
9F
330
1F
100
AcDbEntity
  8
0
  6
Continuous
 62
     7
370
    25
100
AcDbLine
 10
6.9405481006
 20
10.8831544077
 30
0.0
 11
7.1678513562
 21
10.4894536203
 31
0.0
  0
LINE
  5
A0
330
1F
100
AcDbEntity
  8
0
  6
Continuous
 62
     7
370
    25
100
AcDbLine
 10
7.1678513562
 20
10.4894536203
 30
0.0
 11
7.6224578674
 21
10.4894536203
 31
0.0
  0
LINE
  5
A1
330
1F
100
AcDbEntity
  8
0
  6
Continuous
 62
     7
370
    25
100
AcDbLine
 10
3.9352563554
 20
8.4225244865
 30
0.0
 11
3.8557002159
 21
8.5603197621
 31
0.0
  0
LINE
  5
A2
330
1F
100
AcDbEntity
  8
0
  6
Continuous
 62
     7
370
    25
100
AcDbLine
 10
3.8557002159
 20
8.5603197621
 30
0.0
 11
3.696587937
 21
8.5603197621
 31
0.0
  0
LINE
  5
A3
330
1F
100
AcDbEntity
  8
0
  6
Continuous
 62
     7
370
    25
100
AcDbLine
 10
3.696587937
 20
8.5603197621
 30
0.0
 11
3.6170317976
 21
8.4225244865
 31
0.0
  0
LINE
  5
A4
330
1F
100
AcDbEntity
  8
0
  6
Continuous
 62
     7
370
    25
100
AcDbLine
 10
3.6170317976
 20
8.4225244865
 30
0.0
 11
3.696587937
 21
8.2847292109
 31
0.0
  0
LINE
  5
A5
330
1F
100
AcDbEntity
  8
0
  6
Continuous
 62
     7
370
    25
100
AcDbLine
 10
3.696587937
 20
8.2847292109
 30
0.0
 11
3.8557002159
 21
8.2847292109
 31
0.0
  0
LINE
  5
A6
330
1F
100
AcDbEntity
  8
0
  6
Continuous
 62
     7
370
    25
100
AcDbLine
 10
3.8557002159
 20
8.2847292109
 30
0.0
 11
3.9352563554
 21
8.4225244865
 31
0.0
  0
LINE
  5
A7
330
1F
100
AcDbEntity
  8
0
  6
Continuous
 62
     7
370
    25
100
AcDbLine
 10
3.696587937
 20
11.3555953526
 30
0.0
 11
3.6170317976
 21
11.217800077
 31
0.0
  0
LINE
  5
A8
330
1F
100
AcDbEntity
  8
0
  6
Continuous
 62
     7
370
    25
100
AcDbLine
 10
3.6170317976
 20
11.217800077
 30
0.0
 11
3.696587937
 21
11.0800048014
 31
0.0
  0
LINE
  5
A9
330
1F
100
AcDbEntity
  8
0
  6
Continuous
 62
     7
370
    25
100
AcDbLine
 10
3.696587937
 20
11.0800048014
 30
0.0
 11
3.8557002159
 21
11.0800048014
 31
0.0
  0
LINE
  5
AA
330
1F
100
AcDbEntity
  8
0
  6
Continuous
 62
     7
370
    25
100
AcDbLine
 10
3.8557002159
 20
11.0800048014
 30
0.0
 11
3.9352563554
 21
11.217800077
 31
0.0
  0
LINE
  5
AB
330
1F
100
AcDbEntity
  8
0
  6
Continuous
 62
     7
370
    25
100
AcDbLine
 10
3.9352563554
 20
11.217800077
 30
0.0
 11
3.8557002159
 21
11.3555953526
 31
0.0
  0
LINE
  5
AC
330
1F
100
AcDbEntity
  8
0
  6
Continuous
 62
     7
370
    25
100
AcDbLine
 10
3.8557002159
 20
11.3555953526
 30
0.0
 11
3.696587937
 21
11.3555953526
 31
0.0
  0
LINE
  5
AD
330
1F
100
AcDbEntity
  8
0
  6
Continuous
 62
     7
370
    25
100
AcDbLine
 10
6.713244845
 20
11.4737055888
 30
0.0
 11
6.0313350783
 21
11.4737055888
 31
0.0
  0
LINE
  5
AE
330
1F
100
AcDbEntity
  8
0
  6
Continuous
 62
     7
370
    25
100
AcDbLine
 10
6.0313350783
 20
11.4737055888
 30
0.0
 11
5.9176834505
 21
11.2768551951
 31
0.0
  0
LINE
  5
AF
330
1F
100
AcDbEntity
  8
0
  6
Continuous
 62
     7
370
    25
100
AcDbLine
 10
5.9176834505
 20
11.2768551951
 30
0.0
 11
6.1449867061
 21
10.8831544077
 31
0.0
  0
LINE
  5
B0
330
1F
100
AcDbEntity
  8
0
  6
Continuous
 62
     7
370
    25
100
AcDbLine
 10
6.1449867061
 20
10.8831544077
 30
0.0
 11
6.5995932172
 21
10.8831544077
 31
0.0
  0
LINE
  5
B1
330
1F
100
AcDbEntity
  8
0
  6
Continuous
 62
     7
370
    25
100
AcDbLine
 10
6.5995932172
 20
10.8831544077
 30
0.0
 11
6.8268964728
 21
11.2768551951
 31
0.0
  0
LINE
  5
B2
330
1F
100
AcDbEntity
  8
0
  6
Continuous
 62
     7
370
    25
100
AcDbLine
 10
6.8268964728
 20
11.2768551951
 30
0.0
 11
6.713244845
 21
11.4737055888
 31
0.0
  0
LINE
  5
B3
330
1F
100
AcDbEntity
  8
0
  6
Continuous
 62
     7
370
    25
100
AcDbLine
 10
5.0084704281
 20
11.0800048014
 30
0.0
 11
5.3494253115
 21
10.4894536203
 31
0.0
  0
LINE
  5
B4
330
1F
100
AcDbEntity
  8
0
  6
Continuous
 62
     7
370
    25
100
AcDbLine
 10
5.3494253115
 20
10.4894536203
 30
0.0
 11
5.5767285671
 21
10.4894536203
 31
0.0
  0
LINE
  5
B5
330
1F
100
AcDbEntity
  8
0
  6
Continuous
 62
     7
370
    25
100
AcDbLine
 10
5.5767285671
 20
10.4894536203
 30
0.0
 11
5.8040318227
 21
10.8831544077
 31
0.0
  0
LINE
  5
B6
330
1F
100
AcDbEntity
  8
0
  6
Continuous
 62
     7
370
    25
100
AcDbLine
 10
5.8040318227
 20
10.8831544077
 30
0.0
 11
5.5767285671
 21
11.2768551951
 31
0.0
  0
LINE
  5
B7
330
1F
100
AcDbEntity
  8
0
  6
Continuous
 62
     7
370
    25
100
AcDbLine
 10
5.5767285671
 20
11.2768551951
 30
0.0
 11
5.1221220559
 21
11.2768551951
 31
0.0
  0
LINE
  5
B8
330
1F
100
AcDbEntity
  8
0
  6
Continuous
 62
     7
370
    25
100
AcDbLine
 10
5.1221220559
 20
11.2768551951
 30
0.0
 11
5.0084704281
 21
11.0800048014
 31
0.0
  0
LINE
  5
B9
330
1F
100
AcDbEntity
  8
0
  6
Continuous
 62
     7
370
    25
100
AcDbLine
 10
4.4414312449
 20
11.217800077
 30
0.0
 11
4.5209873843
 21
11.0800048014
 31
0.0
  0
LINE
  5
BA
330
1F
100
AcDbEntity
  8
0
  6
Continuous
 62
     7
370
    25
100
AcDbLine
 10
4.5209873843
 20
11.0800048014
 30
0.0
 11
4.6800996632
 21
11.0800048014
 31
0.0
  0
LINE
  5
BB
330
1F
100
AcDbEntity
  8
0
  6
Continuous
 62
     7
370
    25
100
AcDbLine
 10
4.6800996632
 20
11.0800048014
 30
0.0
 11
4.7596558027
 21
11.217800077
 31
0.0
  0
LINE
  5
BC
330
1F
100
AcDbEntity
  8
0
  6
Continuous
 62
     7
370
    25
100
AcDbLine
 10
4.7596558027
 20
11.217800077
 30
0.0
 11
4.6800996632
 21
11.3555953526
 31
0.0
  0
LINE
  5
BD
330
1F
100
AcDbEntity
  8
0
  6
Continuous
 62
     7
370
    25
100
AcDbLine
 10
4.6800996632
 20
11.3555953526
 30
0.0
 11
4.5209873843
 21
11.3555953526
 31
0.0
  0
LINE
  5
BE
330
1F
100
AcDbEntity
  8
0
  6
Continuous
 62
     7
370
    25
100
AcDbLine
 10
4.5209873843
 20
11.3555953526
 30
0.0
 11
4.4414312449
 21
11.217800077
 31
0.0
  0
LINE
  5
BF
330
1F
100
AcDbEntity
  8
0
  6
Continuous
 62
     7
370
    25
100
AcDbLine
 10
4.6800996632
 20
8.2847292109
 30
0.0
 11
4.7596558027
 21
8.4225244865
 31
0.0
  0
LINE
  5
C0
330
1F
100
AcDbEntity
  8
0
  6
Continuous
 62
     7
370
    25
100
AcDbLine
 10
4.7596558027
 20
8.4225244865
 30
0.0
 11
4.6800996632
 21
8.5603197621
 31
0.0
  0
LINE
  5
C1
330
1F
100
AcDbEntity
  8
0
  6
Continuous
 62
     7
370
    25
100
AcDbLine
 10
4.6800996632
 20
8.5603197621
 30
0.0
 11
4.5209873843
 21
8.5603197621
 31
0.0
  0
LINE
  5
C2
330
1F
100
AcDbEntity
  8
0
  6
Continuous
 62
     7
370
    25
100
AcDbLine
 10
4.5209873843
 20
8.5603197621
 30
0.0
 11
4.4414312449
 21
8.4225244865
 31
0.0
  0
LINE
  5
C3
330
1F
100
AcDbEntity
  8
0
  6
Continuous
 62
     7
370
    25
100
AcDbLine
 10
4.4414312449
 20
8.4225244865
 30
0.0
 11
4.5209873843
 21
8.2847292109
 31
0.0
  0
LINE
  5
C4
330
1F
100
AcDbEntity
  8
0
  6
Continuous
 62
     7
370
    25
100
AcDbLine
 10
4.5209873843
 20
8.2847292109
 30
0.0
 11
4.6800996632
 21
8.2847292109
 31
0.0
  0
LINE
  5
C5
330
1F
100
AcDbEntity
  8
0
  6
Continuous
 62
     7
370
    25
100
AcDbLine
 10
5.4900800842
 20
8.4815796046
 30
0.0
 11
5.6450367135
 21
8.7499723596
 31
0.0
  0
LINE
  5
C6
330
1F
100
AcDbEntity
  8
0
  6
Continuous
 62
     7
370
    25
100
AcDbLine
 10
5.6450367135
 20
8.7499723596
 30
0.0
 11
5.4900800842
 21
9.0183651145
 31
0.0
  0
LINE
  5
C7
330
1F
100
AcDbEntity
  8
0
  6
Continuous
 62
     7
370
    25
100
AcDbLine
 10
5.4900800842
 20
9.0183651145
 30
0.0
 11
5.1801668255
 21
9.0183651145
 31
0.0
  0
LINE
  5
C8
330
1F
100
AcDbEntity
  8
0
  6
Continuous
 62
     7
370
    25
100
AcDbLine
 10
5.1801668255
 20
9.0183651145
 30
0.0
 11
5.0252101962
 21
8.7499723596
 31
0.0
  0
LINE
  5
C9
330
1F
100
AcDbEntity
  8
0
  6
Continuous
 62
     7
370
    25
100
AcDbLine
 10
5.0252101962
 20
8.7499723596
 30
0.0
 11
5.1801668255
 21
8.4815796046
 31
0.0
  0
LINE
  5
CA
330
1F
100
AcDbEntity
  8
0
  6
Continuous
 62
     7
370
    25
100
AcDbLine
 10
5.1801668255
 20
8.4815796046
 30
0.0
 11
5.4900800842
 21
8.4815796046
 31
0.0
  0
LINE
  5
CB
330
1F
100
AcDbEntity
  8
0
  6
Continuous
 62
     7
370
    25
100
AcDbLine
 10
7.692280808
 20
8.4815796046
 30
0.0
 11
7.849761123
 21
8.7543435113
 31
0.0
  0
LINE
  5
CC
330
1F
100
AcDbEntity
  8
0
  6
Continuous
 62
     7
370
    25
100
AcDbLine
 10
7.849761123
 20
8.7543435113
 30
0.0
 11
7.692280808
 21
9.027107418
 31
0.0
  0
LINE
  5
CD
330
1F
100
AcDbEntity
  8
0
  6
Continuous
 62
     7
370
    25
100
AcDbLine
 10
7.692280808
 20
9.027107418
 30
0.0
 11
7.3773201781
 21
9.027107418
 31
0.0
  0
LINE
  5
CE
330
1F
100
AcDbEntity
  8
0
  6
Continuous
 62
     7
370
    25
100
AcDbLine
 10
7.3773201781
 20
9.027107418
 30
0.0
 11
7.2198398631
 21
8.7543435113
 31
0.0
  0
LINE
  5
CF
330
1F
100
AcDbEntity
  8
0
  6
Continuous
 62
     7
370
    25
100
AcDbLine
 10
7.2198398631
 20
8.7543435113
 30
0.0
 11
7.3773201781
 21
8.4815796046
 31
0.0
  0
LINE
  5
D0
330
1F
100
AcDbEntity
  8
0
  6
Continuous
 62
     7
370
    25
100
AcDbLine
 10
7.3773201781
 20
8.4815796046
 30
0.0
 11
7.692280808
 21
8.4815796046
 31
0.0
  0
LINE
  5
D1
330
1F
100
AcDbEntity
  8
0
  6
Continuous
 62
     7
370
    25
100
AcDbLine
 10
1.1568477371
 20
8.7543435113
 30
0.0
 11
0.9993674222
 21
9.027107418
 31
0.0
  0
LINE
  5
D2
330
1F
100
AcDbEntity
  8
0
  6
Continuous
 62
     7
370
    25
100
AcDbLine
 10
0.9993674222
 20
9.027107418
 30
0.0
 11
0.6844067923
 21
9.027107418
 31
0.0
  0
LINE
  5
D3
330
1F
100
AcDbEntity
  8
0
  6
Continuous
 62
     7
370
    25
100
AcDbLine
 10
0.6844067923
 20
9.027107418
 30
0.0
 11
0.5269264773
 21
8.7543435113
 31
0.0
  0
LINE
  5
D4
330
1F
100
AcDbEntity
  8
0
  6
Continuous
 62
     7
370
    25
100
AcDbLine
 10
0.5269264773
 20
8.7543435113
 30
0.0
 11
0.6844067923
 21
8.4815796046
 31
0.0
  0
LINE
  5
D5
330
1F
100
AcDbEntity
  8
0
  6
Continuous
 62
     7
370
    25
100
AcDbLine
 10
0.6844067923
 20
8.4815796046
 30
0.0
 11
0.9993674222
 21
8.4815796046
 31
0.0
  0
LINE
  5
D6
330
1F
100
AcDbEntity
  8
0
  6
Continuous
 62
     7
370
    25
100
AcDbLine
 10
0.9993674222
 20
8.4815796046
 30
0.0
 11
1.1568477371
 21
8.7543435113
 31
0.0
  0
LINE
  5
D7
330
1F
100
AcDbEntity
  8
0
  6
Continuous
 62
     7
370
    25
100
AcDbLine
 10
2.7999590332
 20
11.2768551951
 30
0.0
 11
2.5726557776
 21
10.8831544077
 31
0.0
  0
LINE
  5
D8
330
1F
100
AcDbEntity
  8
0
  6
Continuous
 62
     7
370
    25
100
AcDbLine
 10
2.5726557776
 20
10.8831544077
 30
0.0
 11
2.7999590332
 21
10.4894536203
 31
0.0
  0
LINE
  5
D9
330
1F
100
AcDbEntity
  8
0
  6
Continuous
 62
     7
370
    25
100
AcDbLine
 10
2.7999590332
 20
10.4894536203
 30
0.0
 11
3.0272622887
 21
10.4894536203
 31
0.0
  0
LINE
  5
DA
330
1F
100
AcDbEntity
  8
0
  6
Continuous
 62
     7
370
    25
100
AcDbLine
 10
3.0272622887
 20
10.4894536203
 30
0.0
 11
3.3682171721
 21
11.0800048014
 31
0.0
  0
LINE
  5
DB
330
1F
100
AcDbEntity
  8
0
  6
Continuous
 62
     7
370
    25
100
AcDbLine
 10
3.3682171721
 20
11.0800048014
 30
0.0
 11
3.2545655443
 21
11.2768551951
 31
0.0
  0
LINE
  5
DC
330
1F
100
AcDbEntity
  8
0
  6
Continuous
 62
     7
370
    25
100
AcDbLine
 10
3.2545655443
 20
11.2768551951
 30
0.0
 11
2.7999590332
 21
11.2768551951
 31
0.0
  0
LINE
  5
DD
330
1F
100
AcDbEntity
  8
0
  6
Continuous
 62
     7
370
    25
100
AcDbLine
 10
2.4590041498
 20
10.2926032266
 30
0.0
 11
2.2317008942
 21
10.686304014
 31
0.0
  0
LINE
  5
DE
330
1F
100
AcDbEntity
  8
0
  6
Continuous
 62
     7
370
    25
100
AcDbLine
 10
2.2317008942
 20
10.686304014
 30
0.0
 11
1.777094383
 21
10.686304014
 31
0.0
  0
LINE
  5
DF
330
1F
100
AcDbEntity
  8
0
  6
Continuous
 62
     7
370
    25
100
AcDbLine
 10
1.777094383
 20
10.686304014
 30
0.0
 11
1.5497911274
 21
10.2926032266
 31
0.0
  0
LINE
  5
E0
330
1F
100
AcDbEntity
  8
0
  6
Continuous
 62
     7
370
    25
100
AcDbLine
 10
1.5497911274
 20
10.2926032266
 30
0.0
 11
1.777094383
 21
9.8989024392
 31
0.0
  0
LINE
  5
E1
330
1F
100
AcDbEntity
  8
0
  6
Continuous
 62
     7
370
    25
100
AcDbLine
 10
1.777094383
 20
9.8989024392
 30
0.0
 11
2.2317008942
 21
9.8989024392
 31
0.0
  0
LINE
  5
E2
330
1F
100
AcDbEntity
  8
0
  6
Continuous
 62
     7
370
    25
100
AcDbLine
 10
2.2317008942
 20
9.8989024392
 30
0.0
 11
2.4590041498
 21
10.2926032266
 31
0.0
  0
LINE
  5
E3
330
1F
100
AcDbEntity
  8
0
  6
Continuous
 62
     7
370
    25
100
AcDbLine
 10
1.4361394996
 20
10.8831544077
 30
0.0
 11
1.2088362441
 21
11.2768551951
 31
0.0
  0
LINE
  5
E4
330
1F
100
AcDbEntity
  8
0
  6
Continuous
 62
     7
370
    25
100
AcDbLine
 10
1.2088362441
 20
11.2768551951
 30
0.0
 11
0.7542297329
 21
11.2768551951
 31
0.0
  0
LINE
  5
E5
330
1F
100
AcDbEntity
  8
0
  6
Continuous
 62
     7
370
    25
100
AcDbLine
 10
0.7542297329
 20
11.2768551951
 30
0.0
 11
0.5269264773
 21
10.8831544077
 31
0.0
  0
LINE
  5
E6
330
1F
100
AcDbEntity
  8
0
  6
Continuous
 62
     7
370
    25
100
AcDbLine
 10
0.5269264773
 20
10.8831544077
 30
0.0
 11
0.7542297329
 21
10.4894536203
 31
0.0
  0
LINE
  5
E7
330
1F
100
AcDbEntity
  8
0
  6
Continuous
 62
     7
370
    25
100
AcDbLine
 10
0.7542297329
 20
10.4894536203
 30
0.0
 11
1.2088362441
 21
10.4894536203
 31
0.0
  0
LINE
  5
E8
330
1F
100
AcDbEntity
  8
0
  6
Continuous
 62
     7
370
    25
100
AcDbLine
 10
1.2088362441
 20
10.4894536203
 30
0.0
 11
1.4361394996
 21
10.8831544077
 31
0.0
  0
LINE
  5
E9
330
1F
100
AcDbEntity
  8
0
  6
Continuous
 62
     7
370
    25
100
AcDbLine
 10
1.2088362441
 20
10.2926032266
 30
0.0
 11
0.7542297329
 21
10.2926032266
 31
0.0
  0
LINE
  5
EA
330
1F
100
AcDbEntity
  8
0
  6
Continuous
 62
     7
370
    25
100
AcDbLine
 10
0.7542297329
 20
10.2926032266
 30
0.0
 11
0.5269264773
 21
9.8989024392
 31
0.0
  0
LINE
  5
EB
330
1F
100
AcDbEntity
  8
0
  6
Continuous
 62
     7
370
    25
100
AcDbLine
 10
0.5269264773
 20
9.8989024392
 30
0.0
 11
0.7542297329
 21
9.5052016518
 31
0.0
  0
LINE
  5
EC
330
1F
100
AcDbEntity
  8
0
  6
Continuous
 62
     7
370
    25
100
AcDbLine
 10
0.7542297329
 20
9.5052016518
 30
0.0
 11
1.2088362441
 21
9.5052016518
 31
0.0
  0
LINE
  5
ED
330
1F
100
AcDbEntity
  8
0
  6
Continuous
 62
     7
370
    25
100
AcDbLine
 10
1.2088362441
 20
9.5052016518
 30
0.0
 11
1.4361394996
 21
9.8989024392
 31
0.0
  0
LINE
  5
EE
330
1F
100
AcDbEntity
  8
0
  6
Continuous
 62
     7
370
    25
100
AcDbLine
 10
1.4361394996
 20
9.8989024392
 30
0.0
 11
1.2088362441
 21
10.2926032266
 31
0.0
  0
LINE
  5
EF
330
1F
100
AcDbEntity
  8
0
  6
Continuous
 62
     7
370
    25
100
AcDbLine
 10
2.4590041498
 20
9.3083512581
 30
0.0
 11
2.2317008942
 21
9.7020520455
 31
0.0
  0
LINE
  5
F0
330
1F
100
AcDbEntity
  8
0
  6
Continuous
 62
     7
370
    25
100
AcDbLine
 10
2.2317008942
 20
9.7020520455
 30
0.0
 11
1.777094383
 21
9.7020520455
 31
0.0
  0
LINE
  5
F1
330
1F
100
AcDbEntity
  8
0
  6
Continuous
 62
     7
370
    25
100
AcDbLine
 10
1.777094383
 20
9.7020520455
 30
0.0
 11
1.5497911274
 21
9.3083512581
 31
0.0
  0
LINE
  5
F2
330
1F
100
AcDbEntity
  8
0
  6
Continuous
 62
     7
370
    25
100
AcDbLine
 10
1.5497911274
 20
9.3083512581
 30
0.0
 11
2.4590041498
 21
9.3083512581
 31
0.0
  0
LINE
  5
F3
330
1F
100
AcDbEntity
  8
0
  6
Continuous
 62
     7
370
    25
100
AcDbLine
 10
2.5726557776
 20
9.8989024392
 30
0.0
 11
2.7999590332
 21
9.5052016518
 31
0.0
  0
LINE
  5
F4
330
1F
100
AcDbEntity
  8
0
  6
Continuous
 62
     7
370
    25
100
AcDbLine
 10
2.7999590332
 20
9.5052016518
 30
0.0
 11
2.913610661
 21
9.5052016518
 31
0.0
  0
LINE
  5
F5
330
1F
100
AcDbEntity
  8
0
  6
Continuous
 62
     7
370
    25
100
AcDbLine
 10
2.913610661
 20
9.5052016518
 30
0.0
 11
2.913610661
 21
10.2926032266
 31
0.0
  0
LINE
  5
F6
330
1F
100
AcDbEntity
  8
0
  6
Continuous
 62
     7
370
    25
100
AcDbLine
 10
2.913610661
 20
10.2926032266
 30
0.0
 11
2.7999590332
 21
10.2926032266
 31
0.0
  0
LINE
  5
F7
330
1F
100
AcDbEntity
  8
0
  6
Continuous
 62
     7
370
    25
100
AcDbLine
 10
2.7999590332
 20
10.2926032266
 30
0.0
 11
2.5726557776
 21
9.8989024392
 31
0.0
  0
LINE
  5
F8
330
1F
100
AcDbEntity
  8
0
  6
Continuous
 62
     7
370
    25
100
AcDbLine
 10
3.351477404
 20
8.7499723596
 30
0.0
 11
3.1965207747
 21
9.0183651145
 31
0.0
  0
LINE
  5
F9
330
1F
100
AcDbEntity
  8
0
  6
Continuous
 62
     7
370
    25
100
AcDbLine
 10
3.1965207747
 20
9.0183651145
 30
0.0
 11
2.8866075161
 21
9.0183651145
 31
0.0
  0
LINE
  5
FA
330
1F
100
AcDbEntity
  8
0
  6
Continuous
 62
     7
370
    25
100
AcDbLine
 10
2.8866075161
 20
9.0183651145
 30
0.0
 11
2.7316508867
 21
8.7499723596
 31
0.0
  0
LINE
  5
FB
330
1F
100
AcDbEntity
  8
0
  6
Continuous
 62
     7
370
    25
100
AcDbLine
 10
2.7316508867
 20
8.7499723596
 30
0.0
 11
2.8866075161
 21
8.4815796046
 31
0.0
  0
LINE
  5
FC
330
1F
100
AcDbEntity
  8
0
  6
Continuous
 62
     7
370
    25
100
AcDbLine
 10
2.8866075161
 20
8.4815796046
 30
0.0
 11
3.1965207747
 21
8.4815796046
 31
0.0
  0
LINE
  5
FD
330
1F
100
AcDbEntity
  8
0
  6
Continuous
 62
     7
370
    25
100
AcDbLine
 10
3.1965207747
 20
8.4815796046
 30
0.0
 11
3.351477404
 21
8.7499723596
 31
0.0
  0
LINE
  5
FE
330
1F
100
AcDbEntity
  8
0
  6
Continuous
 62
     7
370
    25
100
AcDbLine
 10
8.2434619104
 20
11.2768551951
 30
0.0
 11
8.3615721466
 21
11.2768551951
 31
0.0
  0
CIRCLE
  5
FF
330
1F
100
AcDbEntity
  8
0
  6
Continuous
 62
     7
370
    25
100
AcDbCircle
 10
4.1883438001
 20
9.8201622818
 30
0.0
 40
1.062992125984105
  0
LINE
  5
100
330
1F
100
AcDbEntity
  8
0
  6
Continuous
 62
     7
370
    25
100
AcDbLine
 10
8.2434619104
 20
11.2768551951
 30
0.0
 11
8.2434619104
 21
11.1390599196
 31
0.0
  0
LINE
  5
101
330
1F
100
AcDbEntity
  8
0
  6
Continuous
 62
     7
370
    25
100
AcDbLine
 10
8.2434619104
 20
11.1390599196
 30
0.0
 11
8.3615721466
 21
11.1390599196
 31
0.0
  0
LINE
  5
102
330
1F
100
AcDbEntity
  8
0
  6
Continuous
 62
     7
370
    25
100
AcDbLine
 10
8.3615721466
 20
10.7453591322
 30
0.0
 11
8.3615721466
 21
11.1390599196
 31
0.0
  0
LINE
  5
103
330
1F
100
AcDbEntity
  8
0
  6
Continuous
 62
     7
370
    25
100
AcDbLine
 10
8.2434619104
 20
10.7453591322
 30
0.0
 11
8.3615721466
 21
10.7453591322
 31
0.0
  0
LINE
  5
104
330
1F
100
AcDbEntity
  8
0
  6
Continuous
 62
     7
370
    25
100
AcDbLine
 10
8.2434619104
 20
10.7453591322
 30
0.0
 11
8.2434619104
 21
10.3910284235
 31
0.0
  0
LINE
  5
105
330
1F
100
AcDbEntity
  8
0
  6
Continuous
 62
     7
370
    25
100
AcDbLine
 10
8.2434619104
 20
10.3910284235
 30
0.0
 11
8.3615721466
 21
10.3910284235
 31
0.0
  0
LINE
  5
106
330
1F
100
AcDbEntity
  8
0
  6
Continuous
 62
     7
370
    25
100
AcDbLine
 10
8.3615721466
 20
9.9973276361
 30
0.0
 11
8.3615721466
 21
10.3910284235
 31
0.0
  0
LINE
  5
107
330
1F
100
AcDbEntity
  8
0
  6
Continuous
 62
     7
370
    25
100
AcDbLine
 10
8.2434619104
 20
9.9973276361
 30
0.0
 11
8.3615721466
 21
9.9973276361
 31
0.0
  0
LINE
  5
108
330
1F
100
AcDbEntity
  8
0
  6
Continuous
 62
     7
370
    25
100
AcDbLine
 10
8.2434619104
 20
9.9973276361
 30
0.0
 11
8.2434619104
 21
9.6429969274
 31
0.0
  0
LINE
  5
109
330
1F
100
AcDbEntity
  8
0
  6
Continuous
 62
     7
370
    25
100
AcDbLine
 10
8.2434619104
 20
9.6429969274
 30
0.0
 11
8.3615721466
 21
9.6429969274
 31
0.0
  0
LINE
  5
10A
330
1F
100
AcDbEntity
  8
0
  6
Continuous
 62
     7
370
    25
100
AcDbLine
 10
8.3615721466
 20
9.24929614
 30
0.0
 11
8.3615721466
 21
9.6429969274
 31
0.0
  0
LINE
  5
10B
330
1F
100
AcDbEntity
  8
0
  6
Continuous
 62
     7
370
    25
100
AcDbLine
 10
8.2434619104
 20
9.24929614
 30
0.0
 11
8.3615721466
 21
9.24929614
 31
0.0
  0
LINE
  5
10C
330
1F
100
AcDbEntity
  8
0
  6
Continuous
 62
     7
370
    25
100
AcDbLine
 10
8.2434619104
 20
9.24929614
 30
0.0
 11
8.2434619104
 21
8.8949654314
 31
0.0
  0
LINE
  5
10D
330
1F
100
AcDbEntity
  8
0
  6
Continuous
 62
     7
370
    25
100
AcDbLine
 10
8.2434619104
 20
8.8949654314
 30
0.0
 11
8.3615721466
 21
8.8949654314
 31
0.0
  0
LINE
  5
10E
330
1F
100
AcDbEntity
  8
0
  6
Continuous
 62
     7
370
    25
100
AcDbLine
 10
8.3615721466
 20
8.501264644
 30
0.0
 11
8.3615721466
 21
8.8949654314
 31
0.0
  0
LINE
  5
10F
330
1F
100
AcDbEntity
  8
0
  6
Continuous
 62
     7
370
    25
100
AcDbLine
 10
8.2434619104
 20
8.501264644
 30
0.0
 11
8.3615721466
 21
8.501264644
 31
0.0
  0
LINE
  5
110
330
1F
100
AcDbEntity
  8
0
  6
Continuous
 62
     7
370
    25
100
AcDbLine
 10
8.2434619104
 20
8.501264644
 30
0.0
 11
8.2434619104
 21
8.1469339353
 31
0.0
  0
LINE
  5
111
330
1F
100
AcDbEntity
  8
0
  6
Continuous
 62
     7
370
    25
100
AcDbLine
 10
8.2434619104
 20
8.1469339353
 30
0.0
 11
8.3615721466
 21
8.1469339353
 31
0.0
  0
LINE
  5
112
330
1F
100
AcDbEntity
  8
0
  6
Continuous
 62
     7
370
    25
100
AcDbLine
 10
8.3615721466
 20
7.7532331479
 30
0.0
 11
8.3615721466
 21
8.1469339353
 31
0.0
  0
LINE
  5
113
330
1F
100
AcDbEntity
  8
0
  6
Continuous
 62
     7
370
    25
100
AcDbLine
 10
8.2434619104
 20
7.7532331479
 30
0.0
 11
8.3615721466
 21
7.7532331479
 31
0.0
  0
LINE
  5
114
330
1F
100
AcDbEntity
  8
0
  6
Continuous
 62
     7
370
    25
100
AcDbLine
 10
8.2434619104
 20
7.7532331479
 30
0.0
 11
8.2434619104
 21
7.3989024392
 31
0.0
  0
LINE
  5
115
330
1F
100
AcDbEntity
  8
0
  6
Continuous
 62
     7
370
    25
100
AcDbLine
 10
8.2434619104
 20
7.3989024392
 30
0.0
 11
8.3615721466
 21
7.3989024392
 31
0.0
  0
LINE
  5
116
330
1F
100
AcDbEntity
  8
0
  6
Continuous
 62
     7
370
    25
100
AcDbLine
 10
8.3615721466
 20
7.0052016518
 30
0.0
 11
8.3615721466
 21
7.3989024392
 31
0.0
  0
LINE
  5
117
330
1F
100
AcDbEntity
  8
0
  6
Continuous
 62
     7
370
    25
100
AcDbLine
 10
8.2434619104
 20
7.0052016518
 30
0.0
 11
8.3615721466
 21
7.0052016518
 31
0.0
  0
LINE
  5
118
330
1F
100
AcDbEntity
  8
0
  6
Continuous
 62
     7
370
    25
100
AcDbLine
 10
8.2434619104
 20
7.0052016518
 30
0.0
 11
8.2434619104
 21
6.6508709432
 31
0.0
  0
LINE
  5
119
330
1F
100
AcDbEntity
  8
0
  6
Continuous
 62
     7
370
    25
100
AcDbLine
 10
8.2434619104
 20
6.6508709432
 30
0.0
 11
8.3615721466
 21
6.6508709432
 31
0.0
  0
LINE
  5
11A
330
1F
100
AcDbEntity
  8
0
  6
Continuous
 62
     7
370
    25
100
AcDbLine
 10
8.3615721466
 20
6.2571701558
 30
0.0
 11
8.3615721466
 21
6.6508709432
 31
0.0
  0
LINE
  5
11B
330
1F
100
AcDbEntity
  8
0
  6
Continuous
 62
     7
370
    25
100
AcDbLine
 10
8.2434619104
 20
6.2571701558
 30
0.0
 11
8.3615721466
 21
6.2571701558
 31
0.0
  0
LINE
  5
11C
330
1F
100
AcDbEntity
  8
0
  6
Continuous
 62
     7
370
    25
100
AcDbLine
 10
8.2434619104
 20
6.2571701558
 30
0.0
 11
8.2434619104
 21
5.8634693684
 31
0.0
  0
LINE
  5
11D
330
1F
100
AcDbEntity
  8
0
  6
Continuous
 62
     7
370
    25
100
AcDbLine
 10
8.2434619104
 20
5.8634693684
 30
0.0
 11
8.3615721466
 21
5.8634693684
 31
0.0
  0
ARC
  5
11E
330
1F
100
AcDbEntity
  8
0
  6
Continuous
 62
     7
370
    25
100
AcDbCircle
 10
2.3065770678
 20
5.8634693684
 30
0.0
 40
6.054995078742626
100
AcDbArc
 50
327.5596126088
 51
360.0
  0
LINE
  5
11F
330
1F
100
AcDbEntity
  8
0
  6
Continuous
 62
     7
370
    25
100
AcDbLine
 10
7.4166902568
 20
2.8910284235
 30
0.0
 11
7.4166902568
 21
2.6154378723
 31
0.0
  0
LINE
  5
120
330
1F
100
AcDbEntity
  8
0
  6
Continuous
 62
     7
370
    25
100
AcDbLine
 10
7.2985800206
 20
2.8910284235
 30
0.0
 11
7.4166902568
 21
2.8910284235
 31
0.0
  0
LINE
  5
121
330
1F
100
AcDbEntity
  8
0
  6
Continuous
 62
     7
370
    25
100
AcDbLine
 10
7.2985800206
 20
3.3634693684
 30
0.0
 11
7.2985800206
 21
2.8910284235
 31
0.0
  0
LINE
  5
122
330
1F
100
AcDbEntity
  8
0
  6
Continuous
 62
     7
370
    25
100
AcDbLine
 10
7.4166902568
 20
3.3634693684
 30
0.0
 11
7.2985800206
 21
3.3634693684
 31
0.0
  0
LINE
  5
123
330
1F
100
AcDbEntity
  8
0
  6
Continuous
 62
     7
370
    25
100
AcDbLine
 10
7.4166902568
 20
3.7571701558
 30
0.0
 11
7.4166902568
 21
3.3634693684
 31
0.0
  0
LINE
  5
124
330
1F
100
AcDbEntity
  8
0
  6
Continuous
 62
     7
370
    25
100
AcDbLine
 10
7.2985800206
 20
3.7571701558
 30
0.0
 11
7.4166902568
 21
3.7571701558
 31
0.0
  0
LINE
  5
125
330
1F
100
AcDbEntity
  8
0
  6
Continuous
 62
     7
370
    25
100
AcDbLine
 10
7.2985800206
 20
4.2296111007
 30
0.0
 11
7.2985800206
 21
3.7571701558
 31
0.0
  0
LINE
  5
126
330
1F
100
AcDbEntity
  8
0
  6
Continuous
 62
     7
370
    25
100
AcDbLine
 10
7.4166902568
 20
4.2296111007
 30
0.0
 11
7.2985800206
 21
4.2296111007
 31
0.0
  0
LINE
  5
127
330
1F
100
AcDbEntity
  8
0
  6
Continuous
 62
     7
370
    25
100
AcDbLine
 10
7.4166902568
 20
4.6233118881
 30
0.0
 11
7.4166902568
 21
4.2296111007
 31
0.0
  0
LINE
  5
128
330
1F
100
AcDbEntity
  8
0
  6
Continuous
 62
     7
370
    25
100
AcDbLine
 10
7.2985800206
 20
4.6233118881
 30
0.0
 11
7.4166902568
 21
4.6233118881
 31
0.0
  0
LINE
  5
129
330
1F
100
AcDbEntity
  8
0
  6
Continuous
 62
     7
370
    25
100
AcDbLine
 10
7.2985800206
 20
5.0957528329
 30
0.0
 11
7.2985800206
 21
4.6233118881
 31
0.0
  0
LINE
  5
12A
330
1F
100
AcDbEntity
  8
0
  6
Continuous
 62
     7
370
    25
100
AcDbLine
 10
7.4166902568
 20
5.0957528329
 30
0.0
 11
7.2985800206
 21
5.0957528329
 31
0.0
  0
LINE
  5
12B
330
1F
100
AcDbEntity
  8
0
  6
Continuous
 62
     7
370
    25
100
AcDbLine
 10
7.4166902568
 20
5.4894536203
 30
0.0
 11
7.4166902568
 21
5.0957528329
 31
0.0
  0
LINE
  5
12C
330
1F
100
AcDbEntity
  8
0
  6
Continuous
 62
     7
370
    25
100
AcDbLine
 10
7.2985800206
 20
5.4894536203
 30
0.0
 11
7.4166902568
 21
5.4894536203
 31
0.0
  0
LINE
  5
12D
330
1F
100
AcDbEntity
  8
0
  6
Continuous
 62
     7
370
    25
100
AcDbLine
 10
7.2985800206
 20
5.9618945652
 30
0.0
 11
7.2985800206
 21
5.4894536203
 31
0.0
  0
LINE
  5
12E
330
1F
100
AcDbEntity
  8
0
  6
Continuous
 62
     7
370
    25
100
AcDbLine
 10
7.4166902568
 20
5.9618945652
 30
0.0
 11
7.2985800206
 21
5.9618945652
 31
0.0
  0
LINE
  5
12F
330
1F
100
AcDbEntity
  8
0
  6
Continuous
 62
     7
370
    25
100
AcDbLine
 10
7.4166902568
 20
8.0878788172
 30
0.0
 11
7.4166902568
 21
5.9618945652
 31
0.0
  0
LINE
  5
130
330
1F
100
AcDbEntity
  8
0
  6
Continuous
 62
     7
370
    25
100
AcDbLine
 10
6.8261390757
 20
8.0878788172
 30
0.0
 11
7.4166902568
 21
8.0878788172
 31
0.0
  0
LINE
  5
131
330
1F
100
AcDbEntity
  8
0
  6
Continuous
 62
     7
370
    25
100
AcDbLine
 10
6.8261390757
 20
8.8359103133
 30
0.0
 11
6.8261390757
 21
8.0878788172
 31
0.0
  0
ARC
  5
132
330
1F
100
AcDbEntity
  8
0
  6
Continuous
 62
     7
370
    25
100
AcDbCircle
 10
6.786768997
 20
8.8359103133
 30
0.0
 40
0.0393700787401574
100
AcDbArc
 50
0.0
 51
90.0
  0
LINE
  5
133
330
1F
100
AcDbEntity
  8
0
  6
Continuous
 62
     7
370
    25
100
AcDbLine
 10
6.0781075797
 20
8.875280392
 30
0.0
 11
6.786768997
 21
8.875280392
 31
0.0
  0
ARC
  5
134
330
1F
100
AcDbEntity
  8
0
  6
Continuous
 62
     7
370
    25
100
AcDbCircle
 10
6.0781075797
 20
8.8359103133
 30
0.0
 40
0.0393700787401574
100
AcDbArc
 50
90.0
 51
180.0
  0
LINE
  5
135
330
1F
100
AcDbEntity
  8
0
  6
Continuous
 62
     7
370
    25
100
AcDbLine
 10
6.0387375009
 20
8.0878788172
 30
0.0
 11
6.0387375009
 21
8.8359103133
 31
0.0
  0
LINE
  5
136
330
1F
100
AcDbEntity
  8
0
  6
Continuous
 62
     7
370
    25
100
AcDbLine
 10
5.2513359261
 20
8.0878788172
 30
0.0
 11
6.0387375009
 21
8.0878788172
 31
0.0
  0
LINE
  5
137
330
1F
100
AcDbEntity
  8
0
  6
Continuous
 62
     7
370
    25
100
AcDbLine
 10
5.2513359261
 20
7.969768581
 30
0.0
 11
5.2513359261
 21
8.0878788172
 31
0.0
  0
LINE
  5
138
330
1F
100
AcDbEntity
  8
0
  6
Continuous
 62
     7
370
    25
100
AcDbLine
 10
4.8576351387
 20
7.969768581
 30
0.0
 11
5.2513359261
 21
7.969768581
 31
0.0
  0
LINE
  5
139
330
1F
100
AcDbEntity
  8
0
  6
Continuous
 62
     7
370
    25
100
AcDbLine
 10
4.8576351387
 20
8.0878788172
 30
0.0
 11
4.8576351387
 21
7.969768581
 31
0.0
  0
LINE
  5
13A
330
1F
100
AcDbEntity
  8
0
  6
Continuous
 62
     7
370
    25
100
AcDbLine
 10
4.3851941938
 20
8.0878788172
 30
0.0
 11
4.8576351387
 21
8.0878788172
 31
0.0
  0
LINE
  5
13B
330
1F
100
AcDbEntity
  8
0
  6
Continuous
 62
     7
370
    25
100
AcDbLine
 10
4.3851941938
 20
7.969768581
 30
0.0
 11
4.3851941938
 21
8.0878788172
 31
0.0
  0
LINE
  5
13C
330
1F
100
AcDbEntity
  8
0
  6
Continuous
 62
     7
370
    25
100
AcDbLine
 10
4.3851941938
 20
7.969768581
 30
0.0
 11
3.9914934064
 21
7.969768581
 31
0.0
  0
LINE
  5
13D
330
1F
100
AcDbEntity
  8
0
  6
Continuous
 62
     7
370
    25
100
AcDbLine
 10
3.9914934064
 20
7.969768581
 30
0.0
 11
3.9914934064
 21
8.0878788172
 31
0.0
  0
LINE
  5
13E
330
1F
100
AcDbEntity
  8
0
  6
Continuous
 62
     7
370
    25
100
AcDbLine
 10
3.5190524615
 20
8.0878788172
 30
0.0
 11
3.9914934064
 21
8.0878788172
 31
0.0
  0
LINE
  5
13F
330
1F
100
AcDbEntity
  8
0
  6
Continuous
 62
     7
370
    25
100
AcDbLine
 10
3.5190524615
 20
8.0878788172
 30
0.0
 11
3.5190524615
 21
7.969768581
 31
0.0
  0
LINE
  5
140
330
1F
100
AcDbEntity
  8
0
  6
Continuous
 62
     7
370
    25
100
AcDbLine
 10
3.5190524615
 20
7.969768581
 30
0.0
 11
3.1253516741
 21
7.969768581
 31
0.0
  0
LINE
  5
141
330
1F
100
AcDbEntity
  8
0
  6
Continuous
 62
     7
370
    25
100
AcDbLine
 10
3.1253516741
 20
7.969768581
 30
0.0
 11
3.1253516741
 21
8.0878788172
 31
0.0
  0
LINE
  5
142
330
1F
100
AcDbEntity
  8
0
  6
Continuous
 62
     7
370
    25
100
AcDbLine
 10
2.3379500993
 20
8.0878788172
 30
0.0
 11
3.1253516741
 21
8.0878788172
 31
0.0
  0
LINE
  5
143
330
1F
100
AcDbEntity
  8
0
  6
Continuous
 62
     7
370
    25
100
AcDbLine
 10
2.3379500993
 20
8.0878788172
 30
0.0
 11
2.3379500993
 21
8.8359103133
 31
0.0
  0
ARC
  5
144
330
1F
100
AcDbEntity
  8
0
  6
Continuous
 62
     7
370
    25
100
AcDbCircle
 10
2.2985800206
 20
8.8359103133
 30
0.0
 40
0.0393700787401579
100
AcDbArc
 50
0.0
 51
90.0
  0
LINE
  5
145
330
1F
100
AcDbEntity
  8
0
  6
Continuous
 62
     7
370
    25
100
AcDbLine
 10
2.2985800206
 20
8.875280392
 30
0.0
 11
1.5899186033
 21
8.875280392
 31
0.0
  0
ARC
  5
146
330
1F
100
AcDbEntity
  8
0
  6
Continuous
 62
     7
370
    25
100
AcDbCircle
 10
1.5899186033
 20
8.8359103133
 30
0.0
 40
0.0393700787401574
100
AcDbArc
 50
90.0
 51
180.0
  0
LINE
  5
147
330
1F
100
AcDbEntity
  8
0
  6
Continuous
 62
     7
370
    25
100
AcDbLine
 10
1.5505485245
 20
8.8359103133
 30
0.0
 11
1.5505485245
 21
8.0878788172
 31
0.0
  0
LINE
  5
148
330
1F
100
AcDbEntity
  8
0
  6
Continuous
 62
     7
370
    25
100
AcDbLine
 10
0.9599973434
 20
8.0878788172
 30
0.0
 11
1.5505485245
 21
8.0878788172
 31
0.0
  0
LINE
  5
149
330
1F
100
AcDbEntity
  8
0
  6
Continuous
 62
     7
370
    25
100
AcDbLine
 10
0.9599973434
 20
5.9618945652
 30
0.0
 11
0.9599973434
 21
8.0878788172
 31
0.0
  0
LINE
  5
14A
330
1F
100
AcDbEntity
  8
0
  6
Continuous
 62
     7
370
    25
100
AcDbLine
 10
0.9599973434
 20
5.9618945652
 30
0.0
 11
1.0781075797
 21
5.9618945652
 31
0.0
  0
LINE
  5
14B
330
1F
100
AcDbEntity
  8
0
  6
Continuous
 62
     7
370
    25
100
AcDbLine
 10
1.0781075797
 20
5.9618945652
 30
0.0
 11
1.0781075797
 21
5.4894536203
 31
0.0
  0
LINE
  5
14C
330
1F
100
AcDbEntity
  8
0
  6
Continuous
 62
     7
370
    25
100
AcDbLine
 10
1.0781075797
 20
5.4894536203
 30
0.0
 11
0.9599973434
 21
5.4894536203
 31
0.0
  0
LINE
  5
14D
330
1F
100
AcDbEntity
  8
0
  6
Continuous
 62
     7
370
    25
100
AcDbLine
 10
0.9599973434
 20
5.0957528329
 30
0.0
 11
0.9599973434
 21
5.4894536203
 31
0.0
  0
LINE
  5
14E
330
1F
100
AcDbEntity
  8
0
  6
Continuous
 62
     7
370
    25
100
AcDbLine
 10
0.9599973434
 20
5.0957528329
 30
0.0
 11
1.0781075797
 21
5.0957528329
 31
0.0
  0
LINE
  5
14F
330
1F
100
AcDbEntity
  8
0
  6
Continuous
 62
     7
370
    25
100
AcDbLine
 10
1.0781075797
 20
5.0957528329
 30
0.0
 11
1.0781075797
 21
4.6233118881
 31
0.0
  0
LINE
  5
150
330
1F
100
AcDbEntity
  8
0
  6
Continuous
 62
     7
370
    25
100
AcDbLine
 10
1.0781075797
 20
4.6233118881
 30
0.0
 11
0.9599973434
 21
4.6233118881
 31
0.0
  0
LINE
  5
151
330
1F
100
AcDbEntity
  8
0
  6
Continuous
 62
     7
370
    25
100
AcDbLine
 10
0.9599973434
 20
4.2296111007
 30
0.0
 11
0.9599973434
 21
4.6233118881
 31
0.0
  0
LINE
  5
152
330
1F
100
AcDbEntity
  8
0
  6
Continuous
 62
     7
370
    25
100
AcDbLine
 10
0.9599973434
 20
4.2296111007
 30
0.0
 11
1.0781075797
 21
4.2296111007
 31
0.0
  0
LINE
  5
153
330
1F
100
AcDbEntity
  8
0
  6
Continuous
 62
     7
370
    25
100
AcDbLine
 10
1.0781075797
 20
4.2296111007
 30
0.0
 11
1.0781075797
 21
3.7571701558
 31
0.0
  0
LINE
  5
154
330
1F
100
AcDbEntity
  8
0
  6
Continuous
 62
     7
370
    25
100
AcDbLine
 10
1.0781075797
 20
3.7571701558
 30
0.0
 11
0.9599973434
 21
3.7571701558
 31
0.0
  0
LINE
  5
155
330
1F
100
AcDbEntity
  8
0
  6
Continuous
 62
     7
370
    25
100
AcDbLine
 10
0.9599973434
 20
3.3634693684
 30
0.0
 11
0.9599973434
 21
3.7571701558
 31
0.0
  0
LINE
  5
156
330
1F
100
AcDbEntity
  8
0
  6
Continuous
 62
     7
370
    25
100
AcDbLine
 10
0.9599973434
 20
3.3634693684
 30
0.0
 11
1.0781075797
 21
3.3634693684
 31
0.0
  0
LINE
  5
157
330
1F
100
AcDbEntity
  8
0
  6
Continuous
 62
     7
370
    25
100
AcDbLine
 10
1.0781075797
 20
3.3634693684
 30
0.0
 11
1.0781075797
 21
2.8910284235
 31
0.0
  0
LINE
  5
158
330
1F
100
AcDbEntity
  8
0
  6
Continuous
 62
     7
370
    25
100
AcDbLine
 10
1.0781075797
 20
2.8910284235
 30
0.0
 11
0.9599973434
 21
2.8910284235
 31
0.0
  0
LINE
  5
159
330
1F
100
AcDbEntity
  8
0
  6
Continuous
 62
     7
370
    25
100
AcDbLine
 10
0.9599973434
 20
2.6154378723
 30
0.0
 11
0.9599973434
 21
2.8910284235
 31
0.0
  0
ARC
  5
15A
330
1F
100
AcDbEntity
  8
0
  6
Continuous
 62
     7
370
    25
100
AcDbCircle
 10
6.0701105324
 20
5.8634693684
 30
0.0
 40
6.054995078742615
100
AcDbArc
 50
180.0
 51
212.4403873912
  0
LINE
  5
15B
330
1F
100
AcDbEntity
  8
0
  6
Continuous
 62
     7
370
    25
100
AcDbLine
 10
0.1332256899
 20
5.8634693684
 30
0.0
 11
0.0151154537
 21
5.8634693684
 31
0.0
  0
LINE
  5
15C
330
1F
100
AcDbEntity
  8
0
  6
Continuous
 62
     7
370
    25
100
AcDbLine
 10
0.1332256899
 20
6.2571701558
 30
0.0
 11
0.1332256899
 21
5.8634693684
 31
0.0
  0
LINE
  5
15D
330
1F
100
AcDbEntity
  8
0
  6
Continuous
 62
     7
370
    25
100
AcDbLine
 10
0.1332256899
 20
6.2571701558
 30
0.0
 11
0.0151154537
 21
6.2571701558
 31
0.0
  0
LINE
  5
15E
330
1F
100
AcDbEntity
  8
0
  6
Continuous
 62
     7
370
    25
100
AcDbLine
 10
0.0151154537
 20
6.2571701558
 30
0.0
 11
0.0151154537
 21
6.6508709432
 31
0.0
  0
LINE
  5
15F
330
1F
100
AcDbEntity
  8
0
  6
Continuous
 62
     7
370
    25
100
AcDbLine
 10
0.1332256899
 20
6.6508709432
 30
0.0
 11
0.0151154537
 21
6.6508709432
 31
0.0
  0
LINE
  5
160
330
1F
100
AcDbEntity
  8
0
  6
Continuous
 62
     7
370
    25
100
AcDbLine
 10
0.1332256899
 20
7.0052016518
 30
0.0
 11
0.1332256899
 21
6.6508709432
 31
0.0
  0
LINE
  5
161
330
1F
100
AcDbEntity
  8
0
  6
Continuous
 62
     7
370
    25
100
AcDbLine
 10
0.1332256899
 20
7.0052016518
 30
0.0
 11
0.0151154537
 21
7.0052016518
 31
0.0
  0
LINE
  5
162
330
1F
100
AcDbEntity
  8
0
  6
Continuous
 62
     7
370
    25
100
AcDbLine
 10
0.0151154537
 20
7.0052016518
 30
0.0
 11
0.0151154537
 21
7.3989024392
 31
0.0
  0
LINE
  5
163
330
1F
100
AcDbEntity
  8
0
  6
Continuous
 62
     7
370
    25
100
AcDbLine
 10
0.1332256899
 20
7.3989024392
 30
0.0
 11
0.0151154537
 21
7.3989024392
 31
0.0
  0
LINE
  5
164
330
1F
100
AcDbEntity
  8
0
  6
Continuous
 62
     7
370
    25
100
AcDbLine
 10
0.1332256899
 20
7.7532331479
 30
0.0
 11
0.1332256899
 21
7.3989024392
 31
0.0
  0
LINE
  5
165
330
1F
100
AcDbEntity
  8
0
  6
Continuous
 62
     7
370
    25
100
AcDbLine
 10
0.1332256899
 20
7.7532331479
 30
0.0
 11
0.0151154537
 21
7.7532331479
 31
0.0
  0
LINE
  5
166
330
1F
100
AcDbEntity
  8
0
  6
Continuous
 62
     7
370
    25
100
AcDbLine
 10
0.0151154537
 20
7.7532331479
 30
0.0
 11
0.0151154537
 21
8.1469339353
 31
0.0
  0
LINE
  5
167
330
1F
100
AcDbEntity
  8
0
  6
Continuous
 62
     7
370
    25
100
AcDbLine
 10
0.1332256899
 20
8.1469339353
 30
0.0
 11
0.0151154537
 21
8.1469339353
 31
0.0
  0
LINE
  5
168
330
1F
100
AcDbEntity
  8
0
  6
Continuous
 62
     7
370
    25
100
AcDbLine
 10
0.1332256899
 20
8.501264644
 30
0.0
 11
0.1332256899
 21
8.1469339353
 31
0.0
  0
LINE
  5
169
330
1F
100
AcDbEntity
  8
0
  6
Continuous
 62
     7
370
    25
100
AcDbLine
 10
0.1332256899
 20
8.501264644
 30
0.0
 11
0.0151154537
 21
8.501264644
 31
0.0
  0
LINE
  5
16A
330
1F
100
AcDbEntity
  8
0
  6
Continuous
 62
     7
370
    25
100
AcDbLine
 10
0.0151154537
 20
8.501264644
 30
0.0
 11
0.0151154537
 21
8.8949654314
 31
0.0
  0
LINE
  5
16B
330
1F
100
AcDbEntity
  8
0
  6
Continuous
 62
     7
370
    25
100
AcDbLine
 10
0.1332256899
 20
8.8949654314
 30
0.0
 11
0.0151154537
 21
8.8949654314
 31
0.0
  0
LINE
  5
16C
330
1F
100
AcDbEntity
  8
0
  6
Continuous
 62
     7
370
    25
100
AcDbLine
 10
0.1332256899
 20
9.24929614
 30
0.0
 11
0.1332256899
 21
8.8949654314
 31
0.0
  0
LINE
  5
16D
330
1F
100
AcDbEntity
  8
0
  6
Continuous
 62
     7
370
    25
100
AcDbLine
 10
0.1332256899
 20
9.24929614
 30
0.0
 11
0.0151154537
 21
9.24929614
 31
0.0
  0
LINE
  5
16E
330
1F
100
AcDbEntity
  8
0
  6
Continuous
 62
     7
370
    25
100
AcDbLine
 10
0.0151154537
 20
9.24929614
 30
0.0
 11
0.0151154537
 21
9.6429969274
 31
0.0
  0
LINE
  5
16F
330
1F
100
AcDbEntity
  8
0
  6
Continuous
 62
     7
370
    25
100
AcDbLine
 10
0.1332256899
 20
9.6429969274
 30
0.0
 11
0.0151154537
 21
9.6429969274
 31
0.0
  0
LINE
  5
170
330
1F
100
AcDbEntity
  8
0
  6
Continuous
 62
     7
370
    25
100
AcDbLine
 10
0.1332256899
 20
9.9973276361
 30
0.0
 11
0.1332256899
 21
9.6429969274
 31
0.0
  0
LINE
  5
171
330
1F
100
AcDbEntity
  8
0
  6
Continuous
 62
     7
370
    25
100
AcDbLine
 10
0.1332256899
 20
9.9973276361
 30
0.0
 11
0.0151154537
 21
9.9973276361
 31
0.0
  0
LINE
  5
172
330
1F
100
AcDbEntity
  8
0
  6
Continuous
 62
     7
370
    25
100
AcDbLine
 10
0.0151154537
 20
9.9973276361
 30
0.0
 11
0.0151154537
 21
10.3910284235
 31
0.0
  0
LINE
  5
173
330
1F
100
AcDbEntity
  8
0
  6
Continuous
 62
     7
370
    25
100
AcDbLine
 10
0.1332256899
 20
10.3910284235
 30
0.0
 11
0.0151154537
 21
10.3910284235
 31
0.0
  0
LINE
  5
174
330
1F
100
AcDbEntity
  8
0
  6
Continuous
 62
     7
370
    25
100
AcDbLine
 10
0.1332256899
 20
10.7453591322
 30
0.0
 11
0.1332256899
 21
10.3910284235
 31
0.0
  0
LINE
  5
175
330
1F
100
AcDbEntity
  8
0
  6
Continuous
 62
     7
370
    25
100
AcDbLine
 10
0.1332256899
 20
10.7453591322
 30
0.0
 11
0.0151154537
 21
10.7453591322
 31
0.0
  0
LINE
  5
176
330
1F
100
AcDbEntity
  8
0
  6
Continuous
 62
     7
370
    25
100
AcDbLine
 10
0.0151154537
 20
10.7453591322
 30
0.0
 11
0.0151154537
 21
11.1390599196
 31
0.0
  0
LINE
  5
177
330
1F
100
AcDbEntity
  8
0
  6
Continuous
 62
     7
370
    25
100
AcDbLine
 10
0.1332256899
 20
11.1390599196
 30
0.0
 11
0.0151154537
 21
11.1390599196
 31
0.0
  0
LINE
  5
178
330
1F
100
AcDbEntity
  8
0
  6
Continuous
 62
     7
370
    25
100
AcDbLine
 10
0.1332256899
 20
11.2768551951
 30
0.0
 11
0.1332256899
 21
11.1390599196
 31
0.0
  0
LINE
  5
179
330
1F
100
AcDbEntity
  8
0
  6
Continuous
 62
     7
370
    25
100
AcDbLine
 10
0.1332256899
 20
11.2768551951
 30
0.0
 11
0.0151154537
 21
11.2768551951
 31
0.0
  0
ARC
  5
17A
330
1F
100
AcDbEntity
  8
0
  6
Continuous
 62
     7
370
    25
100
AcDbCircle
 10
1.488208913
 20
8.717800077
 30
0.0
 40
2.952755905511921
100
AcDbArc
 50
90.0
 51
119.9264348666
  0
LINE
  5
17B
330
1F
100
AcDbEntity
  8
0
  6
Continuous
 62
     7
370
    25
100
AcDbLine
 10
1.488208913
 20
11.6705559825
 30
0.0
 11
6.8884786872
 21
11.6705559825
 31
0.0
  0
ARC
  5
17C
330
1F
100
AcDbEntity
  8
0
  6
Continuous
 62
     7
370
    25
100
AcDbCircle
 10
6.8884786872
 20
8.717800077
 30
0.0
 40
2.952755905511811
100
AcDbArc
 50
60.0735651334
 51
90.0
  0
LINE
  5
17D
330
1F
100
AcDbEntity
  8
0
  6
Continuous
 62
     7
370
    25
100
AcDbLine
 10
1.426040115
 20
4.4833574643
 30
0.0
 11
1.7213157055
 21
4.4833574643
 31
0.0
  0
LINE
  5
17E
330
1F
100
AcDbEntity
  8
0
  6
Continuous
 62
     7
370
    25
100
AcDbLine
 10
1.7213157055
 20
4.4833574643
 30
0.0
 11
1.7213157055
 21
4.6014677006
 31
0.0
  0
LINE
  5
17F
330
1F
100
AcDbEntity
  8
0
  6
Continuous
 62
     7
370
    25
100
AcDbLine
 10
1.7213157055
 20
4.6014677006
 30
0.0
 11
1.426040115
 21
4.6014677006
 31
0.0
  0
LINE
  5
180
330
1F
100
AcDbEntity
  8
0
  6
Continuous
 62
     7
370
    25
100
AcDbLine
 10
1.426040115
 20
4.6014677006
 30
0.0
 11
1.426040115
 21
4.4833574643
 31
0.0
  0
LINE
  5
181
330
1F
100
AcDbEntity
  8
0
  6
Continuous
 62
     7
370
    25
100
AcDbLine
 10
5.363047989
 20
0.0168220313
 30
0.0
 11
5.363047989
 21
0.4105228187
 31
0.0
  0
LINE
  5
182
330
1F
100
AcDbEntity
  8
0
  6
Continuous
 62
     7
370
    25
100
AcDbLine
 10
5.363047989
 20
0.4105228187
 30
0.0
 11
5.2449377528
 21
0.4105228187
 31
0.0
  0
LINE
  5
183
330
1F
100
AcDbEntity
  8
0
  6
Continuous
 62
     7
370
    25
100
AcDbLine
 10
5.2449377528
 20
0.4105228187
 30
0.0
 11
5.2449377528
 21
0.0168220313
 31
0.0
  0
LINE
  5
184
330
1F
100
AcDbEntity
  8
0
  6
Continuous
 62
     7
370
    25
100
AcDbLine
 10
5.2449377528
 20
0.0168220313
 30
0.0
 11
5.363047989
 21
0.0168220313
 31
0.0
  0
LINE
  5
185
330
1F
100
AcDbEntity
  8
0
  6
Continuous
 62
     7
370
    25
100
AcDbLine
 10
9.1819456268
 20
4.4833574643
 30
0.0
 11
9.1819456268
 21
4.6014677006
 31
0.0
  0
LINE
  5
186
330
1F
100
AcDbEntity
  8
0
  6
Continuous
 62
     7
370
    25
100
AcDbLine
 10
9.1819456268
 20
4.6014677006
 30
0.0
 11
8.8866700363
 21
4.6014677006
 31
0.0
  0
LINE
  5
187
330
1F
100
AcDbEntity
  8
0
  6
Continuous
 62
     7
370
    25
100
AcDbLine
 10
8.8866700363
 20
4.6014677006
 30
0.0
 11
8.8866700363
 21
4.4833574643
 31
0.0
  0
LINE
  5
188
330
1F
100
AcDbEntity
  8
0
  6
Continuous
 62
     7
370
    25
100
AcDbLine
 10
8.8866700363
 20
4.4833574643
 30
0.0
 11
9.1819456268
 21
4.4833574643
 31
0.0
  0
LINE
  5
189
330
1F
100
AcDbEntity
  8
0
  6
Continuous
 62
     7
370
    25
100
AcDbLine
 10
7.8288939158
 20
0.2097354171
 30
0.0
 11
7.9425455436
 21
0.4065858108
 31
0.0
  0
LINE
  5
18A
330
1F
100
AcDbEntity
  8
0
  6
Continuous
 62
     7
370
    25
100
AcDbLine
 10
7.9425455436
 20
0.4065858108
 30
0.0
 11
7.715242288
 21
0.8002865982
 31
0.0
  0
LINE
  5
18B
330
1F
100
AcDbEntity
  8
0
  6
Continuous
 62
     7
370
    25
100
AcDbLine
 10
7.715242288
 20
0.8002865982
 30
0.0
 11
7.2606357768
 21
0.8002865982
 31
0.0
  0
LINE
  5
18C
330
1F
100
AcDbEntity
  8
0
  6
Continuous
 62
     7
370
    25
100
AcDbLine
 10
7.2606357768
 20
0.8002865982
 30
0.0
 11
7.0333325213
 21
0.4065858108
 31
0.0
  0
LINE
  5
18D
330
1F
100
AcDbEntity
  8
0
  6
Continuous
 62
     7
370
    25
100
AcDbLine
 10
7.0333325213
 20
0.4065858108
 30
0.0
 11
7.146984149
 21
0.2097354171
 31
0.0
  0
LINE
  5
18E
330
1F
100
AcDbEntity
  8
0
  6
Continuous
 62
     7
370
    25
100
AcDbLine
 10
7.146984149
 20
0.2097354171
 30
0.0
 11
7.8288939158
 21
0.2097354171
 31
0.0
  0
LINE
  5
18F
330
1F
100
AcDbEntity
  8
0
  6
Continuous
 62
     7
370
    25
100
AcDbLine
 10
2.8927434538
 20
1.7845385667
 30
0.0
 11
2.6654401982
 21
1.3908377793
 31
0.0
  0
LINE
  5
190
330
1F
100
AcDbEntity
  8
0
  6
Continuous
 62
     7
370
    25
100
AcDbLine
 10
2.6654401982
 20
1.3908377793
 30
0.0
 11
2.8927434538
 21
0.9971369919
 31
0.0
  0
LINE
  5
191
330
1F
100
AcDbEntity
  8
0
  6
Continuous
 62
     7
370
    25
100
AcDbLine
 10
2.8927434538
 20
0.9971369919
 30
0.0
 11
3.347349965
 21
0.9971369919
 31
0.0
  0
LINE
  5
192
330
1F
100
AcDbEntity
  8
0
  6
Continuous
 62
     7
370
    25
100
AcDbLine
 10
3.347349965
 20
0.9971369919
 30
0.0
 11
3.5746532206
 21
1.3908377793
 31
0.0
  0
LINE
  5
193
330
1F
100
AcDbEntity
  8
0
  6
Continuous
 62
     7
370
    25
100
AcDbLine
 10
3.5746532206
 20
1.3908377793
 30
0.0
 11
3.347349965
 21
1.7845385667
 31
0.0
  0
LINE
  5
194
330
1F
100
AcDbEntity
  8
0
  6
Continuous
 62
     7
370
    25
100
AcDbLine
 10
3.347349965
 20
1.7845385667
 30
0.0
 11
2.8927434538
 21
1.7845385667
 31
0.0
  0
LINE
  5
195
330
1F
100
AcDbEntity
  8
0
  6
Continuous
 62
     7
370
    25
100
AcDbLine
 10
2.6654401982
 20
2.3750897478
 30
0.0
 11
2.8927434538
 21
1.9813889604
 31
0.0
  0
LINE
  5
196
330
1F
100
AcDbEntity
  8
0
  6
Continuous
 62
     7
370
    25
100
AcDbLine
 10
2.8927434538
 20
1.9813889604
 30
0.0
 11
3.347349965
 21
1.9813889604
 31
0.0
  0
LINE
  5
197
330
1F
100
AcDbEntity
  8
0
  6
Continuous
 62
     7
370
    25
100
AcDbLine
 10
3.347349965
 20
1.9813889604
 30
0.0
 11
3.5746532206
 21
2.3750897478
 31
0.0
  0
LINE
  5
198
330
1F
100
AcDbEntity
  8
0
  6
Continuous
 62
     7
370
    25
100
AcDbLine
 10
3.5746532206
 20
2.3750897478
 30
0.0
 11
2.6654401982
 21
2.3750897478
 31
0.0
  0
LINE
  5
199
330
1F
100
AcDbEntity
  8
0
  6
Continuous
 62
     7
370
    25
100
AcDbLine
 10
3.9156081039
 20
1.3908377793
 30
0.0
 11
4.0292597317
 21
1.3908377793
 31
0.0
  0
LINE
  5
19A
330
1F
100
AcDbEntity
  8
0
  6
Continuous
 62
     7
370
    25
100
AcDbLine
 10
4.0292597317
 20
1.3908377793
 30
0.0
 11
4.0292597317
 21
2.1782393541
 31
0.0
  0
LINE
  5
19B
330
1F
100
AcDbEntity
  8
0
  6
Continuous
 62
     7
370
    25
100
AcDbLine
 10
4.0292597317
 20
2.1782393541
 30
0.0
 11
3.9156081039
 21
2.1782393541
 31
0.0
  0
LINE
  5
19C
330
1F
100
AcDbEntity
  8
0
  6
Continuous
 62
     7
370
    25
100
AcDbLine
 10
3.9156081039
 20
2.1782393541
 30
0.0
 11
3.6883048483
 21
1.7845385667
 31
0.0
  0
LINE
  5
19D
330
1F
100
AcDbEntity
  8
0
  6
Continuous
 62
     7
370
    25
100
AcDbLine
 10
3.6883048483
 20
1.7845385667
 30
0.0
 11
3.9156081039
 21
1.3908377793
 31
0.0
  0
LINE
  5
19E
330
1F
100
AcDbEntity
  8
0
  6
Continuous
 62
     7
370
    25
100
AcDbLine
 10
1.8698788037
 20
1.3908377793
 30
0.0
 11
2.3244853148
 21
1.3908377793
 31
0.0
  0
LINE
  5
19F
330
1F
100
AcDbEntity
  8
0
  6
Continuous
 62
     7
370
    25
100
AcDbLine
 10
2.3244853148
 20
1.3908377793
 30
0.0
 11
2.5517885704
 21
1.7845385667
 31
0.0
  0
LINE
  5
1A0
330
1F
100
AcDbEntity
  8
0
  6
Continuous
 62
     7
370
    25
100
AcDbLine
 10
2.5517885704
 20
1.7845385667
 30
0.0
 11
2.3244853148
 21
2.1782393541
 31
0.0
  0
LINE
  5
1A1
330
1F
100
AcDbEntity
  8
0
  6
Continuous
 62
     7
370
    25
100
AcDbLine
 10
2.3244853148
 20
2.1782393541
 30
0.0
 11
1.8698788037
 21
2.1782393541
 31
0.0
  0
LINE
  5
1A2
330
1F
100
AcDbEntity
  8
0
  6
Continuous
 62
     7
370
    25
100
AcDbLine
 10
1.8698788037
 20
2.1782393541
 30
0.0
 11
1.6425755481
 21
1.7845385667
 31
0.0
  0
LINE
  5
1A3
330
1F
100
AcDbEntity
  8
0
  6
Continuous
 62
     7
370
    25
100
AcDbLine
 10
1.6425755481
 20
1.7845385667
 30
0.0
 11
1.8698788037
 21
1.3908377793
 31
0.0
  0
LINE
  5
1A4
330
1F
100
AcDbEntity
  8
0
  6
Continuous
 62
     7
370
    25
100
AcDbLine
 10
1.8698788037
 20
1.1939873856
 30
0.0
 11
1.6425755481
 21
0.8002865982
 31
0.0
  0
LINE
  5
1A5
330
1F
100
AcDbEntity
  8
0
  6
Continuous
 62
     7
370
    25
100
AcDbLine
 10
1.6425755481
 20
0.8002865982
 30
0.0
 11
1.8698788037
 21
0.4065858108
 31
0.0
  0
LINE
  5
1A6
330
1F
100
AcDbEntity
  8
0
  6
Continuous
 62
     7
370
    25
100
AcDbLine
 10
1.8698788037
 20
0.4065858108
 30
0.0
 11
2.3244853148
 21
0.4065858108
 31
0.0
  0
LINE
  5
1A7
330
1F
100
AcDbEntity
  8
0
  6
Continuous
 62
     7
370
    25
100
AcDbLine
 10
2.3244853148
 20
0.4065858108
 30
0.0
 11
2.5517885704
 21
0.8002865982
 31
0.0
  0
LINE
  5
1A8
330
1F
100
AcDbEntity
  8
0
  6
Continuous
 62
     7
370
    25
100
AcDbLine
 10
2.5517885704
 20
0.8002865982
 30
0.0
 11
2.3244853148
 21
1.1939873856
 31
0.0
  0
LINE
  5
1A9
330
1F
100
AcDbEntity
  8
0
  6
Continuous
 62
     7
370
    25
100
AcDbLine
 10
2.3244853148
 20
1.1939873856
 30
0.0
 11
1.8698788037
 21
1.1939873856
 31
0.0
  0
LINE
  5
1AA
330
1F
100
AcDbEntity
  8
0
  6
Continuous
 62
     7
370
    25
100
AcDbLine
 10
5.5570803157
 20
3.2609165195
 30
0.0
 11
5.6366364551
 21
3.1231212439
 31
0.0
  0
LINE
  5
1AB
330
1F
100
AcDbEntity
  8
0
  6
Continuous
 62
     7
370
    25
100
AcDbLine
 10
5.6366364551
 20
3.1231212439
 30
0.0
 11
5.795748734
 21
3.1231212439
 31
0.0
  0
LINE
  5
1AC
330
1F
100
AcDbEntity
  8
0
  6
Continuous
 62
     7
370
    25
100
AcDbLine
 10
5.795748734
 20
3.1231212439
 30
0.0
 11
5.8753048735
 21
3.2609165195
 31
0.0
  0
LINE
  5
1AD
330
1F
100
AcDbEntity
  8
0
  6
Continuous
 62
     7
370
    25
100
AcDbLine
 10
5.8753048735
 20
3.2609165195
 30
0.0
 11
5.795748734
 21
3.3987117951
 31
0.0
  0
LINE
  5
1AE
330
1F
100
AcDbEntity
  8
0
  6
Continuous
 62
     7
370
    25
100
AcDbLine
 10
5.795748734
 20
3.3987117951
 30
0.0
 11
5.6366364551
 21
3.3987117951
 31
0.0
  0
LINE
  5
1AF
330
1F
100
AcDbEntity
  8
0
  6
Continuous
 62
     7
370
    25
100
AcDbLine
 10
5.6366364551
 20
3.3987117951
 30
0.0
 11
5.5570803157
 21
3.2609165195
 31
0.0
  0
LINE
  5
1B0
330
1F
100
AcDbEntity
  8
0
  6
Continuous
 62
     7
370
    25
100
AcDbLine
 10
5.795748734
 20
0.3278456533
 30
0.0
 11
5.8753048735
 21
0.4656409289
 31
0.0
  0
LINE
  5
1B1
330
1F
100
AcDbEntity
  8
0
  6
Continuous
 62
     7
370
    25
100
AcDbLine
 10
5.8753048735
 20
0.4656409289
 30
0.0
 11
5.795748734
 21
0.6034362045
 31
0.0
  0
LINE
  5
1B2
330
1F
100
AcDbEntity
  8
0
  6
Continuous
 62
     7
370
    25
100
AcDbLine
 10
5.795748734
 20
0.6034362045
 30
0.0
 11
5.6366364551
 21
0.6034362045
 31
0.0
  0
LINE
  5
1B3
330
1F
100
AcDbEntity
  8
0
  6
Continuous
 62
     7
370
    25
100
AcDbLine
 10
5.6366364551
 20
0.6034362045
 30
0.0
 11
5.5570803157
 21
0.4656409289
 31
0.0
  0
LINE
  5
1B4
330
1F
100
AcDbEntity
  8
0
  6
Continuous
 62
     7
370
    25
100
AcDbLine
 10
5.5570803157
 20
0.4656409289
 30
0.0
 11
5.6366364551
 21
0.3278456533
 31
0.0
  0
LINE
  5
1B5
330
1F
100
AcDbEntity
  8
0
  6
Continuous
 62
     7
370
    25
100
AcDbLine
 10
5.6366364551
 20
0.3278456533
 30
0.0
 11
5.795748734
 21
0.3278456533
 31
0.0
  0
LINE
  5
1B6
330
1F
100
AcDbEntity
  8
0
  6
Continuous
 62
     7
370
    25
100
AcDbLine
 10
2.779091826
 20
0.2097354171
 30
0.0
 11
3.4610015928
 21
0.2097354171
 31
0.0
  0
LINE
  5
1B7
330
1F
100
AcDbEntity
  8
0
  6
Continuous
 62
     7
370
    25
100
AcDbLine
 10
3.4610015928
 20
0.2097354171
 30
0.0
 11
3.5746532206
 21
0.4065858108
 31
0.0
  0
LINE
  5
1B8
330
1F
100
AcDbEntity
  8
0
  6
Continuous
 62
     7
370
    25
100
AcDbLine
 10
3.5746532206
 20
0.4065858108
 30
0.0
 11
3.347349965
 21
0.8002865982
 31
0.0
  0
LINE
  5
1B9
330
1F
100
AcDbEntity
  8
0
  6
Continuous
 62
     7
370
    25
100
AcDbLine
 10
3.347349965
 20
0.8002865982
 30
0.0
 11
2.8927434538
 21
0.8002865982
 31
0.0
  0
LINE
  5
1BA
330
1F
100
AcDbEntity
  8
0
  6
Continuous
 62
     7
370
    25
100
AcDbLine
 10
2.8927434538
 20
0.8002865982
 30
0.0
 11
2.6654401982
 21
0.4065858108
 31
0.0
  0
LINE
  5
1BB
330
1F
100
AcDbEntity
  8
0
  6
Continuous
 62
     7
370
    25
100
AcDbLine
 10
2.6654401982
 20
0.4065858108
 30
0.0
 11
2.779091826
 21
0.2097354171
 31
0.0
  0
LINE
  5
1BC
330
1F
100
AcDbEntity
  8
0
  6
Continuous
 62
     7
370
    25
100
AcDbLine
 10
4.4838662429
 20
0.6034362045
 30
0.0
 11
4.1429113595
 21
1.1939873856
 31
0.0
  0
LINE
  5
1BD
330
1F
100
AcDbEntity
  8
0
  6
Continuous
 62
     7
370
    25
100
AcDbLine
 10
4.1429113595
 20
1.1939873856
 30
0.0
 11
3.9156081039
 21
1.1939873856
 31
0.0
  0
LINE
  5
1BE
330
1F
100
AcDbEntity
  8
0
  6
Continuous
 62
     7
370
    25
100
AcDbLine
 10
3.9156081039
 20
1.1939873856
 30
0.0
 11
3.6883048483
 21
0.8002865982
 31
0.0
  0
LINE
  5
1BF
330
1F
100
AcDbEntity
  8
0
  6
Continuous
 62
     7
370
    25
100
AcDbLine
 10
3.6883048483
 20
0.8002865982
 30
0.0
 11
3.9156081039
 21
0.4065858108
 31
0.0
  0
LINE
  5
1C0
330
1F
100
AcDbEntity
  8
0
  6
Continuous
 62
     7
370
    25
100
AcDbLine
 10
3.9156081039
 20
0.4065858108
 30
0.0
 11
4.3702146151
 21
0.4065858108
 31
0.0
  0
LINE
  5
1C1
330
1F
100
AcDbEntity
  8
0
  6
Continuous
 62
     7
370
    25
100
AcDbLine
 10
4.3702146151
 20
0.4065858108
 30
0.0
 11
4.4838662429
 21
0.6034362045
 31
0.0
  0
LINE
  5
1C2
330
1F
100
AcDbEntity
  8
0
  6
Continuous
 62
     7
370
    25
100
AcDbLine
 10
5.0509054261
 20
0.4656409289
 30
0.0
 11
4.9713492867
 21
0.6034362045
 31
0.0
  0
LINE
  5
1C3
330
1F
100
AcDbEntity
  8
0
  6
Continuous
 62
     7
370
    25
100
AcDbLine
 10
4.9713492867
 20
0.6034362045
 30
0.0
 11
4.8122370078
 21
0.6034362045
 31
0.0
  0
LINE
  5
1C4
330
1F
100
AcDbEntity
  8
0
  6
Continuous
 62
     7
370
    25
100
AcDbLine
 10
4.8122370078
 20
0.6034362045
 30
0.0
 11
4.7326808683
 21
0.4656409289
 31
0.0
  0
LINE
  5
1C5
330
1F
100
AcDbEntity
  8
0
  6
Continuous
 62
     7
370
    25
100
AcDbLine
 10
4.7326808683
 20
0.4656409289
 30
0.0
 11
4.8122370078
 21
0.3278456533
 31
0.0
  0
LINE
  5
1C6
330
1F
100
AcDbEntity
  8
0
  6
Continuous
 62
     7
370
    25
100
AcDbLine
 10
4.8122370078
 20
0.3278456533
 30
0.0
 11
4.9713492867
 21
0.3278456533
 31
0.0
  0
LINE
  5
1C7
330
1F
100
AcDbEntity
  8
0
  6
Continuous
 62
     7
370
    25
100
AcDbLine
 10
4.9713492867
 20
0.3278456533
 30
0.0
 11
5.0509054261
 21
0.4656409289
 31
0.0
  0
LINE
  5
1C8
330
1F
100
AcDbEntity
  8
0
  6
Continuous
 62
     7
370
    25
100
AcDbLine
 10
4.8122370078
 20
3.3987117951
 30
0.0
 11
4.7326808683
 21
3.2609165195
 31
0.0
  0
LINE
  5
1C9
330
1F
100
AcDbEntity
  8
0
  6
Continuous
 62
     7
370
    25
100
AcDbLine
 10
4.7326808683
 20
3.2609165195
 30
0.0
 11
4.8122370078
 21
3.1231212439
 31
0.0
  0
LINE
  5
1CA
330
1F
100
AcDbEntity
  8
0
  6
Continuous
 62
     7
370
    25
100
AcDbLine
 10
4.8122370078
 20
3.1231212439
 30
0.0
 11
4.9713492867
 21
3.1231212439
 31
0.0
  0
LINE
  5
1CB
330
1F
100
AcDbEntity
  8
0
  6
Continuous
 62
     7
370
    25
100
AcDbLine
 10
4.9713492867
 20
3.1231212439
 30
0.0
 11
5.0509054261
 21
3.2609165195
 31
0.0
  0
LINE
  5
1CC
330
1F
100
AcDbEntity
  8
0
  6
Continuous
 62
     7
370
    25
100
AcDbLine
 10
5.0509054261
 20
3.2609165195
 30
0.0
 11
4.9713492867
 21
3.3987117951
 31
0.0
  0
LINE
  5
1CD
330
1F
100
AcDbEntity
  8
0
  6
Continuous
 62
     7
370
    25
100
AcDbLine
 10
4.9713492867
 20
3.3987117951
 30
0.0
 11
4.8122370078
 21
3.3987117951
 31
0.0
  0
LINE
  5
1CE
330
1F
100
AcDbEntity
  8
0
  6
Continuous
 62
     7
370
    25
100
AcDbLine
 10
4.0022565868
 20
3.2018614014
 30
0.0
 11
3.8472999575
 21
2.9334686464
 31
0.0
  0
LINE
  5
1CF
330
1F
100
AcDbEntity
  8
0
  6
Continuous
 62
     7
370
    25
100
AcDbLine
 10
3.8472999575
 20
2.9334686464
 30
0.0
 11
4.0022565868
 21
2.6650758914
 31
0.0
  0
LINE
  5
1D0
330
1F
100
AcDbEntity
  8
0
  6
Continuous
 62
     7
370
    25
100
AcDbLine
 10
4.0022565868
 20
2.6650758914
 30
0.0
 11
4.3121698455
 21
2.6650758914
 31
0.0
  0
LINE
  5
1D1
330
1F
100
AcDbEntity
  8
0
  6
Continuous
 62
     7
370
    25
100
AcDbLine
 10
4.3121698455
 20
2.6650758914
 30
0.0
 11
4.4671264748
 21
2.9334686464
 31
0.0
  0
LINE
  5
1D2
330
1F
100
AcDbEntity
  8
0
  6
Continuous
 62
     7
370
    25
100
AcDbLine
 10
4.4671264748
 20
2.9334686464
 30
0.0
 11
4.3121698455
 21
3.2018614014
 31
0.0
  0
LINE
  5
1D3
330
1F
100
AcDbEntity
  8
0
  6
Continuous
 62
     7
370
    25
100
AcDbLine
 10
4.3121698455
 20
3.2018614014
 30
0.0
 11
4.0022565868
 21
3.2018614014
 31
0.0
  0
LINE
  5
1D4
330
1F
100
AcDbEntity
  8
0
  6
Continuous
 62
     7
370
    25
100
AcDbLine
 10
1.800055863
 20
3.2018614014
 30
0.0
 11
1.6425755481
 21
2.9290974946
 31
0.0
  0
LINE
  5
1D5
330
1F
100
AcDbEntity
  8
0
  6
Continuous
 62
     7
370
    25
100
AcDbLine
 10
1.6425755481
 20
2.9290974946
 30
0.0
 11
1.800055863
 21
2.6563335879
 31
0.0
  0
LINE
  5
1D6
330
1F
100
AcDbEntity
  8
0
  6
Continuous
 62
     7
370
    25
100
AcDbLine
 10
1.800055863
 20
2.6563335879
 30
0.0
 11
2.1150164929
 21
2.6563335879
 31
0.0
  0
LINE
  5
1D7
330
1F
100
AcDbEntity
  8
0
  6
Continuous
 62
     7
370
    25
100
AcDbLine
 10
2.1150164929
 20
2.6563335879
 30
0.0
 11
2.2724968079
 21
2.9290974946
 31
0.0
  0
LINE
  5
1D8
330
1F
100
AcDbEntity
  8
0
  6
Continuous
 62
     7
370
    25
100
AcDbLine
 10
2.2724968079
 20
2.9290974946
 30
0.0
 11
2.1150164929
 21
3.2018614014
 31
0.0
  0
LINE
  5
1D9
330
1F
100
AcDbEntity
  8
0
  6
Continuous
 62
     7
370
    25
100
AcDbLine
 10
2.1150164929
 20
3.2018614014
 30
0.0
 11
1.800055863
 21
3.2018614014
 31
0.0
  0
LINE
  5
1DA
330
1F
100
AcDbEntity
  8
0
  6
Continuous
 62
     7
370
    25
100
AcDbLine
 10
8.3354889339
 20
2.9290974946
 30
0.0
 11
8.4929692489
 21
2.6563335879
 31
0.0
  0
LINE
  5
1DB
330
1F
100
AcDbEntity
  8
0
  6
Continuous
 62
     7
370
    25
100
AcDbLine
 10
8.4929692489
 20
2.6563335879
 30
0.0
 11
8.8079298788
 21
2.6563335879
 31
0.0
  0
LINE
  5
1DC
330
1F
100
AcDbEntity
  8
0
  6
Continuous
 62
     7
370
    25
100
AcDbLine
 10
8.8079298788
 20
2.6563335879
 30
0.0
 11
8.9654101937
 21
2.9290974946
 31
0.0
  0
LINE
  5
1DD
330
1F
100
AcDbEntity
  8
0
  6
Continuous
 62
     7
370
    25
100
AcDbLine
 10
8.9654101937
 20
2.9290974946
 30
0.0
 11
8.8079298788
 21
3.2018614014
 31
0.0
  0
LINE
  5
1DE
330
1F
100
AcDbEntity
  8
0
  6
Continuous
 62
     7
370
    25
100
AcDbLine
 10
8.8079298788
 20
3.2018614014
 30
0.0
 11
8.4929692489
 21
3.2018614014
 31
0.0
  0
LINE
  5
1DF
330
1F
100
AcDbEntity
  8
0
  6
Continuous
 62
     7
370
    25
100
AcDbLine
 10
8.4929692489
 20
3.2018614014
 30
0.0
 11
8.3354889339
 21
2.9290974946
 31
0.0
  0
LINE
  5
1E0
330
1F
100
AcDbEntity
  8
0
  6
Continuous
 62
     7
370
    25
100
AcDbLine
 10
6.6923776379
 20
0.4065858108
 30
0.0
 11
6.9196808935
 21
0.8002865982
 31
0.0
  0
LINE
  5
1E1
330
1F
100
AcDbEntity
  8
0
  6
Continuous
 62
     7
370
    25
100
AcDbLine
 10
6.9196808935
 20
0.8002865982
 30
0.0
 11
6.6923776379
 21
1.1939873856
 31
0.0
  0
LINE
  5
1E2
330
1F
100
AcDbEntity
  8
0
  6
Continuous
 62
     7
370
    25
100
AcDbLine
 10
6.6923776379
 20
1.1939873856
 30
0.0
 11
6.4650743823
 21
1.1939873856
 31
0.0
  0
LINE
  5
1E3
330
1F
100
AcDbEntity
  8
0
  6
Continuous
 62
     7
370
    25
100
AcDbLine
 10
6.4650743823
 20
1.1939873856
 30
0.0
 11
6.1241194989
 21
0.6034362045
 31
0.0
  0
LINE
  5
1E4
330
1F
100
AcDbEntity
  8
0
  6
Continuous
 62
     7
370
    25
100
AcDbLine
 10
6.1241194989
 20
0.6034362045
 30
0.0
 11
6.2377711267
 21
0.4065858108
 31
0.0
  0
LINE
  5
1E5
330
1F
100
AcDbEntity
  8
0
  6
Continuous
 62
     7
370
    25
100
AcDbLine
 10
6.2377711267
 20
0.4065858108
 30
0.0
 11
6.6923776379
 21
0.4065858108
 31
0.0
  0
LINE
  5
1E6
330
1F
100
AcDbEntity
  8
0
  6
Continuous
 62
     7
370
    25
100
AcDbLine
 10
7.0333325213
 20
1.3908377793
 30
0.0
 11
7.2606357768
 21
0.9971369919
 31
0.0
  0
LINE
  5
1E7
330
1F
100
AcDbEntity
  8
0
  6
Continuous
 62
     7
370
    25
100
AcDbLine
 10
7.2606357768
 20
0.9971369919
 30
0.0
 11
7.715242288
 21
0.9971369919
 31
0.0
  0
LINE
  5
1E8
330
1F
100
AcDbEntity
  8
0
  6
Continuous
 62
     7
370
    25
100
AcDbLine
 10
7.715242288
 20
0.9971369919
 30
0.0
 11
7.9425455436
 21
1.3908377793
 31
0.0
  0
LINE
  5
1E9
330
1F
100
AcDbEntity
  8
0
  6
Continuous
 62
     7
370
    25
100
AcDbLine
 10
7.9425455436
 20
1.3908377793
 30
0.0
 11
7.715242288
 21
1.7845385667
 31
0.0
  0
LINE
  5
1EA
330
1F
100
AcDbEntity
  8
0
  6
Continuous
 62
     7
370
    25
100
AcDbLine
 10
7.715242288
 20
1.7845385667
 30
0.0
 11
7.2606357768
 21
1.7845385667
 31
0.0
  0
LINE
  5
1EB
330
1F
100
AcDbEntity
  8
0
  6
Continuous
 62
     7
370
    25
100
AcDbLine
 10
7.2606357768
 20
1.7845385667
 30
0.0
 11
7.0333325213
 21
1.3908377793
 31
0.0
  0
LINE
  5
1EC
330
1F
100
AcDbEntity
  8
0
  6
Continuous
 62
     7
370
    25
100
AcDbLine
 10
8.0561971714
 20
0.8002865982
 30
0.0
 11
8.283500427
 21
0.4065858108
 31
0.0
  0
LINE
  5
1ED
330
1F
100
AcDbEntity
  8
0
  6
Continuous
 62
     7
370
    25
100
AcDbLine
 10
8.283500427
 20
0.4065858108
 30
0.0
 11
8.7381069382
 21
0.4065858108
 31
0.0
  0
LINE
  5
1EE
330
1F
100
AcDbEntity
  8
0
  6
Continuous
 62
     7
370
    25
100
AcDbLine
 10
8.7381069382
 20
0.4065858108
 30
0.0
 11
8.9654101937
 21
0.8002865982
 31
0.0
  0
LINE
  5
1EF
330
1F
100
AcDbEntity
  8
0
  6
Continuous
 62
     7
370
    25
100
AcDbLine
 10
8.9654101937
 20
0.8002865982
 30
0.0
 11
8.7381069382
 21
1.1939873856
 31
0.0
  0
LINE
  5
1F0
330
1F
100
AcDbEntity
  8
0
  6
Continuous
 62
     7
370
    25
100
AcDbLine
 10
8.7381069382
 20
1.1939873856
 30
0.0
 11
8.283500427
 21
1.1939873856
 31
0.0
  0
LINE
  5
1F1
330
1F
100
AcDbEntity
  8
0
  6
Continuous
 62
     7
370
    25
100
AcDbLine
 10
8.283500427
 20
1.1939873856
 30
0.0
 11
8.0561971714
 21
0.8002865982
 31
0.0
  0
LINE
  5
1F2
330
1F
100
AcDbEntity
  8
0
  6
Continuous
 62
     7
370
    25
100
AcDbLine
 10
8.283500427
 20
1.3908377793
 30
0.0
 11
8.7381069382
 21
1.3908377793
 31
0.0
  0
LINE
  5
1F3
330
1F
100
AcDbEntity
  8
0
  6
Continuous
 62
     7
370
    25
100
AcDbLine
 10
8.7381069382
 20
1.3908377793
 30
0.0
 11
8.9654101937
 21
1.7845385667
 31
0.0
  0
LINE
  5
1F4
330
1F
100
AcDbEntity
  8
0
  6
Continuous
 62
     7
370
    25
100
AcDbLine
 10
8.9654101937
 20
1.7845385667
 30
0.0
 11
8.7381069382
 21
2.1782393541
 31
0.0
  0
LINE
  5
1F5
330
1F
100
AcDbEntity
  8
0
  6
Continuous
 62
     7
370
    25
100
AcDbLine
 10
8.7381069382
 20
2.1782393541
 30
0.0
 11
8.283500427
 21
2.1782393541
 31
0.0
  0
LINE
  5
1F6
330
1F
100
AcDbEntity
  8
0
  6
Continuous
 62
     7
370
    25
100
AcDbLine
 10
8.283500427
 20
2.1782393541
 30
0.0
 11
8.0561971714
 21
1.7845385667
 31
0.0
  0
LINE
  5
1F7
330
1F
100
AcDbEntity
  8
0
  6
Continuous
 62
     7
370
    25
100
AcDbLine
 10
8.0561971714
 20
1.7845385667
 30
0.0
 11
8.283500427
 21
1.3908377793
 31
0.0
  0
LINE
  5
1F8
330
1F
100
AcDbEntity
  8
0
  6
Continuous
 62
     7
370
    25
100
AcDbLine
 10
7.0333325213
 20
2.3750897478
 30
0.0
 11
7.2606357768
 21
1.9813889604
 31
0.0
  0
LINE
  5
1F9
330
1F
100
AcDbEntity
  8
0
  6
Continuous
 62
     7
370
    25
100
AcDbLine
 10
7.2606357768
 20
1.9813889604
 30
0.0
 11
7.715242288
 21
1.9813889604
 31
0.0
  0
LINE
  5
1FA
330
1F
100
AcDbEntity
  8
0
  6
Continuous
 62
     7
370
    25
100
AcDbLine
 10
7.715242288
 20
1.9813889604
 30
0.0
 11
7.9425455436
 21
2.3750897478
 31
0.0
  0
LINE
  5
1FB
330
1F
100
AcDbEntity
  8
0
  6
Continuous
 62
     7
370
    25
100
AcDbLine
 10
7.9425455436
 20
2.3750897478
 30
0.0
 11
7.0333325213
 21
2.3750897478
 31
0.0
  0
LINE
  5
1FC
330
1F
100
AcDbEntity
  8
0
  6
Continuous
 62
     7
370
    25
100
AcDbLine
 10
6.9196808935
 20
1.7845385667
 30
0.0
 11
6.6923776379
 21
2.1782393541
 31
0.0
  0
LINE
  5
1FD
330
1F
100
AcDbEntity
  8
0
  6
Continuous
 62
     7
370
    25
100
AcDbLine
 10
6.6923776379
 20
2.1782393541
 30
0.0
 11
6.5787260101
 21
2.1782393541
 31
0.0
  0
LINE
  5
1FE
330
1F
100
AcDbEntity
  8
0
  6
Continuous
 62
     7
370
    25
100
AcDbLine
 10
6.5787260101
 20
2.1782393541
 30
0.0
 11
6.5787260101
 21
1.3908377793
 31
0.0
  0
LINE
  5
1FF
330
1F
100
AcDbEntity
  8
0
  6
Continuous
 62
     7
370
    25
100
AcDbLine
 10
6.5787260101
 20
1.3908377793
 30
0.0
 11
6.6923776379
 21
1.3908377793
 31
0.0
  0
LINE
  5
200
330
1F
100
AcDbEntity
  8
0
  6
Continuous
 62
     7
370
    25
100
AcDbLine
 10
6.6923776379
 20
1.3908377793
 30
0.0
 11
6.9196808935
 21
1.7845385667
 31
0.0
  0
LINE
  5
201
330
1F
100
AcDbEntity
  8
0
  6
Continuous
 62
     7
370
    25
100
AcDbLine
 10
6.140859267
 20
2.9334686464
 30
0.0
 11
6.2958158963
 21
2.6650758914
 31
0.0
  0
LINE
  5
202
330
1F
100
AcDbEntity
  8
0
  6
Continuous
 62
     7
370
    25
100
AcDbLine
 10
6.2958158963
 20
2.6650758914
 30
0.0
 11
6.605729155
 21
2.6650758914
 31
0.0
  0
LINE
  5
203
330
1F
100
AcDbEntity
  8
0
  6
Continuous
 62
     7
370
    25
100
AcDbLine
 10
6.605729155
 20
2.6650758914
 30
0.0
 11
6.7606857843
 21
2.9334686464
 31
0.0
  0
LINE
  5
204
330
1F
100
AcDbEntity
  8
0
  6
Continuous
 62
     7
370
    25
100
AcDbLine
 10
6.7606857843
 20
2.9334686464
 30
0.0
 11
6.605729155
 21
3.2018614014
 31
0.0
  0
LINE
  5
205
330
1F
100
AcDbEntity
  8
0
  6
Continuous
 62
     7
370
    25
100
AcDbLine
 10
6.605729155
 20
3.2018614014
 30
0.0
 11
6.2958158963
 21
3.2018614014
 31
0.0
  0
LINE
  5
206
330
1F
100
AcDbEntity
  8
0
  6
Continuous
 62
     7
370
    25
100
AcDbLine
 10
6.2958158963
 20
3.2018614014
 30
0.0
 11
6.140859267
 21
2.9334686464
 31
0.0
  0
LINE
  5
207
330
1F
100
AcDbEntity
  8
0
  6
Continuous
 62
     7
370
    25
100
AcDbLine
 10
1.2488747607
 20
0.4065858108
 30
0.0
 11
1.1307645244
 21
0.4065858108
 31
0.0
  0
CIRCLE
  5
208
330
1F
100
AcDbEntity
  8
0
  6
Continuous
 62
     7
370
    25
100
AcDbCircle
 10
5.3039928709
 20
1.8632787242
 30
0.0
 40
1.062992125984105
  0
LINE
  5
209
330
1F
100
AcDbEntity
  8
0
  6
Continuous
 62
     7
370
    25
100
AcDbLine
 10
1.2488747607
 20
0.4065858108
 30
0.0
 11
1.2488747607
 21
0.5443810864
 31
0.0
  0
LINE
  5
20A
330
1F
100
AcDbEntity
  8
0
  6
Continuous
 62
     7
370
    25
100
AcDbLine
 10
1.2488747607
 20
0.5443810864
 30
0.0
 11
1.1307645244
 21
0.5443810864
 31
0.0
  0
LINE
  5
20B
330
1F
100
AcDbEntity
  8
0
  6
Continuous
 62
     7
370
    25
100
AcDbLine
 10
1.1307645244
 20
0.9380818738
 30
0.0
 11
1.1307645244
 21
0.5443810864
 31
0.0
  0
LINE
  5
20C
330
1F
100
AcDbEntity
  8
0
  6
Continuous
 62
     7
370
    25
100
AcDbLine
 10
1.2488747607
 20
0.9380818738
 30
0.0
 11
1.1307645244
 21
0.9380818738
 31
0.0
  0
LINE
  5
20D
330
1F
100
AcDbEntity
  8
0
  6
Continuous
 62
     7
370
    25
100
AcDbLine
 10
1.2488747607
 20
0.9380818738
 30
0.0
 11
1.2488747607
 21
1.2924125825
 31
0.0
  0
LINE
  5
20E
330
1F
100
AcDbEntity
  8
0
  6
Continuous
 62
     7
370
    25
100
AcDbLine
 10
1.2488747607
 20
1.2924125825
 30
0.0
 11
1.1307645244
 21
1.2924125825
 31
0.0
  0
LINE
  5
20F
330
1F
100
AcDbEntity
  8
0
  6
Continuous
 62
     7
370
    25
100
AcDbLine
 10
1.1307645244
 20
1.6861133699
 30
0.0
 11
1.1307645244
 21
1.2924125825
 31
0.0
  0
LINE
  5
210
330
1F
100
AcDbEntity
  8
0
  6
Continuous
 62
     7
370
    25
100
AcDbLine
 10
1.2488747607
 20
1.6861133699
 30
0.0
 11
1.1307645244
 21
1.6861133699
 31
0.0
  0
LINE
  5
211
330
1F
100
AcDbEntity
  8
0
  6
Continuous
 62
     7
370
    25
100
AcDbLine
 10
1.2488747607
 20
1.6861133699
 30
0.0
 11
1.2488747607
 21
2.0404440785
 31
0.0
  0
LINE
  5
212
330
1F
100
AcDbEntity
  8
0
  6
Continuous
 62
     7
370
    25
100
AcDbLine
 10
1.2488747607
 20
2.0404440785
 30
0.0
 11
1.1307645244
 21
2.0404440785
 31
0.0
  0
LINE
  5
213
330
1F
100
AcDbEntity
  8
0
  6
Continuous
 62
     7
370
    25
100
AcDbLine
 10
1.1307645244
 20
2.4341448659
 30
0.0
 11
1.1307645244
 21
2.0404440785
 31
0.0
  0
LINE
  5
214
330
1F
100
AcDbEntity
  8
0
  6
Continuous
 62
     7
370
    25
100
AcDbLine
 10
1.2488747607
 20
2.4341448659
 30
0.0
 11
1.1307645244
 21
2.4341448659
 31
0.0
  0
LINE
  5
215
330
1F
100
AcDbEntity
  8
0
  6
Continuous
 62
     7
370
    25
100
AcDbLine
 10
1.2488747607
 20
2.4341448659
 30
0.0
 11
1.2488747607
 21
2.7884755746
 31
0.0
  0
LINE
  5
216
330
1F
100
AcDbEntity
  8
0
  6
Continuous
 62
     7
370
    25
100
AcDbLine
 10
1.2488747607
 20
2.7884755746
 30
0.0
 11
1.1307645244
 21
2.7884755746
 31
0.0
  0
LINE
  5
217
330
1F
100
AcDbEntity
  8
0
  6
Continuous
 62
     7
370
    25
100
AcDbLine
 10
1.1307645244
 20
3.182176362
 30
0.0
 11
1.1307645244
 21
2.7884755746
 31
0.0
  0
LINE
  5
218
330
1F
100
AcDbEntity
  8
0
  6
Continuous
 62
     7
370
    25
100
AcDbLine
 10
1.2488747607
 20
3.182176362
 30
0.0
 11
1.1307645244
 21
3.182176362
 31
0.0
  0
LINE
  5
219
330
1F
100
AcDbEntity
  8
0
  6
Continuous
 62
     7
370
    25
100
AcDbLine
 10
1.2488747607
 20
3.182176362
 30
0.0
 11
1.2488747607
 21
3.5365070706
 31
0.0
  0
LINE
  5
21A
330
1F
100
AcDbEntity
  8
0
  6
Continuous
 62
     7
370
    25
100
AcDbLine
 10
1.2488747607
 20
3.5365070706
 30
0.0
 11
1.1307645244
 21
3.5365070706
 31
0.0
  0
LINE
  5
21B
330
1F
100
AcDbEntity
  8
0
  6
Continuous
 62
     7
370
    25
100
AcDbLine
 10
1.1307645244
 20
3.930207858
 30
0.0
 11
1.1307645244
 21
3.5365070706
 31
0.0
  0
LINE
  5
21C
330
1F
100
AcDbEntity
  8
0
  6
Continuous
 62
     7
370
    25
100
AcDbLine
 10
1.2488747607
 20
3.930207858
 30
0.0
 11
1.1307645244
 21
3.930207858
 31
0.0
  0
LINE
  5
21D
330
1F
100
AcDbEntity
  8
0
  6
Continuous
 62
     7
370
    25
100
AcDbLine
 10
1.2488747607
 20
3.930207858
 30
0.0
 11
1.2488747607
 21
4.2845385667
 31
0.0
  0
LINE
  5
21E
330
1F
100
AcDbEntity
  8
0
  6
Continuous
 62
     7
370
    25
100
AcDbLine
 10
1.2488747607
 20
4.2845385667
 30
0.0
 11
1.1307645244
 21
4.2845385667
 31
0.0
  0
LINE
  5
21F
330
1F
100
AcDbEntity
  8
0
  6
Continuous
 62
     7
370
    25
100
AcDbLine
 10
1.1307645244
 20
4.6782393541
 30
0.0
 11
1.1307645244
 21
4.2845385667
 31
0.0
  0
LINE
  5
220
330
1F
100
AcDbEntity
  8
0
  6
Continuous
 62
     7
370
    25
100
AcDbLine
 10
1.2488747607
 20
4.6782393541
 30
0.0
 11
1.1307645244
 21
4.6782393541
 31
0.0
  0
LINE
  5
221
330
1F
100
AcDbEntity
  8
0
  6
Continuous
 62
     7
370
    25
100
AcDbLine
 10
1.2488747607
 20
4.6782393541
 30
0.0
 11
1.2488747607
 21
5.0325700628
 31
0.0
  0
LINE
  5
222
330
1F
100
AcDbEntity
  8
0
  6
Continuous
 62
     7
370
    25
100
AcDbLine
 10
1.2488747607
 20
5.0325700628
 30
0.0
 11
1.1307645244
 21
5.0325700628
 31
0.0
  0
LINE
  5
223
330
1F
100
AcDbEntity
  8
0
  6
Continuous
 62
     7
370
    25
100
AcDbLine
 10
1.1307645244
 20
5.4262708502
 30
0.0
 11
1.1307645244
 21
5.0325700628
 31
0.0
  0
LINE
  5
224
330
1F
100
AcDbEntity
  8
0
  6
Continuous
 62
     7
370
    25
100
AcDbLine
 10
1.2488747607
 20
5.4262708502
 30
0.0
 11
1.1307645244
 21
5.4262708502
 31
0.0
  0
LINE
  5
225
330
1F
100
AcDbEntity
  8
0
  6
Continuous
 62
     7
370
    25
100
AcDbLine
 10
1.2488747607
 20
5.4262708502
 30
0.0
 11
1.2488747607
 21
5.8199716376
 31
0.0
  0
LINE
  5
226
330
1F
100
AcDbEntity
  8
0
  6
Continuous
 62
     7
370
    25
100
AcDbLine
 10
1.2488747607
 20
5.8199716376
 30
0.0
 11
1.1307645244
 21
5.8199716376
 31
0.0
  0
ARC
  5
227
330
1F
100
AcDbEntity
  8
0
  6
Continuous
 62
     7
370
    25
100
AcDbCircle
 10
7.1857596032
 20
5.8199716376
 30
0.0
 40
6.054995078742626
100
AcDbArc
 50
147.5596126088
 51
180.0
  0
LINE
  5
228
330
1F
100
AcDbEntity
  8
0
  6
Continuous
 62
     7
370
    25
100
AcDbLine
 10
2.0756464142
 20
8.7924125825
 30
0.0
 11
2.0756464142
 21
9.0680031336
 31
0.0
  0
LINE
  5
229
330
1F
100
AcDbEntity
  8
0
  6
Continuous
 62
     7
370
    25
100
AcDbLine
 10
2.1937566504
 20
8.7924125825
 30
0.0
 11
2.0756464142
 21
8.7924125825
 31
0.0
  0
LINE
  5
22A
330
1F
100
AcDbEntity
  8
0
  6
Continuous
 62
     7
370
    25
100
AcDbLine
 10
2.1937566504
 20
8.3199716376
 30
0.0
 11
2.1937566504
 21
8.7924125825
 31
0.0
  0
LINE
  5
22B
330
1F
100
AcDbEntity
  8
0
  6
Continuous
 62
     7
370
    25
100
AcDbLine
 10
2.0756464142
 20
8.3199716376
 30
0.0
 11
2.1937566504
 21
8.3199716376
 31
0.0
  0
LINE
  5
22C
330
1F
100
AcDbEntity
  8
0
  6
Continuous
 62
     7
370
    25
100
AcDbLine
 10
2.0756464142
 20
7.9262708502
 30
0.0
 11
2.0756464142
 21
8.3199716376
 31
0.0
  0
LINE
  5
22D
330
1F
100
AcDbEntity
  8
0
  6
Continuous
 62
     7
370
    25
100
AcDbLine
 10
2.1937566504
 20
7.9262708502
 30
0.0
 11
2.0756464142
 21
7.9262708502
 31
0.0
  0
LINE
  5
22E
330
1F
100
AcDbEntity
  8
0
  6
Continuous
 62
     7
370
    25
100
AcDbLine
 10
2.1937566504
 20
7.4538299053
 30
0.0
 11
2.1937566504
 21
7.9262708502
 31
0.0
  0
LINE
  5
22F
330
1F
100
AcDbEntity
  8
0
  6
Continuous
 62
     7
370
    25
100
AcDbLine
 10
2.0756464142
 20
7.4538299053
 30
0.0
 11
2.1937566504
 21
7.4538299053
 31
0.0
  0
LINE
  5
230
330
1F
100
AcDbEntity
  8
0
  6
Continuous
 62
     7
370
    25
100
AcDbLine
 10
2.0756464142
 20
7.0601291179
 30
0.0
 11
2.0756464142
 21
7.4538299053
 31
0.0
  0
LINE
  5
231
330
1F
100
AcDbEntity
  8
0
  6
Continuous
 62
     7
370
    25
100
AcDbLine
 10
2.1937566504
 20
7.0601291179
 30
0.0
 11
2.0756464142
 21
7.0601291179
 31
0.0
  0
LINE
  5
232
330
1F
100
AcDbEntity
  8
0
  6
Continuous
 62
     7
370
    25
100
AcDbLine
 10
2.1937566504
 20
6.587688173
 30
0.0
 11
2.1937566504
 21
7.0601291179
 31
0.0
  0
LINE
  5
233
330
1F
100
AcDbEntity
  8
0
  6
Continuous
 62
     7
370
    25
100
AcDbLine
 10
2.0756464142
 20
6.587688173
 30
0.0
 11
2.1937566504
 21
6.587688173
 31
0.0
  0
LINE
  5
234
330
1F
100
AcDbEntity
  8
0
  6
Continuous
 62
     7
370
    25
100
AcDbLine
 10
2.0756464142
 20
6.1939873856
 30
0.0
 11
2.0756464142
 21
6.587688173
 31
0.0
  0
LINE
  5
235
330
1F
100
AcDbEntity
  8
0
  6
Continuous
 62
     7
370
    25
100
AcDbLine
 10
2.1937566504
 20
6.1939873856
 30
0.0
 11
2.0756464142
 21
6.1939873856
 31
0.0
  0
LINE
  5
236
330
1F
100
AcDbEntity
  8
0
  6
Continuous
 62
     7
370
    25
100
AcDbLine
 10
2.1937566504
 20
5.7215464407
 30
0.0
 11
2.1937566504
 21
6.1939873856
 31
0.0
  0
LINE
  5
237
330
1F
100
AcDbEntity
  8
0
  6
Continuous
 62
     7
370
    25
100
AcDbLine
 10
2.0756464142
 20
5.7215464407
 30
0.0
 11
2.1937566504
 21
5.7215464407
 31
0.0
  0
LINE
  5
238
330
1F
100
AcDbEntity
  8
0
  6
Continuous
 62
     7
370
    25
100
AcDbLine
 10
2.0756464142
 20
3.5955621888
 30
0.0
 11
2.0756464142
 21
5.7215464407
 31
0.0
  0
LINE
  5
239
330
1F
100
AcDbEntity
  8
0
  6
Continuous
 62
     7
370
    25
100
AcDbLine
 10
2.6661975953
 20
3.5955621888
 30
0.0
 11
2.0756464142
 21
3.5955621888
 31
0.0
  0
LINE
  5
23A
330
1F
100
AcDbEntity
  8
0
  6
Continuous
 62
     7
370
    25
100
AcDbLine
 10
2.6661975953
 20
2.8475306927
 30
0.0
 11
2.6661975953
 21
3.5955621888
 31
0.0
  0
ARC
  5
23B
330
1F
100
AcDbEntity
  8
0
  6
Continuous
 62
     7
370
    25
100
AcDbCircle
 10
2.7055676741
 20
2.8475306927
 30
0.0
 40
0.0393700787401579
100
AcDbArc
 50
180.0
 51
270.0
  0
LINE
  5
23C
330
1F
100
AcDbEntity
  8
0
  6
Continuous
 62
     7
370
    25
100
AcDbLine
 10
3.4142290914
 20
2.8081606139
 30
0.0
 11
2.7055676741
 21
2.8081606139
 31
0.0
  0
ARC
  5
23D
330
1F
100
AcDbEntity
  8
0
  6
Continuous
 62
     7
370
    25
100
AcDbCircle
 10
3.4142290914
 20
2.8475306927
 30
0.0
 40
0.0393700787401574
100
AcDbArc
 50
270.0
 51
0.0
  0
LINE
  5
23E
330
1F
100
AcDbEntity
  8
0
  6
Continuous
 62
     7
370
    25
100
AcDbLine
 10
3.4535991701
 20
3.5955621888
 30
0.0
 11
3.4535991701
 21
2.8475306927
 31
0.0
  0
LINE
  5
23F
330
1F
100
AcDbEntity
  8
0
  6
Continuous
 62
     7
370
    25
100
AcDbLine
 10
4.2410007449
 20
3.5955621888
 30
0.0
 11
3.4535991701
 21
3.5955621888
 31
0.0
  0
LINE
  5
240
330
1F
100
AcDbEntity
  8
0
  6
Continuous
 62
     7
370
    25
100
AcDbLine
 10
4.2410007449
 20
3.713672425
 30
0.0
 11
4.2410007449
 21
3.5955621888
 31
0.0
  0
LINE
  5
241
330
1F
100
AcDbEntity
  8
0
  6
Continuous
 62
     7
370
    25
100
AcDbLine
 10
4.6347015323
 20
3.713672425
 30
0.0
 11
4.2410007449
 21
3.713672425
 31
0.0
  0
LINE
  5
242
330
1F
100
AcDbEntity
  8
0
  6
Continuous
 62
     7
370
    25
100
AcDbLine
 10
4.6347015323
 20
3.5955621888
 30
0.0
 11
4.6347015323
 21
3.713672425
 31
0.0
  0
LINE
  5
243
330
1F
100
AcDbEntity
  8
0
  6
Continuous
 62
     7
370
    25
100
AcDbLine
 10
5.1071424772
 20
3.5955621888
 30
0.0
 11
4.6347015323
 21
3.5955621888
 31
0.0
  0
LINE
  5
244
330
1F
100
AcDbEntity
  8
0
  6
Continuous
 62
     7
370
    25
100
AcDbLine
 10
5.1071424772
 20
3.713672425
 30
0.0
 11
5.1071424772
 21
3.5955621888
 31
0.0
  0
LINE
  5
245
330
1F
100
AcDbEntity
  8
0
  6
Continuous
 62
     7
370
    25
100
AcDbLine
 10
5.1071424772
 20
3.713672425
 30
0.0
 11
5.5008432646
 21
3.713672425
 31
0.0
  0
LINE
  5
246
330
1F
100
AcDbEntity
  8
0
  6
Continuous
 62
     7
370
    25
100
AcDbLine
 10
5.5008432646
 20
3.713672425
 30
0.0
 11
5.5008432646
 21
3.5955621888
 31
0.0
  0
LINE
  5
247
330
1F
100
AcDbEntity
  8
0
  6
Continuous
 62
     7
370
    25
100
AcDbLine
 10
5.9732842095
 20
3.5955621888
 30
0.0
 11
5.5008432646
 21
3.5955621888
 31
0.0
  0
LINE
  5
248
330
1F
100
AcDbEntity
  8
0
  6
Continuous
 62
     7
370
    25
100
AcDbLine
 10
5.9732842095
 20
3.5955621888
 30
0.0
 11
5.9732842095
 21
3.713672425
 31
0.0
  0
LINE
  5
249
330
1F
100
AcDbEntity
  8
0
  6
Continuous
 62
     7
370
    25
100
AcDbLine
 10
5.9732842095
 20
3.713672425
 30
0.0
 11
6.3669849969
 21
3.713672425
 31
0.0
  0
LINE
  5
24A
330
1F
100
AcDbEntity
  8
0
  6
Continuous
 62
     7
370
    25
100
AcDbLine
 10
6.3669849969
 20
3.713672425
 30
0.0
 11
6.3669849969
 21
3.5955621888
 31
0.0
  0
LINE
  5
24B
330
1F
100
AcDbEntity
  8
0
  6
Continuous
 62
     7
370
    25
100
AcDbLine
 10
7.1543865717
 20
3.5955621888
 30
0.0
 11
6.3669849969
 21
3.5955621888
 31
0.0
  0
LINE
  5
24C
330
1F
100
AcDbEntity
  8
0
  6
Continuous
 62
     7
370
    25
100
AcDbLine
 10
7.1543865717
 20
3.5955621888
 30
0.0
 11
7.1543865717
 21
2.8475306927
 31
0.0
  0
ARC
  5
24D
330
1F
100
AcDbEntity
  8
0
  6
Continuous
 62
     7
370
    25
100
AcDbCircle
 10
7.1937566504
 20
2.8475306927
 30
0.0
 40
0.0393700787401574
100
AcDbArc
 50
180.0
 51
270.0
  0
LINE
  5
24E
330
1F
100
AcDbEntity
  8
0
  6
Continuous
 62
     7
370
    25
100
AcDbLine
 10
7.1937566504
 20
2.8081606139
 30
0.0
 11
7.9024180678
 21
2.8081606139
 31
0.0
  0
ARC
  5
24F
330
1F
100
AcDbEntity
  8
0
  6
Continuous
 62
     7
370
    25
100
AcDbCircle
 10
7.9024180678
 20
2.8475306927
 30
0.0
 40
0.0393700787401579
100
AcDbArc
 50
270.0
 51
0.0
  0
LINE
  5
250
330
1F
100
AcDbEntity
  8
0
  6
Continuous
 62
     7
370
    25
100
AcDbLine
 10
7.9417881465
 20
2.8475306927
 30
0.0
 11
7.9417881465
 21
3.5955621888
 31
0.0
  0
LINE
  5
251
330
1F
100
AcDbEntity
  8
0
  6
Continuous
 62
     7
370
    25
100
AcDbLine
 10
8.5323393276
 20
3.5955621888
 30
0.0
 11
7.9417881465
 21
3.5955621888
 31
0.0
  0
LINE
  5
252
330
1F
100
AcDbEntity
  8
0
  6
Continuous
 62
     7
370
    25
100
AcDbLine
 10
8.5323393276
 20
5.7215464407
 30
0.0
 11
8.5323393276
 21
3.5955621888
 31
0.0
  0
LINE
  5
253
330
1F
100
AcDbEntity
  8
0
  6
Continuous
 62
     7
370
    25
100
AcDbLine
 10
8.5323393276
 20
5.7215464407
 30
0.0
 11
8.4142290914
 21
5.7215464407
 31
0.0
  0
LINE
  5
254
330
1F
100
AcDbEntity
  8
0
  6
Continuous
 62
     7
370
    25
100
AcDbLine
 10
8.4142290914
 20
5.7215464407
 30
0.0
 11
8.4142290914
 21
6.1939873856
 31
0.0
  0
LINE
  5
255
330
1F
100
AcDbEntity
  8
0
  6
Continuous
 62
     7
370
    25
100
AcDbLine
 10
8.4142290914
 20
6.1939873856
 30
0.0
 11
8.5323393276
 21
6.1939873856
 31
0.0
  0
LINE
  5
256
330
1F
100
AcDbEntity
  8
0
  6
Continuous
 62
     7
370
    25
100
AcDbLine
 10
8.5323393276
 20
6.587688173
 30
0.0
 11
8.5323393276
 21
6.1939873856
 31
0.0
  0
LINE
  5
257
330
1F
100
AcDbEntity
  8
0
  6
Continuous
 62
     7
370
    25
100
AcDbLine
 10
8.5323393276
 20
6.587688173
 30
0.0
 11
8.4142290914
 21
6.587688173
 31
0.0
  0
LINE
  5
258
330
1F
100
AcDbEntity
  8
0
  6
Continuous
 62
     7
370
    25
100
AcDbLine
 10
8.4142290914
 20
6.587688173
 30
0.0
 11
8.4142290914
 21
7.0601291179
 31
0.0
  0
LINE
  5
259
330
1F
100
AcDbEntity
  8
0
  6
Continuous
 62
     7
370
    25
100
AcDbLine
 10
8.4142290914
 20
7.0601291179
 30
0.0
 11
8.5323393276
 21
7.0601291179
 31
0.0
  0
LINE
  5
25A
330
1F
100
AcDbEntity
  8
0
  6
Continuous
 62
     7
370
    25
100
AcDbLine
 10
8.5323393276
 20
7.4538299053
 30
0.0
 11
8.5323393276
 21
7.0601291179
 31
0.0
  0
LINE
  5
25B
330
1F
100
AcDbEntity
  8
0
  6
Continuous
 62
     7
370
    25
100
AcDbLine
 10
8.5323393276
 20
7.4538299053
 30
0.0
 11
8.4142290914
 21
7.4538299053
 31
0.0
  0
LINE
  5
25C
330
1F
100
AcDbEntity
  8
0
  6
Continuous
 62
     7
370
    25
100
AcDbLine
 10
8.4142290914
 20
7.4538299053
 30
0.0
 11
8.4142290914
 21
7.9262708502
 31
0.0
  0
LINE
  5
25D
330
1F
100
AcDbEntity
  8
0
  6
Continuous
 62
     7
370
    25
100
AcDbLine
 10
8.4142290914
 20
7.9262708502
 30
0.0
 11
8.5323393276
 21
7.9262708502
 31
0.0
  0
LINE
  5
25E
330
1F
100
AcDbEntity
  8
0
  6
Continuous
 62
     7
370
    25
100
AcDbLine
 10
8.5323393276
 20
8.3199716376
 30
0.0
 11
8.5323393276
 21
7.9262708502
 31
0.0
  0
LINE
  5
25F
330
1F
100
AcDbEntity
  8
0
  6
Continuous
 62
     7
370
    25
100
AcDbLine
 10
8.5323393276
 20
8.3199716376
 30
0.0
 11
8.4142290914
 21
8.3199716376
 31
0.0
  0
LINE
  5
260
330
1F
100
AcDbEntity
  8
0
  6
Continuous
 62
     7
370
    25
100
AcDbLine
 10
8.4142290914
 20
8.3199716376
 30
0.0
 11
8.4142290914
 21
8.7924125825
 31
0.0
  0
LINE
  5
261
330
1F
100
AcDbEntity
  8
0
  6
Continuous
 62
     7
370
    25
100
AcDbLine
 10
8.4142290914
 20
8.7924125825
 30
0.0
 11
8.5323393276
 21
8.7924125825
 31
0.0
  0
LINE
  5
262
330
1F
100
AcDbEntity
  8
0
  6
Continuous
 62
     7
370
    25
100
AcDbLine
 10
8.5323393276
 20
9.0680031336
 30
0.0
 11
8.5323393276
 21
8.7924125825
 31
0.0
  0
ARC
  5
263
330
1F
100
AcDbEntity
  8
0
  6
Continuous
 62
     7
370
    25
100
AcDbCircle
 10
3.4222261386
 20
5.8199716376
 30
0.0
 40
6.054995078742615
100
AcDbArc
 50
0.0
 51
32.4403873912
  0
LINE
  5
264
330
1F
100
AcDbEntity
  8
0
  6
Continuous
 62
     7
370
    25
100
AcDbLine
 10
9.3591109811
 20
5.8199716376
 30
0.0
 11
9.4772212174
 21
5.8199716376
 31
0.0
  0
LINE
  5
265
330
1F
100
AcDbEntity
  8
0
  6
Continuous
 62
     7
370
    25
100
AcDbLine
 10
9.3591109811
 20
5.4262708502
 30
0.0
 11
9.3591109811
 21
5.8199716376
 31
0.0
  0
LINE
  5
266
330
1F
100
AcDbEntity
  8
0
  6
Continuous
 62
     7
370
    25
100
AcDbLine
 10
9.3591109811
 20
5.4262708502
 30
0.0
 11
9.4772212174
 21
5.4262708502
 31
0.0
  0
LINE
  5
267
330
1F
100
AcDbEntity
  8
0
  6
Continuous
 62
     7
370
    25
100
AcDbLine
 10
9.4772212174
 20
5.4262708502
 30
0.0
 11
9.4772212174
 21
5.0325700628
 31
0.0
  0
LINE
  5
268
330
1F
100
AcDbEntity
  8
0
  6
Continuous
 62
     7
370
    25
100
AcDbLine
 10
9.3591109811
 20
5.0325700628
 30
0.0
 11
9.4772212174
 21
5.0325700628
 31
0.0
  0
LINE
  5
269
330
1F
100
AcDbEntity
  8
0
  6
Continuous
 62
     7
370
    25
100
AcDbLine
 10
9.3591109811
 20
4.6782393541
 30
0.0
 11
9.3591109811
 21
5.0325700628
 31
0.0
  0
LINE
  5
26A
330
1F
100
AcDbEntity
  8
0
  6
Continuous
 62
     7
370
    25
100
AcDbLine
 10
9.3591109811
 20
4.6782393541
 30
0.0
 11
9.4772212174
 21
4.6782393541
 31
0.0
  0
LINE
  5
26B
330
1F
100
AcDbEntity
  8
0
  6
Continuous
 62
     7
370
    25
100
AcDbLine
 10
9.4772212174
 20
4.6782393541
 30
0.0
 11
9.4772212174
 21
4.2845385667
 31
0.0
  0
LINE
  5
26C
330
1F
100
AcDbEntity
  8
0
  6
Continuous
 62
     7
370
    25
100
AcDbLine
 10
9.3591109811
 20
4.2845385667
 30
0.0
 11
9.4772212174
 21
4.2845385667
 31
0.0
  0
LINE
  5
26D
330
1F
100
AcDbEntity
  8
0
  6
Continuous
 62
     7
370
    25
100
AcDbLine
 10
9.3591109811
 20
3.930207858
 30
0.0
 11
9.3591109811
 21
4.2845385667
 31
0.0
  0
LINE
  5
26E
330
1F
100
AcDbEntity
  8
0
  6
Continuous
 62
     7
370
    25
100
AcDbLine
 10
9.3591109811
 20
3.930207858
 30
0.0
 11
9.4772212174
 21
3.930207858
 31
0.0
  0
LINE
  5
26F
330
1F
100
AcDbEntity
  8
0
  6
Continuous
 62
     7
370
    25
100
AcDbLine
 10
9.4772212174
 20
3.930207858
 30
0.0
 11
9.4772212174
 21
3.5365070706
 31
0.0
  0
LINE
  5
270
330
1F
100
AcDbEntity
  8
0
  6
Continuous
 62
     7
370
    25
100
AcDbLine
 10
9.3591109811
 20
3.5365070706
 30
0.0
 11
9.4772212174
 21
3.5365070706
 31
0.0
  0
LINE
  5
271
330
1F
100
AcDbEntity
  8
0
  6
Continuous
 62
     7
370
    25
100
AcDbLine
 10
9.3591109811
 20
3.182176362
 30
0.0
 11
9.3591109811
 21
3.5365070706
 31
0.0
  0
LINE
  5
272
330
1F
100
AcDbEntity
  8
0
  6
Continuous
 62
     7
370
    25
100
AcDbLine
 10
9.3591109811
 20
3.182176362
 30
0.0
 11
9.4772212174
 21
3.182176362
 31
0.0
  0
LINE
  5
273
330
1F
100
AcDbEntity
  8
0
  6
Continuous
 62
     7
370
    25
100
AcDbLine
 10
9.4772212174
 20
3.182176362
 30
0.0
 11
9.4772212174
 21
2.7884755746
 31
0.0
  0
LINE
  5
274
330
1F
100
AcDbEntity
  8
0
  6
Continuous
 62
     7
370
    25
100
AcDbLine
 10
9.3591109811
 20
2.7884755746
 30
0.0
 11
9.4772212174
 21
2.7884755746
 31
0.0
  0
LINE
  5
275
330
1F
100
AcDbEntity
  8
0
  6
Continuous
 62
     7
370
    25
100
AcDbLine
 10
9.3591109811
 20
2.4341448659
 30
0.0
 11
9.3591109811
 21
2.7884755746
 31
0.0
  0
LINE
  5
276
330
1F
100
AcDbEntity
  8
0
  6
Continuous
 62
     7
370
    25
100
AcDbLine
 10
9.3591109811
 20
2.4341448659
 30
0.0
 11
9.4772212174
 21
2.4341448659
 31
0.0
  0
LINE
  5
277
330
1F
100
AcDbEntity
  8
0
  6
Continuous
 62
     7
370
    25
100
AcDbLine
 10
9.4772212174
 20
2.4341448659
 30
0.0
 11
9.4772212174
 21
2.0404440785
 31
0.0
  0
LINE
  5
278
330
1F
100
AcDbEntity
  8
0
  6
Continuous
 62
     7
370
    25
100
AcDbLine
 10
9.3591109811
 20
2.0404440785
 30
0.0
 11
9.4772212174
 21
2.0404440785
 31
0.0
  0
LINE
  5
279
330
1F
100
AcDbEntity
  8
0
  6
Continuous
 62
     7
370
    25
100
AcDbLine
 10
9.3591109811
 20
1.6861133699
 30
0.0
 11
9.3591109811
 21
2.0404440785
 31
0.0
  0
LINE
  5
27A
330
1F
100
AcDbEntity
  8
0
  6
Continuous
 62
     7
370
    25
100
AcDbLine
 10
9.3591109811
 20
1.6861133699
 30
0.0
 11
9.4772212174
 21
1.6861133699
 31
0.0
  0
LINE
  5
27B
330
1F
100
AcDbEntity
  8
0
  6
Continuous
 62
     7
370
    25
100
AcDbLine
 10
9.4772212174
 20
1.6861133699
 30
0.0
 11
9.4772212174
 21
1.2924125825
 31
0.0
  0
LINE
  5
27C
330
1F
100
AcDbEntity
  8
0
  6
Continuous
 62
     7
370
    25
100
AcDbLine
 10
9.3591109811
 20
1.2924125825
 30
0.0
 11
9.4772212174
 21
1.2924125825
 31
0.0
  0
LINE
  5
27D
330
1F
100
AcDbEntity
  8
0
  6
Continuous
 62
     7
370
    25
100
AcDbLine
 10
9.3591109811
 20
0.9380818738
 30
0.0
 11
9.3591109811
 21
1.2924125825
 31
0.0
  0
LINE
  5
27E
330
1F
100
AcDbEntity
  8
0
  6
Continuous
 62
     7
370
    25
100
AcDbLine
 10
9.3591109811
 20
0.9380818738
 30
0.0
 11
9.4772212174
 21
0.9380818738
 31
0.0
  0
LINE
  5
27F
330
1F
100
AcDbEntity
  8
0
  6
Continuous
 62
     7
370
    25
100
AcDbLine
 10
9.4772212174
 20
0.9380818738
 30
0.0
 11
9.4772212174
 21
0.5443810864
 31
0.0
  0
LINE
  5
280
330
1F
100
AcDbEntity
  8
0
  6
Continuous
 62
     7
370
    25
100
AcDbLine
 10
9.3591109811
 20
0.5443810864
 30
0.0
 11
9.4772212174
 21
0.5443810864
 31
0.0
  0
LINE
  5
281
330
1F
100
AcDbEntity
  8
0
  6
Continuous
 62
     7
370
    25
100
AcDbLine
 10
9.3591109811
 20
0.4065858108
 30
0.0
 11
9.3591109811
 21
0.5443810864
 31
0.0
  0
LINE
  5
282
330
1F
100
AcDbEntity
  8
0
  6
Continuous
 62
     7
370
    25
100
AcDbLine
 10
9.3591109811
 20
0.4065858108
 30
0.0
 11
9.4772212174
 21
0.4065858108
 31
0.0
  0
ARC
  5
283
330
1F
100
AcDbEntity
  8
0
  6
Continuous
 62
     7
370
    25
100
AcDbCircle
 10
8.004127758
 20
2.9656409289
 30
0.0
 40
2.952755905511922
100
AcDbArc
 50
270.0
 51
299.9264348666
  0
LINE
  5
284
330
1F
100
AcDbEntity
  8
0
  6
Continuous
 62
     7
370
    25
100
AcDbLine
 10
8.004127758
 20
0.0128850234
 30
0.0
 11
2.6038579838
 21
0.0128850234
 31
0.0
  0
ARC
  5
285
330
1F
100
AcDbEntity
  8
0
  6
Continuous
 62
     7
370
    25
100
AcDbCircle
 10
2.6038579838
 20
2.9656409289
 30
0.0
 40
2.952755905511811
100
AcDbArc
 50
240.0735651334
 51
270.0
  0
CIRCLE
  5
286
330
1F
100
AcDbEntity
  8
0
  6
Continuous
 62
     7
100
AcDbCircle
 10
13.5759833576
 20
8.6817248663
 30
0.0
 40
0.0669291338582681
  0
CIRCLE
  5
287
330
1F
100
AcDbEntity
  8
0
  6
Continuous
 62
     7
100
AcDbCircle
 10
14.4972432001
 20
8.6817248663
 30
0.0
 40
0.0669291338582669
  0
LINE
  5
288
330
1F
100
AcDbEntity
  8
0
  6
Continuous
 62
     7
100
AcDbLine
 10
14.5602353261
 20
7.7224031954
 30
0.0
 11
14.7570857198
 21
7.7224031954
 31
0.0
  0
LINE
  5
289
330
1F
100
AcDbEntity
  8
0
  6
Continuous
 62
     7
100
AcDbLine
 10
14.5602353261
 20
7.8405134316
 30
0.0
 11
14.5602353261
 21
7.7224031954
 31
0.0
  0
LINE
  5
28A
330
1F
100
AcDbEntity
  8
0
  6
Continuous
 62
     7
100
AcDbLine
 10
14.7570857198
 20
7.8405134316
 30
0.0
 11
14.5602353261
 21
7.8405134316
 31
0.0
  0
LINE
  5
28B
330
1F
100
AcDbEntity
  8
0
  6
Continuous
 62
     7
100
AcDbLine
 10
14.7570857198
 20
7.7224031954
 30
0.0
 11
14.7570857198
 21
7.8405134316
 31
0.0
  0
LINE
  5
28C
330
1F
100
AcDbEntity
  8
0
  6
Continuous
 62
     7
370
    25
100
AcDbLine
 10
13.81220383
 20
4.5531118568
 30
0.0
 11
13.81220383
 21
4.6712220931
 31
0.0
  0
LINE
  5
28D
330
1F
100
AcDbEntity
  8
0
  6
Continuous
 62
     7
370
    25
100
AcDbLine
 10
13.3397628851
 20
4.6712220931
 30
0.0
 11
13.81220383
 21
4.6712220931
 31
0.0
  0
LINE
  5
28E
330
1F
100
AcDbEntity
  8
0
  6
Continuous
 62
     7
370
    25
100
AcDbLine
 10
13.3397628851
 20
4.5531118568
 30
0.0
 11
13.3397628851
 21
4.6712220931
 31
0.0
  0
LINE
  5
28F
330
1F
100
AcDbEntity
  8
0
  6
Continuous
 62
     7
370
    25
100
AcDbLine
 10
13.3397628851
 20
4.5531118568
 30
0.0
 11
13.81220383
 21
4.5531118568
 31
0.0
  0
LINE
  5
290
330
1F
100
AcDbEntity
  8
0
  6
Continuous
 62
     7
370
    25
100
AcDbLine
 10
12.9460620977
 20
4.5531118568
 30
0.0
 11
12.9460620977
 21
4.6712220931
 31
0.0
  0
LINE
  5
291
330
1F
100
AcDbEntity
  8
0
  6
Continuous
 62
     7
370
    25
100
AcDbLine
 10
12.4736211528
 20
4.6712220931
 30
0.0
 11
12.9460620977
 21
4.6712220931
 31
0.0
  0
LINE
  5
292
330
1F
100
AcDbEntity
  8
0
  6
Continuous
 62
     7
370
    25
100
AcDbLine
 10
12.4736211528
 20
4.5531118568
 30
0.0
 11
12.4736211528
 21
4.6712220931
 31
0.0
  0
LINE
  5
293
330
1F
100
AcDbEntity
  8
0
  6
Continuous
 62
     7
370
    25
100
AcDbLine
 10
12.4736211528
 20
4.5531118568
 30
0.0
 11
12.9460620977
 21
4.5531118568
 31
0.0
  0
LINE
  5
294
330
1F
100
AcDbEntity
  8
0
  6
Continuous
 62
     7
370
    25
100
AcDbLine
 10
12.0799203654
 20
4.5531118568
 30
0.0
 11
12.0799203654
 21
4.6712220931
 31
0.0
  0
LINE
  5
295
330
1F
100
AcDbEntity
  8
0
  6
Continuous
 62
     7
370
    25
100
AcDbLine
 10
11.6074794205
 20
4.6712220931
 30
0.0
 11
12.0799203654
 21
4.6712220931
 31
0.0
  0
LINE
  5
296
330
1F
100
AcDbEntity
  8
0
  6
Continuous
 62
     7
370
    25
100
AcDbLine
 10
11.6074794205
 20
4.5531118568
 30
0.0
 11
11.6074794205
 21
4.6712220931
 31
0.0
  0
LINE
  5
297
330
1F
100
AcDbEntity
  8
0
  6
Continuous
 62
     7
370
    25
100
AcDbLine
 10
11.6074794205
 20
4.5531118568
 30
0.0
 11
12.0799203654
 21
4.5531118568
 31
0.0
  0
LINE
  5
298
330
1F
100
AcDbEntity
  8
0
  6
Continuous
 62
     7
370
    25
100
AcDbLine
 10
9.4814951686
 20
4.986182723
 30
0.0
 11
9.4814951686
 21
4.5531118568
 31
0.0
  0
LINE
  5
299
330
1F
100
AcDbEntity
  8
0
  6
Continuous
 62
     7
370
    25
100
AcDbLine
 10
9.4814951686
 20
4.986182723
 30
0.0
 11
9.5996054048
 21
4.986182723
 31
0.0
  0
LINE
  5
29A
330
1F
100
AcDbEntity
  8
0
  6
Continuous
 62
     7
370
    25
100
AcDbLine
 10
9.5996054048
 20
4.986182723
 30
0.0
 11
9.5996054048
 21
5.3798835104
 31
0.0
  0
LINE
  5
29B
330
1F
100
AcDbEntity
  8
0
  6
Continuous
 62
     7
370
    25
100
AcDbLine
 10
9.4814951686
 20
5.3798835104
 30
0.0
 11
9.5996054048
 21
5.3798835104
 31
0.0
  0
LINE
  5
29C
330
1F
100
AcDbEntity
  8
0
  6
Continuous
 62
     7
370
    25
100
AcDbLine
 10
9.4814951686
 20
5.8523244553
 30
0.0
 11
9.5996054048
 21
5.8523244553
 31
0.0
  0
LINE
  5
29D
330
1F
100
AcDbEntity
  8
0
  6
Continuous
 62
     7
370
    25
100
AcDbLine
 10
9.5996054048
 20
5.8523244553
 30
0.0
 11
9.5996054048
 21
6.2460252427
 31
0.0
  0
LINE
  5
29E
330
1F
100
AcDbEntity
  8
0
  6
Continuous
 62
     7
370
    25
100
AcDbLine
 10
9.4814951686
 20
6.2460252427
 30
0.0
 11
9.5996054048
 21
6.2460252427
 31
0.0
  0
LINE
  5
29F
330
1F
100
AcDbEntity
  8
0
  6
Continuous
 62
     7
370
    25
100
AcDbLine
 10
9.4814951686
 20
6.7184661875
 30
0.0
 11
9.5996054048
 21
6.7184661875
 31
0.0
  0
LINE
  5
2A0
330
1F
100
AcDbEntity
  8
0
  6
Continuous
 62
     7
370
    25
100
AcDbLine
 10
9.5996054048
 20
6.7184661875
 30
0.0
 11
9.5996054048
 21
7.1121669749
 31
0.0
  0
LINE
  5
2A1
330
1F
100
AcDbEntity
  8
0
  6
Continuous
 62
     7
370
    25
100
AcDbLine
 10
9.4814951686
 20
7.1121669749
 30
0.0
 11
9.5996054048
 21
7.1121669749
 31
0.0
  0
LINE
  5
2A2
330
1F
100
AcDbEntity
  8
0
  6
Continuous
 62
     7
370
    25
100
AcDbLine
 10
9.4814951686
 20
7.5846079198
 30
0.0
 11
9.5996054048
 21
7.5846079198
 31
0.0
  0
LINE
  5
2A3
330
1F
100
AcDbEntity
  8
0
  6
Continuous
 62
     7
370
    25
100
AcDbLine
 10
9.5996054048
 20
7.5846079198
 30
0.0
 11
9.5996054048
 21
7.9783087072
 31
0.0
  0
LINE
  5
2A4
330
1F
100
AcDbEntity
  8
0
  6
Continuous
 62
     7
370
    25
100
AcDbLine
 10
9.4814951686
 20
7.9783087072
 30
0.0
 11
9.5996054048
 21
7.9783087072
 31
0.0
  0
LINE
  5
2A5
330
1F
100
AcDbEntity
  8
0
  6
Continuous
 62
     7
370
    25
100
AcDbLine
 10
9.4814951686
 20
8.4507496521
 30
0.0
 11
9.5996054048
 21
8.4507496521
 31
0.0
  0
LINE
  5
2A6
330
1F
100
AcDbEntity
  8
0
  6
Continuous
 62
     7
370
    25
100
AcDbLine
 10
9.5996054048
 20
8.4507496521
 30
0.0
 11
9.5996054048
 21
8.8444504395
 31
0.0
  0
LINE
  5
2A7
330
1F
100
AcDbEntity
  8
0
  6
Continuous
 62
     7
370
    25
100
AcDbLine
 10
9.4814951686
 20
8.8444504395
 30
0.0
 11
9.5996054048
 21
8.8444504395
 31
0.0
  0
LINE
  5
2A8
330
1F
100
AcDbEntity
  8
0
  6
Continuous
 62
     7
370
    25
100
AcDbLine
 10
9.4814951686
 20
9.3168913844
 30
0.0
 11
9.5996054048
 21
9.3168913844
 31
0.0
  0
LINE
  5
2A9
330
1F
100
AcDbEntity
  8
0
  6
Continuous
 62
     7
370
    25
100
AcDbLine
 10
9.5996054048
 20
9.3168913844
 30
0.0
 11
9.5996054048
 21
9.7105921718
 31
0.0
  0
LINE
  5
2AA
330
1F
100
AcDbEntity
  8
0
  6
Continuous
 62
     7
370
    25
100
AcDbLine
 10
9.4814951686
 20
9.7105921718
 30
0.0
 11
9.5996054048
 21
9.7105921718
 31
0.0
  0
LINE
  5
2AB
330
1F
100
AcDbEntity
  8
0
  6
Continuous
 62
     7
370
    25
100
AcDbLine
 10
9.4814951686
 20
10.1830331167
 30
0.0
 11
9.5996054048
 21
10.1830331167
 31
0.0
  0
LINE
  5
2AC
330
1F
100
AcDbEntity
  8
0
  6
Continuous
 62
     7
370
    25
100
AcDbLine
 10
9.5996054048
 20
10.1830331167
 30
0.0
 11
9.5996054048
 21
10.5767339041
 31
0.0
  0
LINE
  5
2AD
330
1F
100
AcDbEntity
  8
0
  6
Continuous
 62
     7
370
    25
100
AcDbLine
 10
9.4814951686
 20
10.5767339041
 30
0.0
 11
9.5996054048
 21
10.5767339041
 31
0.0
  0
LINE
  5
2AE
330
1F
100
AcDbEntity
  8
0
  6
Continuous
 62
     7
370
    25
100
AcDbLine
 10
9.875195956
 20
11.0098047702
 30
0.0
 11
9.4814951686
 21
11.0098047702
 31
0.0
  0
LINE
  5
2AF
330
1F
100
AcDbEntity
  8
0
  6
Continuous
 62
     7
370
    25
100
AcDbLine
 10
9.875195956
 20
11.0098047702
 30
0.0
 11
9.875195956
 21
10.891694534
 31
0.0
  0
LINE
  5
2B0
330
1F
100
AcDbEntity
  8
0
  6
Continuous
 62
     7
370
    25
100
AcDbLine
 10
9.875195956
 20
10.891694534
 30
0.0
 11
10.3476369009
 21
10.891694534
 31
0.0
  0
LINE
  5
2B1
330
1F
100
AcDbEntity
  8
0
  6
Continuous
 62
     7
370
    25
100
AcDbLine
 10
10.3476369009
 20
11.0098047702
 30
0.0
 11
10.3476369009
 21
10.891694534
 31
0.0
  0
LINE
  5
2B2
330
1F
100
AcDbEntity
  8
0
  6
Continuous
 62
     7
370
    25
100
AcDbLine
 10
10.4854321765
 20
11.2696472899
 30
0.0
 11
10.4854321765
 21
11.0098047702
 31
0.0
  0
LINE
  5
2B3
330
1F
100
AcDbEntity
  8
0
  6
Continuous
 62
     7
370
    25
100
AcDbLine
 10
10.3673219402
 20
11.2696472899
 30
0.0
 11
10.4854321765
 21
11.2696472899
 31
0.0
  0
LINE
  5
2B4
330
1F
100
AcDbEntity
  8
0
  6
Continuous
 62
     7
370
    25
100
AcDbLine
 10
10.3673219402
 20
11.4664976836
 30
0.0
 11
10.3673219402
 21
11.2696472899
 31
0.0
  0
LINE
  5
2B5
330
1F
100
AcDbEntity
  8
0
  6
Continuous
 62
     7
370
    25
100
AcDbLine
 10
10.4854321765
 20
11.4664976836
 30
0.0
 11
10.3673219402
 21
11.4664976836
 31
0.0
  0
LINE
  5
2B6
330
1F
100
AcDbEntity
  8
0
  6
Continuous
 62
     7
370
    25
100
AcDbLine
 10
10.4854321765
 20
11.6633480773
 30
0.0
 11
10.4854321765
 21
11.4664976836
 31
0.0
  0
LINE
  5
2B7
330
1F
100
AcDbEntity
  8
0
  6
Continuous
 62
     7
370
    25
100
AcDbLine
 10
10.5099556213
 20
11.6633480773
 30
0.0
 11
10.4854321765
 21
11.6633480773
 31
0.0
  0
ARC
  5
2B8
330
1F
100
AcDbEntity
  8
0
  6
Continuous
 62
     7
370
    25
100
AcDbCircle
 10
10.5099556213
 20
-3.7725696732
 30
0.0
 40
15.4359177505572
100
AcDbArc
 50
73.2678046268
 51
90.0
  0
LINE
  5
2B9
330
1F
100
AcDbEntity
  8
0
  6
Continuous
 62
     7
370
    25
100
AcDbLine
 10
14.9539361135
 20
4.5531118568
 30
0.0
 11
14.9539361135
 21
11.0098047702
 31
0.0
  0
ARC
  5
2BA
330
1F
100
AcDbEntity
  8
0
  6
Continuous
 62
     7
370
    25
100
AcDbCircle
 10
10.5099556213
 20
19.3354863003
 30
0.0
 40
15.4359177505572
100
AcDbArc
 50
270.0
 51
286.7321953732
  0
LINE
  5
2BB
330
1F
100
AcDbEntity
  8
0
  6
Continuous
 62
     7
370
    25
100
AcDbLine
 10
10.4854321765
 20
3.8995685498
 30
0.0
 11
10.5099556213
 21
3.8995685498
 31
0.0
  0
LINE
  5
2BC
330
1F
100
AcDbEntity
  8
0
  6
Continuous
 62
     7
370
    25
100
AcDbLine
 10
10.4854321765
 20
4.0964189435
 30
0.0
 11
10.4854321765
 21
3.8995685498
 31
0.0
  0
LINE
  5
2BD
330
1F
100
AcDbEntity
  8
0
  6
Continuous
 62
     7
370
    25
100
AcDbLine
 10
10.3673219402
 20
4.0964189435
 30
0.0
 11
10.4854321765
 21
4.0964189435
 31
0.0
  0
LINE
  5
2BE
330
1F
100
AcDbEntity
  8
0
  6
Continuous
 62
     7
370
    25
100
AcDbLine
 10
10.3673219402
 20
4.2932693372
 30
0.0
 11
10.3673219402
 21
4.0964189435
 31
0.0
  0
LINE
  5
2BF
330
1F
100
AcDbEntity
  8
0
  6
Continuous
 62
     7
370
    25
100
AcDbLine
 10
10.4854321765
 20
4.2932693372
 30
0.0
 11
10.3673219402
 21
4.2932693372
 31
0.0
  0
LINE
  5
2C0
330
1F
100
AcDbEntity
  8
0
  6
Continuous
 62
     7
370
    25
100
AcDbLine
 10
10.4854321765
 20
4.5531118568
 30
0.0
 11
10.4854321765
 21
4.2932693372
 31
0.0
  0
LINE
  5
2C1
330
1F
100
AcDbEntity
  8
0
  6
Continuous
 62
     7
370
    25
100
AcDbLine
 10
10.3476369009
 20
4.5531118568
 30
0.0
 11
10.4854321765
 21
4.5531118568
 31
0.0
  0
LINE
  5
2C2
330
1F
100
AcDbEntity
  8
0
  6
Continuous
 62
     7
370
    25
100
AcDbLine
 10
10.3476369009
 20
4.5531118568
 30
0.0
 11
10.3476369009
 21
4.6712220931
 31
0.0
  0
LINE
  5
2C3
330
1F
100
AcDbEntity
  8
0
  6
Continuous
 62
     7
370
    25
100
AcDbLine
 10
9.875195956
 20
4.6712220931
 30
0.0
 11
10.3476369009
 21
4.6712220931
 31
0.0
  0
LINE
  5
2C4
330
1F
100
AcDbEntity
  8
0
  6
Continuous
 62
     7
370
    25
100
AcDbLine
 10
9.875195956
 20
4.5531118568
 30
0.0
 11
9.875195956
 21
4.6712220931
 31
0.0
  0
LINE
  5
2C5
330
1F
100
AcDbEntity
  8
0
  6
Continuous
 62
     7
370
    25
100
AcDbLine
 10
14.2059046174
 20
10.891694534
 30
0.0
 11
14.6783455623
 21
10.891694534
 31
0.0
  0
LINE
  5
2C6
330
1F
100
AcDbEntity
  8
0
  6
Continuous
 62
     7
370
    25
100
AcDbLine
 10
14.6783455623
 20
11.0098047702
 30
0.0
 11
14.6783455623
 21
10.891694534
 31
0.0
  0
LINE
  5
2C7
330
1F
100
AcDbEntity
  8
0
  6
Continuous
 62
     7
370
    25
100
AcDbLine
 10
14.2059046174
 20
11.0098047702
 30
0.0
 11
14.6783455623
 21
11.0098047702
 31
0.0
  0
LINE
  5
2C8
330
1F
100
AcDbEntity
  8
0
  6
Continuous
 62
     7
370
    25
100
AcDbLine
 10
14.2059046174
 20
11.0098047702
 30
0.0
 11
14.2059046174
 21
10.891694534
 31
0.0
  0
LINE
  5
2C9
330
1F
100
AcDbEntity
  8
0
  6
Continuous
 62
     7
370
    25
100
AcDbLine
 10
13.3397628851
 20
10.891694534
 30
0.0
 11
13.81220383
 21
10.891694534
 31
0.0
  0
LINE
  5
2CA
330
1F
100
AcDbEntity
  8
0
  6
Continuous
 62
     7
370
    25
100
AcDbLine
 10
13.81220383
 20
11.0098047702
 30
0.0
 11
13.81220383
 21
10.891694534
 31
0.0
  0
LINE
  5
2CB
330
1F
100
AcDbEntity
  8
0
  6
Continuous
 62
     7
370
    25
100
AcDbLine
 10
13.3397628851
 20
11.0098047702
 30
0.0
 11
13.81220383
 21
11.0098047702
 31
0.0
  0
LINE
  5
2CC
330
1F
100
AcDbEntity
  8
0
  6
Continuous
 62
     7
370
    25
100
AcDbLine
 10
13.3397628851
 20
11.0098047702
 30
0.0
 11
13.3397628851
 21
10.891694534
 31
0.0
  0
LINE
  5
2CD
330
1F
100
AcDbEntity
  8
0
  6
Continuous
 62
     7
370
    25
100
AcDbLine
 10
12.4736211528
 20
10.891694534
 30
0.0
 11
12.9460620977
 21
10.891694534
 31
0.0
  0
LINE
  5
2CE
330
1F
100
AcDbEntity
  8
0
  6
Continuous
 62
     7
370
    25
100
AcDbLine
 10
12.9460620977
 20
11.0098047702
 30
0.0
 11
12.9460620977
 21
10.891694534
 31
0.0
  0
LINE
  5
2CF
330
1F
100
AcDbEntity
  8
0
  6
Continuous
 62
     7
370
    25
100
AcDbLine
 10
12.4736211528
 20
11.0098047702
 30
0.0
 11
12.9460620977
 21
11.0098047702
 31
0.0
  0
LINE
  5
2D0
330
1F
100
AcDbEntity
  8
0
  6
Continuous
 62
     7
370
    25
100
AcDbLine
 10
12.4736211528
 20
11.0098047702
 30
0.0
 11
12.4736211528
 21
10.891694534
 31
0.0
  0
LINE
  5
2D1
330
1F
100
AcDbEntity
  8
0
  6
Continuous
 62
     7
370
    25
100
AcDbLine
 10
11.6074794205
 20
10.891694534
 30
0.0
 11
12.0799203654
 21
10.891694534
 31
0.0
  0
LINE
  5
2D2
330
1F
100
AcDbEntity
  8
0
  6
Continuous
 62
     7
370
    25
100
AcDbLine
 10
12.0799203654
 20
11.0098047702
 30
0.0
 11
12.0799203654
 21
10.891694534
 31
0.0
  0
LINE
  5
2D3
330
1F
100
AcDbEntity
  8
0
  6
Continuous
 62
     7
370
    25
100
AcDbLine
 10
11.6074794205
 20
11.0098047702
 30
0.0
 11
12.0799203654
 21
11.0098047702
 31
0.0
  0
LINE
  5
2D4
330
1F
100
AcDbEntity
  8
0
  6
Continuous
 62
     7
370
    25
100
AcDbLine
 10
11.6074794205
 20
11.0098047702
 30
0.0
 11
11.6074794205
 21
10.891694534
 31
0.0
  0
LINE
  5
2D5
330
1F
100
AcDbEntity
  8
0
  6
Continuous
 62
     7
370
    25
100
AcDbLine
 10
14.6783455623
 20
4.5531118568
 30
0.0
 11
14.6783455623
 21
4.6712220931
 31
0.0
  0
LINE
  5
2D6
330
1F
100
AcDbEntity
  8
0
  6
Continuous
 62
     7
370
    25
100
AcDbLine
 10
14.2059046174
 20
4.6712220931
 30
0.0
 11
14.6783455623
 21
4.6712220931
 31
0.0
  0
LINE
  5
2D7
330
1F
100
AcDbEntity
  8
0
  6
Continuous
 62
     7
370
    25
100
AcDbLine
 10
14.2059046174
 20
4.5531118568
 30
0.0
 11
14.2059046174
 21
4.6712220931
 31
0.0
  0
LINE
  5
2D8
330
1F
100
AcDbEntity
  8
0
  6
Continuous
 62
     7
370
    25
100
AcDbLine
 10
14.2059046174
 20
4.5531118568
 30
0.0
 11
14.6783455623
 21
4.5531118568
 31
0.0
  0
LINE
  5
2D9
330
1F
100
AcDbEntity
  8
0
  6
Continuous
 62
     7
370
    25
100
AcDbLine
 10
11.2137786331
 20
4.5531118568
 30
0.0
 11
11.2137786331
 21
4.6712220931
 31
0.0
  0
LINE
  5
2DA
330
1F
100
AcDbEntity
  8
0
  6
Continuous
 62
     7
370
    25
100
AcDbLine
 10
10.7413376883
 20
4.6712220931
 30
0.0
 11
11.2137786331
 21
4.6712220931
 31
0.0
  0
LINE
  5
2DB
330
1F
100
AcDbEntity
  8
0
  6
Continuous
 62
     7
370
    25
100
AcDbLine
 10
10.7413376883
 20
4.5531118568
 30
0.0
 11
10.7413376883
 21
4.6712220931
 31
0.0
  0
LINE
  5
2DC
330
1F
100
AcDbEntity
  8
0
  6
Continuous
 62
     7
370
    25
100
AcDbLine
 10
10.7413376883
 20
4.5531118568
 30
0.0
 11
11.2137786331
 21
4.5531118568
 31
0.0
  0
LINE
  5
2DD
330
1F
100
AcDbEntity
  8
0
  6
Continuous
 62
     7
370
    25
100
AcDbLine
 10
10.7413376883
 20
10.891694534
 30
0.0
 11
11.2137786331
 21
10.891694534
 31
0.0
  0
LINE
  5
2DE
330
1F
100
AcDbEntity
  8
0
  6
Continuous
 62
     7
370
    25
100
AcDbLine
 10
11.2137786331
 20
11.0098047702
 30
0.0
 11
11.2137786331
 21
10.891694534
 31
0.0
  0
LINE
  5
2DF
330
1F
100
AcDbEntity
  8
0
  6
Continuous
 62
     7
370
    25
100
AcDbLine
 10
10.7413376883
 20
11.0098047702
 30
0.0
 11
11.2137786331
 21
11.0098047702
 31
0.0
  0
LINE
  5
2E0
330
1F
100
AcDbEntity
  8
0
  6
Continuous
 62
     7
370
    25
100
AcDbLine
 10
10.7413376883
 20
11.0098047702
 30
0.0
 11
10.7413376883
 21
10.891694534
 31
0.0
  0
LINE
  5
2E1
330
1F
100
AcDbEntity
  8
0
  6
Continuous
 62
     7
370
    25
100
AcDbLine
 10
10.3870069796
 20
10.281794125
 30
0.0
 11
9.9933061922
 21
10.0544908694
 31
0.0
  0
LINE
  5
2E2
330
1F
100
AcDbEntity
  8
0
  6
Continuous
 62
     7
370
    25
100
AcDbLine
 10
9.9933061922
 20
10.0544908694
 30
0.0
 11
9.9933061922
 21
9.5998843582
 31
0.0
  0
LINE
  5
2E3
330
1F
100
AcDbEntity
  8
0
  6
Continuous
 62
     7
370
    25
100
AcDbLine
 10
9.9933061922
 20
9.5998843582
 30
0.0
 11
10.3870069796
 21
9.3725811026
 31
0.0
  0
LINE
  5
2E4
330
1F
100
AcDbEntity
  8
0
  6
Continuous
 62
     7
370
    25
100
AcDbLine
 10
10.3870069796
 20
9.3725811026
 30
0.0
 11
10.780707767
 21
9.5998843582
 31
0.0
  0
LINE
  5
2E5
330
1F
100
AcDbEntity
  8
0
  6
Continuous
 62
     7
370
    25
100
AcDbLine
 10
10.780707767
 20
9.5998843582
 30
0.0
 11
10.780707767
 21
10.0544908694
 31
0.0
  0
LINE
  5
2E6
330
1F
100
AcDbEntity
  8
0
  6
Continuous
 62
     7
370
    25
100
AcDbLine
 10
10.780707767
 20
10.0544908694
 30
0.0
 11
10.3870069796
 21
10.281794125
 31
0.0
  0
LINE
  5
2E7
330
1F
100
AcDbEntity
  8
0
  6
Continuous
 62
     7
370
    25
100
AcDbLine
 10
13.9303140662
 20
6.1903955334
 30
0.0
 11
13.5366132788
 21
5.9630922778
 31
0.0
  0
LINE
  5
2E8
330
1F
100
AcDbEntity
  8
0
  6
Continuous
 62
     7
370
    25
100
AcDbLine
 10
13.5366132788
 20
5.9630922778
 30
0.0
 11
13.5366132788
 21
5.5084857666
 31
0.0
  0
LINE
  5
2E9
330
1F
100
AcDbEntity
  8
0
  6
Continuous
 62
     7
370
    25
100
AcDbLine
 10
13.5366132788
 20
5.5084857666
 30
0.0
 11
13.9303140662
 21
5.281182511
 31
0.0
  0
LINE
  5
2EA
330
1F
100
AcDbEntity
  8
0
  6
Continuous
 62
     7
370
    25
100
AcDbLine
 10
13.9303140662
 20
5.281182511
 30
0.0
 11
14.3240148536
 21
5.5084857666
 31
0.0
  0
LINE
  5
2EB
330
1F
100
AcDbEntity
  8
0
  6
Continuous
 62
     7
370
    25
100
AcDbLine
 10
14.3240148536
 20
5.5084857666
 30
0.0
 11
14.3240148536
 21
5.9630922778
 31
0.0
  0
LINE
  5
2EC
330
1F
100
AcDbEntity
  8
0
  6
Continuous
 62
     7
370
    25
100
AcDbLine
 10
14.3240148536
 20
5.9630922778
 30
0.0
 11
13.9303140662
 21
6.1903955334
 31
0.0
  0
LINE
  5
2ED
330
1F
100
AcDbEntity
  8
0
  6
Continuous
 62
     7
370
    25
100
AcDbLine
 10
12.749211704
 20
6.1903955334
 30
0.0
 11
12.3555109166
 21
5.9630922778
 31
0.0
  0
LINE
  5
2EE
330
1F
100
AcDbEntity
  8
0
  6
Continuous
 62
     7
370
    25
100
AcDbLine
 10
12.3555109166
 20
5.9630922778
 30
0.0
 11
12.3555109166
 21
5.5084857666
 31
0.0
  0
LINE
  5
2EF
330
1F
100
AcDbEntity
  8
0
  6
Continuous
 62
     7
370
    25
100
AcDbLine
 10
12.3555109166
 20
5.5084857666
 30
0.0
 11
12.749211704
 21
5.281182511
 31
0.0
  0
LINE
  5
2F0
330
1F
100
AcDbEntity
  8
0
  6
Continuous
 62
     7
370
    25
100
AcDbLine
 10
12.749211704
 20
5.281182511
 30
0.0
 11
13.1429124914
 21
5.5084857666
 31
0.0
  0
LINE
  5
2F1
330
1F
100
AcDbEntity
  8
0
  6
Continuous
 62
     7
370
    25
100
AcDbLine
 10
13.1429124914
 20
5.5084857666
 30
0.0
 11
13.1429124914
 21
5.9630922778
 31
0.0
  0
LINE
  5
2F2
330
1F
100
AcDbEntity
  8
0
  6
Continuous
 62
     7
370
    25
100
AcDbLine
 10
13.1429124914
 20
5.9630922778
 30
0.0
 11
12.749211704
 21
6.1903955334
 31
0.0
  0
LINE
  5
2F3
330
1F
100
AcDbEntity
  8
0
  6
Continuous
 62
     7
370
    25
100
AcDbLine
 10
11.7649597355
 20
6.985896919
 30
0.0
 11
11.7649597355
 21
6.5312904078
 31
0.0
  0
LINE
  5
2F4
330
1F
100
AcDbEntity
  8
0
  6
Continuous
 62
     7
370
    25
100
AcDbLine
 10
11.7649597355
 20
6.5312904078
 30
0.0
 11
12.1586605229
 21
6.3039871522
 31
0.0
  0
LINE
  5
2F5
330
1F
100
AcDbEntity
  8
0
  6
Continuous
 62
     7
370
    25
100
AcDbLine
 10
12.1586605229
 20
6.3039871522
 30
0.0
 11
12.5523613103
 21
6.5312904078
 31
0.0
  0
LINE
  5
2F6
330
1F
100
AcDbEntity
  8
0
  6
Continuous
 62
     7
370
    25
100
AcDbLine
 10
12.5523613103
 20
6.5312904078
 30
0.0
 11
12.5523613103
 21
6.985896919
 31
0.0
  0
LINE
  5
2F7
330
1F
100
AcDbEntity
  8
0
  6
Continuous
 62
     7
370
    25
100
AcDbLine
 10
12.5523613103
 20
6.985896919
 30
0.0
 11
12.1586605229
 21
7.2132001746
 31
0.0
  0
LINE
  5
2F8
330
1F
100
AcDbEntity
  8
0
  6
Continuous
 62
     7
370
    25
100
AcDbLine
 10
12.1586605229
 20
7.2132001746
 30
0.0
 11
11.7649597355
 21
6.985896919
 31
0.0
  0
LINE
  5
2F9
330
1F
100
AcDbEntity
  8
0
  6
Continuous
 62
     7
370
    25
100
AcDbLine
 10
12.749211704
 20
10.281794125
 30
0.0
 11
12.3555109166
 21
10.0544908694
 31
0.0
  0
LINE
  5
2FA
330
1F
100
AcDbEntity
  8
0
  6
Continuous
 62
     7
370
    25
100
AcDbLine
 10
12.3555109166
 20
10.0544908694
 30
0.0
 11
12.3555109166
 21
9.5998843582
 31
0.0
  0
LINE
  5
2FB
330
1F
100
AcDbEntity
  8
0
  6
Continuous
 62
     7
370
    25
100
AcDbLine
 10
12.3555109166
 20
9.5998843582
 30
0.0
 11
12.749211704
 21
9.3725811026
 31
0.0
  0
LINE
  5
2FC
330
1F
100
AcDbEntity
  8
0
  6
Continuous
 62
     7
370
    25
100
AcDbLine
 10
12.749211704
 20
9.3725811026
 30
0.0
 11
13.1429124914
 21
9.5998843582
 31
0.0
  0
LINE
  5
2FD
330
1F
100
AcDbEntity
  8
0
  6
Continuous
 62
     7
370
    25
100
AcDbLine
 10
13.1429124914
 20
9.5998843582
 30
0.0
 11
13.1429124914
 21
10.0544908694
 31
0.0
  0
LINE
  5
2FE
330
1F
100
AcDbEntity
  8
0
  6
Continuous
 62
     7
370
    25
100
AcDbLine
 10
13.1429124914
 20
10.0544908694
 30
0.0
 11
12.749211704
 21
10.281794125
 31
0.0
  0
LINE
  5
2FF
330
1F
100
AcDbEntity
  8
0
  6
Continuous
 62
     7
370
    25
100
AcDbLine
 10
12.9460620977
 20
9.0316262193
 30
0.0
 11
12.9460620977
 21
8.5770197081
 31
0.0
  0
LINE
  5
300
330
1F
100
AcDbEntity
  8
0
  6
Continuous
 62
     7
370
    25
100
AcDbLine
 10
12.9460620977
 20
8.5770197081
 30
0.0
 11
13.3397628851
 21
8.3497164525
 31
0.0
  0
LINE
  5
301
330
1F
100
AcDbEntity
  8
0
  6
Continuous
 62
     7
370
    25
100
AcDbLine
 10
13.3397628851
 20
8.3497164525
 30
0.0
 11
13.3397628851
 21
9.2589294748
 31
0.0
  0
LINE
  5
302
330
1F
100
AcDbEntity
  8
0
  6
Continuous
 62
     7
370
    25
100
AcDbLine
 10
13.3397628851
 20
9.2589294748
 30
0.0
 11
12.9460620977
 21
9.0316262193
 31
0.0
  0
LINE
  5
303
330
1F
100
AcDbEntity
  8
0
  6
Continuous
 62
     7
370
    25
100
AcDbLine
 10
14.7570857198
 20
7.7224031954
 30
0.0
 11
14.7570857198
 21
7.8405134316
 31
0.0
  0
LINE
  5
304
330
1F
100
AcDbEntity
  8
0
  6
Continuous
 62
     7
370
    25
100
AcDbLine
 10
14.7570857198
 20
7.8405134316
 30
0.0
 11
14.5602353261
 21
7.8405134316
 31
0.0
  0
LINE
  5
305
330
1F
100
AcDbEntity
  8
0
  6
Continuous
 62
     7
370
    25
100
AcDbLine
 10
14.5602353261
 20
7.8405134316
 30
0.0
 11
14.5602353261
 21
7.7224031954
 31
0.0
  0
LINE
  5
306
330
1F
100
AcDbEntity
  8
0
  6
Continuous
 62
     7
370
    25
100
AcDbLine
 10
14.5602353261
 20
7.7224031954
 30
0.0
 11
14.7570857198
 21
7.7224031954
 31
0.0
  0
LINE
  5
307
330
1F
100
AcDbEntity
  8
0
  6
Continuous
 62
     7
370
    25
100
AcDbLine
 10
10.5838573733
 20
9.0316262193
 30
0.0
 11
10.5838573733
 21
8.5770197081
 31
0.0
  0
LINE
  5
308
330
1F
100
AcDbEntity
  8
0
  6
Continuous
 62
     7
370
    25
100
AcDbLine
 10
10.5838573733
 20
8.5770197081
 30
0.0
 11
10.9775581607
 21
8.3497164525
 31
0.0
  0
LINE
  5
309
330
1F
100
AcDbEntity
  8
0
  6
Continuous
 62
     7
370
    25
100
AcDbLine
 10
10.9775581607
 20
8.3497164525
 30
0.0
 11
11.3712589481
 21
8.5770197081
 31
0.0
  0
LINE
  5
30A
330
1F
100
AcDbEntity
  8
0
  6
Continuous
 62
     7
370
    25
100
AcDbLine
 10
11.3712589481
 20
8.5770197081
 30
0.0
 11
11.3712589481
 21
9.0316262193
 31
0.0
  0
LINE
  5
30B
330
1F
100
AcDbEntity
  8
0
  6
Continuous
 62
     7
370
    25
100
AcDbLine
 10
11.3712589481
 20
9.0316262193
 30
0.0
 11
10.9775581607
 21
9.2589294748
 31
0.0
  0
LINE
  5
30C
330
1F
100
AcDbEntity
  8
0
  6
Continuous
 62
     7
370
    25
100
AcDbLine
 10
10.9775581607
 20
9.2589294748
 30
0.0
 11
10.5838573733
 21
9.0316262193
 31
0.0
  0
LINE
  5
30D
330
1F
100
AcDbEntity
  8
0
  6
Continuous
 62
     7
370
    25
100
AcDbLine
 10
10.5838573733
 20
6.985896919
 30
0.0
 11
10.5838573733
 21
6.5312904078
 31
0.0
  0
LINE
  5
30E
330
1F
100
AcDbEntity
  8
0
  6
Continuous
 62
     7
370
    25
100
AcDbLine
 10
10.5838573733
 20
6.5312904078
 30
0.0
 11
10.9775581607
 21
6.3039871522
 31
0.0
  0
LINE
  5
30F
330
1F
100
AcDbEntity
  8
0
  6
Continuous
 62
     7
370
    25
100
AcDbLine
 10
10.9775581607
 20
6.3039871522
 30
0.0
 11
11.3712589481
 21
6.5312904078
 31
0.0
  0
LINE
  5
310
330
1F
100
AcDbEntity
  8
0
  6
Continuous
 62
     7
370
    25
100
AcDbLine
 10
11.3712589481
 20
6.5312904078
 30
0.0
 11
11.3712589481
 21
6.985896919
 31
0.0
  0
LINE
  5
311
330
1F
100
AcDbEntity
  8
0
  6
Continuous
 62
     7
370
    25
100
AcDbLine
 10
11.3712589481
 20
6.985896919
 30
0.0
 11
10.9775581607
 21
7.2132001746
 31
0.0
  0
LINE
  5
312
330
1F
100
AcDbEntity
  8
0
  6
Continuous
 62
     7
370
    25
100
AcDbLine
 10
10.9775581607
 20
7.2132001746
 30
0.0
 11
10.5838573733
 21
6.985896919
 31
0.0
  0
LINE
  5
313
330
1F
100
AcDbEntity
  8
0
  6
Continuous
 62
     7
370
    25
100
AcDbLine
 10
11.5681093418
 20
10.281794125
 30
0.0
 11
11.1744085544
 21
10.0544908694
 31
0.0
  0
LINE
  5
314
330
1F
100
AcDbEntity
  8
0
  6
Continuous
 62
     7
370
    25
100
AcDbLine
 10
11.1744085544
 20
10.0544908694
 30
0.0
 11
11.1744085544
 21
9.5998843582
 31
0.0
  0
LINE
  5
315
330
1F
100
AcDbEntity
  8
0
  6
Continuous
 62
     7
370
    25
100
AcDbLine
 10
11.1744085544
 20
9.5998843582
 30
0.0
 11
11.5681093418
 21
9.3725811026
 31
0.0
  0
LINE
  5
316
330
1F
100
AcDbEntity
  8
0
  6
Continuous
 62
     7
370
    25
100
AcDbLine
 10
11.5681093418
 20
9.3725811026
 30
0.0
 11
11.9618101292
 21
9.5998843582
 31
0.0
  0
LINE
  5
317
330
1F
100
AcDbEntity
  8
0
  6
Continuous
 62
     7
370
    25
100
AcDbLine
 10
11.9618101292
 20
9.5998843582
 30
0.0
 11
11.9618101292
 21
10.0544908694
 31
0.0
  0
LINE
  5
318
330
1F
100
AcDbEntity
  8
0
  6
Continuous
 62
     7
370
    25
100
AcDbLine
 10
11.9618101292
 20
10.0544908694
 30
0.0
 11
11.5681093418
 21
10.281794125
 31
0.0
  0
LINE
  5
319
330
1F
100
AcDbEntity
  8
0
  6
Continuous
 62
     7
370
    25
100
AcDbLine
 10
11.7649597355
 20
9.0316262193
 30
0.0
 11
11.7649597355
 21
8.5770197081
 31
0.0
  0
LINE
  5
31A
330
1F
100
AcDbEntity
  8
0
  6
Continuous
 62
     7
370
    25
100
AcDbLine
 10
11.7649597355
 20
8.5770197081
 30
0.0
 11
12.1586605229
 21
8.3497164525
 31
0.0
  0
LINE
  5
31B
330
1F
100
AcDbEntity
  8
0
  6
Continuous
 62
     7
370
    25
100
AcDbLine
 10
12.1586605229
 20
8.3497164525
 30
0.0
 11
12.5523613103
 21
8.5770197081
 31
0.0
  0
LINE
  5
31C
330
1F
100
AcDbEntity
  8
0
  6
Continuous
 62
     7
370
    25
100
AcDbLine
 10
12.5523613103
 20
8.5770197081
 30
0.0
 11
12.5523613103
 21
9.0316262193
 31
0.0
  0
LINE
  5
31D
330
1F
100
AcDbEntity
  8
0
  6
Continuous
 62
     7
370
    25
100
AcDbLine
 10
12.5523613103
 20
9.0316262193
 30
0.0
 11
12.1586605229
 21
9.2589294748
 31
0.0
  0
LINE
  5
31E
330
1F
100
AcDbEntity
  8
0
  6
Continuous
 62
     7
370
    25
100
AcDbLine
 10
12.1586605229
 20
9.2589294748
 30
0.0
 11
11.7649597355
 21
9.0316262193
 31
0.0
  0
LINE
  5
31F
330
1F
100
AcDbEntity
  8
0
  6
Continuous
 62
     7
370
    25
100
AcDbLine
 10
11.5681093418
 20
6.1903955334
 30
0.0
 11
11.1744085544
 21
5.9630922778
 31
0.0
  0
LINE
  5
320
330
1F
100
AcDbEntity
  8
0
  6
Continuous
 62
     7
370
    25
100
AcDbLine
 10
11.1744085544
 20
5.9630922778
 30
0.0
 11
11.1744085544
 21
5.5084857666
 31
0.0
  0
LINE
  5
321
330
1F
100
AcDbEntity
  8
0
  6
Continuous
 62
     7
370
    25
100
AcDbLine
 10
11.1744085544
 20
5.5084857666
 30
0.0
 11
11.5681093418
 21
5.281182511
 31
0.0
  0
LINE
  5
322
330
1F
100
AcDbEntity
  8
0
  6
Continuous
 62
     7
370
    25
100
AcDbLine
 10
11.5681093418
 20
5.281182511
 30
0.0
 11
11.9618101292
 21
5.5084857666
 31
0.0
  0
LINE
  5
323
330
1F
100
AcDbEntity
  8
0
  6
Continuous
 62
     7
370
    25
100
AcDbLine
 10
11.9618101292
 20
5.5084857666
 30
0.0
 11
11.9618101292
 21
5.9630922778
 31
0.0
  0
LINE
  5
324
330
1F
100
AcDbEntity
  8
0
  6
Continuous
 62
     7
370
    25
100
AcDbLine
 10
11.9618101292
 20
5.9630922778
 30
0.0
 11
11.5681093418
 21
6.1903955334
 31
0.0
  0
LINE
  5
325
330
1F
100
AcDbEntity
  8
0
  6
Continuous
 62
     7
370
    25
100
AcDbLine
 10
10.3870069796
 20
6.1903955334
 30
0.0
 11
9.9933061922
 21
5.9630922778
 31
0.0
  0
LINE
  5
326
330
1F
100
AcDbEntity
  8
0
  6
Continuous
 62
     7
370
    25
100
AcDbLine
 10
9.9933061922
 20
5.9630922778
 30
0.0
 11
9.9933061922
 21
5.5084857666
 31
0.0
  0
LINE
  5
327
330
1F
100
AcDbEntity
  8
0
  6
Continuous
 62
     7
370
    25
100
AcDbLine
 10
9.9933061922
 20
5.5084857666
 30
0.0
 11
10.3870069796
 21
5.281182511
 31
0.0
  0
LINE
  5
328
330
1F
100
AcDbEntity
  8
0
  6
Continuous
 62
     7
370
    25
100
AcDbLine
 10
10.3870069796
 20
5.281182511
 30
0.0
 11
10.780707767
 21
5.5084857666
 31
0.0
  0
LINE
  5
329
330
1F
100
AcDbEntity
  8
0
  6
Continuous
 62
     7
370
    25
100
AcDbLine
 10
10.780707767
 20
5.5084857666
 30
0.0
 11
10.780707767
 21
5.9630922778
 31
0.0
  0
LINE
  5
32A
330
1F
100
AcDbEntity
  8
0
  6
Continuous
 62
     7
370
    25
100
AcDbLine
 10
10.780707767
 20
5.9630922778
 30
0.0
 11
10.3870069796
 21
6.1903955334
 31
0.0
  0
CIRCLE
  5
32B
330
1F
100
AcDbEntity
  8
0
  6
Continuous
 62
     7
370
    25
100
AcDbCircle
 10
13.5759833576
 20
8.6817248663
 30
0.0
 40
0.0669291338582685
  0
LINE
  5
32C
330
1F
100
AcDbEntity
  8
0
  6
Continuous
 62
     7
370
    25
100
AcDbLine
 10
14.1271644599
 20
6.985896919
 30
0.0
 11
14.1271644599
 21
6.5312904078
 31
0.0
  0
LINE
  5
32D
330
1F
100
AcDbEntity
  8
0
  6
Continuous
 62
     7
370
    25
100
AcDbLine
 10
14.1271644599
 20
6.5312904078
 30
0.0
 11
14.5208652473
 21
6.3039871522
 31
0.0
  0
LINE
  5
32E
330
1F
100
AcDbEntity
  8
0
  6
Continuous
 62
     7
370
    25
100
AcDbLine
 10
14.5208652473
 20
6.3039871522
 30
0.0
 11
14.5602353261
 21
6.3267174778
 31
0.0
  0
LINE
  5
32F
330
1F
100
AcDbEntity
  8
0
  6
Continuous
 62
     7
370
    25
100
AcDbLine
 10
14.5602353261
 20
6.3267174778
 30
0.0
 11
14.5602353261
 21
7.190469849
 31
0.0
  0
LINE
  5
330
330
1F
100
AcDbEntity
  8
0
  6
Continuous
 62
     7
370
    25
100
AcDbLine
 10
14.5602353261
 20
7.190469849
 30
0.0
 11
14.5208652473
 21
7.2132001746
 31
0.0
  0
LINE
  5
331
330
1F
100
AcDbEntity
  8
0
  6
Continuous
 62
     7
370
    25
100
AcDbLine
 10
14.5208652473
 20
7.2132001746
 30
0.0
 11
14.1271644599
 21
6.985896919
 31
0.0
  0
LINE
  5
332
330
1F
100
AcDbEntity
  8
0
  6
Continuous
 62
     7
370
    25
100
AcDbLine
 10
12.9460620977
 20
6.985896919
 30
0.0
 11
12.9460620977
 21
6.5312904078
 31
0.0
  0
LINE
  5
333
330
1F
100
AcDbEntity
  8
0
  6
Continuous
 62
     7
370
    25
100
AcDbLine
 10
12.9460620977
 20
6.5312904078
 30
0.0
 11
13.3397628851
 21
6.3039871522
 31
0.0
  0
LINE
  5
334
330
1F
100
AcDbEntity
  8
0
  6
Continuous
 62
     7
370
    25
100
AcDbLine
 10
13.3397628851
 20
6.3039871522
 30
0.0
 11
13.7334636725
 21
6.5312904078
 31
0.0
  0
LINE
  5
335
330
1F
100
AcDbEntity
  8
0
  6
Continuous
 62
     7
370
    25
100
AcDbLine
 10
13.7334636725
 20
6.5312904078
 30
0.0
 11
13.7334636725
 21
6.985896919
 31
0.0
  0
LINE
  5
336
330
1F
100
AcDbEntity
  8
0
  6
Continuous
 62
     7
370
    25
100
AcDbLine
 10
13.7334636725
 20
6.985896919
 30
0.0
 11
13.3397628851
 21
7.2132001746
 31
0.0
  0
LINE
  5
337
330
1F
100
AcDbEntity
  8
0
  6
Continuous
 62
     7
370
    25
100
AcDbLine
 10
13.3397628851
 20
7.2132001746
 30
0.0
 11
12.9460620977
 21
6.985896919
 31
0.0
  0
LINE
  5
338
330
1F
100
AcDbEntity
  8
0
  6
Continuous
 62
     7
370
    25
100
AcDbLine
 10
13.9303140662
 20
10.281794125
 30
0.0
 11
13.5366132788
 21
10.0544908694
 31
0.0
  0
LINE
  5
339
330
1F
100
AcDbEntity
  8
0
  6
Continuous
 62
     7
370
    25
100
AcDbLine
 10
13.5366132788
 20
10.0544908694
 30
0.0
 11
13.5366132788
 21
9.5998843582
 31
0.0
  0
LINE
  5
33A
330
1F
100
AcDbEntity
  8
0
  6
Continuous
 62
     7
370
    25
100
AcDbLine
 10
13.5366132788
 20
9.5998843582
 30
0.0
 11
13.9303140662
 21
9.3725811026
 31
0.0
  0
LINE
  5
33B
330
1F
100
AcDbEntity
  8
0
  6
Continuous
 62
     7
370
    25
100
AcDbLine
 10
13.9303140662
 20
9.3725811026
 30
0.0
 11
14.3240148536
 21
9.5998843582
 31
0.0
  0
LINE
  5
33C
330
1F
100
AcDbEntity
  8
0
  6
Continuous
 62
     7
370
    25
100
AcDbLine
 10
14.3240148536
 20
9.5998843582
 30
0.0
 11
14.3240148536
 21
10.0544908694
 31
0.0
  0
LINE
  5
33D
330
1F
100
AcDbEntity
  8
0
  6
Continuous
 62
     7
370
    25
100
AcDbLine
 10
14.3240148536
 20
10.0544908694
 30
0.0
 11
13.9303140662
 21
10.281794125
 31
0.0
  0
CIRCLE
  5
33E
330
1F
100
AcDbEntity
  8
0
  6
Continuous
 62
     7
370
    25
100
AcDbCircle
 10
14.4972432001
 20
8.6817248663
 30
0.0
 40
0.0669291338582685
  0
LINE
  5
33F
330
1F
100
AcDbEntity
  8
0
  6
Continuous
 62
     7
370
    25
100
AcDbLine
 10
14.1271644599
 20
9.0316262193
 30
0.0
 11
14.1271644599
 21
8.5770197081
 31
0.0
  0
LINE
  5
340
330
1F
100
AcDbEntity
  8
0
  6
Continuous
 62
     7
370
    25
100
AcDbLine
 10
14.1271644599
 20
8.5770197081
 30
0.0
 11
14.5208652473
 21
9.2589294748
 31
0.0
  0
LINE
  5
341
330
1F
100
AcDbEntity
  8
0
  6
Continuous
 62
     7
370
    25
100
AcDbLine
 10
14.5208652473
 20
9.2589294748
 30
0.0
 11
14.1271644599
 21
9.0316262193
 31
0.0
  0
CIRCLE
  5
342
330
1F
100
AcDbEntity
  8
0
  6
Continuous
 62
     7
370
    25
100
AcDbCircle
 10
14.2846447749
 20
7.7814583135
 30
0.0
 40
0.0984251968503926
  0
CIRCLE
  5
343
330
1F
100
AcDbEntity
  8
0
  6
Continuous
 62
     7
370
    25
100
AcDbCircle
 10
14.2846447749
 20
7.4960252427
 30
0.0
 40
0.0885826771653546
  0
CIRCLE
  5
344
330
1F
100
AcDbEntity
  8
0
  6
Continuous
 62
     7
370
    25
100
AcDbCircle
 10
14.2846447749
 20
8.0668913844
 30
0.0
 40
0.0885826771653555
  0
LINE
  5
345
330
1F
100
AcDbEntity
  8
0
  6
Continuous
 62
     7
370
    25
100
AcDbLine
 10
9.4814951686
 20
5.8523244553
 30
0.0
 11
9.4814951686
 21
5.3798835104
 31
0.0
  0
LINE
  5
346
330
1F
100
AcDbEntity
  8
0
  6
Continuous
 62
     7
370
    25
100
AcDbLine
 10
9.4814951686
 20
6.7184661875
 30
0.0
 11
9.4814951686
 21
6.2460252427
 31
0.0
  0
LINE
  5
347
330
1F
100
AcDbEntity
  8
0
  6
Continuous
 62
     7
370
    25
100
AcDbLine
 10
9.4814951686
 20
7.5846079198
 30
0.0
 11
9.4814951686
 21
7.1121669749
 31
0.0
  0
LINE
  5
348
330
1F
100
AcDbEntity
  8
0
  6
Continuous
 62
     7
370
    25
100
AcDbLine
 10
9.4814951686
 20
8.4507496521
 30
0.0
 11
9.4814951686
 21
7.9783087072
 31
0.0
  0
LINE
  5
349
330
1F
100
AcDbEntity
  8
0
  6
Continuous
 62
     7
370
    25
100
AcDbLine
 10
9.4814951686
 20
9.3168913844
 30
0.0
 11
9.4814951686
 21
8.8444504395
 31
0.0
  0
LINE
  5
34A
330
1F
100
AcDbEntity
  8
0
  6
Continuous
 62
     7
370
    25
100
AcDbLine
 10
9.4814951686
 20
10.1830331167
 30
0.0
 11
9.4814951686
 21
9.7105921718
 31
0.0
  0
LINE
  5
34B
330
1F
100
AcDbEntity
  8
0
  6
Continuous
 62
     7
370
    25
100
AcDbLine
 10
9.4814951686
 20
11.0098047702
 30
0.0
 11
9.4814951686
 21
10.5767339041
 31
0.0
  0
LINE
  5
34C
330
1F
100
AcDbEntity
  8
0
  6
Continuous
 62
     7
370
    25
100
AcDbLine
 10
10.4854321765
 20
11.0098047702
 30
0.0
 11
10.3476369009
 21
11.0098047702
 31
0.0
  0
LINE
  5
34D
330
1F
100
AcDbEntity
  8
0
  6
Continuous
 62
     7
370
    25
100
AcDbLine
 10
9.4814951686
 20
4.5531118568
 30
0.0
 11
9.875195956
 21
4.5531118568
 31
0.0
  0
MTEXT
  5
34F
330
1F
100
AcDbEntity
  8
0
  6
Continuous
 62
     7
100
AcDbMText
 10
0.0
 20
0.5641932659
 30
0.0
 40
0.2022874016
 41
0.0
 71
     1
 72
     1
  1
SOLIDWORKS Educational Product.
  7
SLDTEXTSTYLE0
 73
     1
 44
1.0
  0
MTEXT
  5
350
330
1F
100
AcDbEntity
  8
0
  6
Continuous
 62
     7
100
AcDbMText
 10
0.0
 20
0.2607621635
 30
0.0
 40
0.2022874016
 41
0.0
 71
     1
 72
     1
  1
For Instructional Use Only.
  7
SLDTEXTSTYLE0
 73
     1
 44
1.0
  0
ENDSEC
  0
SECTION
  2
OBJECTS
  0
DICTIONARY
  5
C
330
0
100
AcDbDictionary
281
     1
  3
ACAD_GROUP
350
D
  3
ACAD_LAYOUT
350
1A
  3
ACAD_MLINESTYLE
350
17
  3
ACAD_PLOTSETTINGS
350
19
  3
ACAD_PLOTSTYLENAME
350
E
  3
ACAD_SCALELIST
350
47
  0
DICTIONARY
  5
D
102
{ACAD_REACTORS
330
C
102
}
330
C
100
AcDbDictionary
281
     1
  0
DICTIONARY
  5
1A
102
{ACAD_REACTORS
330
C
102
}
330
C
100
AcDbDictionary
281
     1
  3
Layout1
350
1E
  3
Layout2
350
26
  3
Model
350
22
  0
DICTIONARY
  5
17
102
{ACAD_REACTORS
330
C
102
}
330
C
100
AcDbDictionary
281
     1
  3
Standard
350
18
  0
DICTIONARY
  5
19
102
{ACAD_REACTORS
330
C
102
}
330
C
100
AcDbDictionary
281
     1
  0
ACDBDICTIONARYWDFLT
  5
E
102
{ACAD_REACTORS
330
C
102
}
330
C
100
AcDbDictionary
281
     1
  3
Normal
350
F
100
AcDbDictionaryWithDefault
340
F
  0
DICTIONARY
  5
47
102
{ACAD_REACTORS
330
C
102
}
330
C
100
AcDbDictionary
281
     1
  3
A0
350
48
  3
A1
350
49
  3
A2
350
4A
  3
A3
350
4B
  3
A4
350
4C
  3
A5
350
4D
  3
A6
350
4E
  3
A7
350
4F
  3
A8
350
50
  3
A9
350
51
  3
B0
350
52
  3
B1
350
53
  3
B2
350
54
  3
B3
350
55
  3
B4
350
56
  3
B5
350
57
  3
B6
350
58
  3
B7
350
59
  3
B8
350
5A
  3
B9
350
5B
  3
C0
350
5C
  3
C1
350
5D
  3
C2
350
5E
  3
C3
350
5F
  3
C4
350
60
  3
C5
350
61
  3
C6
350
62
  3
C7
350
63
  3
C8
350
64
  3
C9
350
65
  3
D0
350
66
  3
D1
350
67
  3
D2
350
68
  0
LAYOUT
  5
1E
102
{ACAD_REACTORS
330
1A
102
}
330
1A
100
AcDbPlotSettings
  1

  2
none_device
  4

  6

 40
0.0
 41
0.0
 42
0.0
 43
0.0
 44
0.0
 45
0.0
 46
0.0
 47
0.0
 48
0.0
 49
0.0
140
0.0
141
0.0
142
1.0
143
1.0
 70
   688
 72
     0
 73
     0
 74
     5
  7

 75
    16
147
1.0
148
0.0
149
0.0
100
AcDbLayout
  1
Layout1
 70
     1
 71
     1
 10
0.0
 20
0.0
 11
12.0
 21
9.0
 12
0.0
 22
0.0
 32
0.0
 14
1.0000000000E+20
 24
1.0000000000E+20
 34
1.0000000000E+20
 15
-1.0000000000E+20
 25
-1.0000000000E+20
 35
-1.0000000000E+20
146
0.0
 13
0.0
 23
0.0
 33
0.0
 16
1.0
 26
0.0
 36
0.0
 17
0.0
 27
1.0
 37
0.0
 76
     0
330
1B
  0
LAYOUT
  5
26
102
{ACAD_REACTORS
330
1A
102
}
330
1A
100
AcDbPlotSettings
  1

  2
none_device
  4

  6

 40
0.0
 41
0.0
 42
0.0
 43
0.0
 44
0.0
 45
0.0
 46
0.0
 47
0.0
 48
0.0
 49
0.0
140
0.0
141
0.0
142
1.0
143
1.0
 70
   688
 72
     0
 73
     0
 74
     5
  7

 75
    16
147
1.0
148
0.0
149
0.0
100
AcDbLayout
  1
Layout2
 70
     1
 71
     2
 10
0.0
 20
0.0
 11
0.0
 21
0.0
 12
0.0
 22
0.0
 32
0.0
 14
0.0
 24
0.0
 34
0.0
 15
0.0
 25
0.0
 35
0.0
146
0.0
 13
0.0
 23
0.0
 33
0.0
 16
1.0
 26
0.0
 36
0.0
 17
0.0
 27
1.0
 37
0.0
 76
     0
330
23
  0
LAYOUT
  5
22
102
{ACAD_REACTORS
330
1A
102
}
330
1A
100
AcDbPlotSettings
  1

  2
none_device
  4
Letter_(8.50_x_11.00_Inches)
  6

 40
6.35
 41
6.35
 42
6.35000508
 43
6.35000508
 44
215.9
 45
279.4
 46
0.0
 47
0.0
 48
0.0
 49
0.0
140
0.0
141
0.0
142
1.0
143
1.0
 70
  1712
 72
     0
 73
     0
 74
     0
  7

 75
     0
147
1.0
148
0.0
149
0.0
100
AcDbLayout
  1
Model
 70
     1
 71
     0
 10
0.0
 20
0.0
 11
16.5354330709
 21
11.6929133858
 12
0.0
 22
0.0
 32
0.0
 14
0.0
 24
0.0
 34
0.0
 15
16.5354330709
 25
11.6929133858
 35
0.0
146
0.0
 13
0.0
 23
0.0
 33
0.0
 16
1.0
 26
0.0
 36
0.0
 17
0.0
 27
1.0
 37
0.0
 76
     0
330
1F
331
29
  0
MLINESTYLE
  5
18
102
{ACAD_REACTORS
330
17
102
}
330
17
100
AcDbMlineStyle
  2
Standard
 70
     0
  3

 62
   256
 51
90.0
 52
90.0
 71
     2
 49
0.5
 62
   256
  6
BYLAYER
 49
-0.5
 62
   256
  6
BYLAYER
  0
ACDBPLACEHOLDER
  5
F
102
{ACAD_REACTORS
330
E
102
}
330
E
  0
SCALE
  5
48
102
{ACAD_REACTORS
330
47
102
}
330
47
100
AcDbScale
 70
     0
300
1:1
140
1.0
141
1.0
290
     1
  0
SCALE
  5
49
102
{ACAD_REACTORS
330
47
102
}
330
47
100
AcDbScale
 70
     0
300
1:2
140
1.0
141
2.0
290
     0
  0
SCALE
  5
4A
102
{ACAD_REACTORS
330
47
102
}
330
47
100
AcDbScale
 70
     0
300
1:4
140
1.0
141
4.0
290
     0
  0
SCALE
  5
4B
102
{ACAD_REACTORS
330
47
102
}
330
47
100
AcDbScale
 70
     0
300
1:5
140
1.0
141
5.0
290
     0
  0
SCALE
  5
4C
102
{ACAD_REACTORS
330
47
102
}
330
47
100
AcDbScale
 70
     0
300
1:8
140
1.0
141
8.0
290
     0
  0
SCALE
  5
4D
102
{ACAD_REACTORS
330
47
102
}
330
47
100
AcDbScale
 70
     0
300
1:10
140
1.0
141
10.0
290
     0
  0
SCALE
  5
4E
102
{ACAD_REACTORS
330
47
102
}
330
47
100
AcDbScale
 70
     0
300
1:16
140
1.0
141
16.0
290
     0
  0
SCALE
  5
4F
102
{ACAD_REACTORS
330
47
102
}
330
47
100
AcDbScale
 70
     0
300
1:20
140
1.0
141
20.0
290
     0
  0
SCALE
  5
50
102
{ACAD_REACTORS
330
47
102
}
330
47
100
AcDbScale
 70
     0
300
1:30
140
1.0
141
30.0
290
     0
  0
SCALE
  5
51
102
{ACAD_REACTORS
330
47
102
}
330
47
100
AcDbScale
 70
     0
300
1:40
140
1.0
141
40.0
290
     0
  0
SCALE
  5
52
102
{ACAD_REACTORS
330
47
102
}
330
47
100
AcDbScale
 70
     0
300
1:50
140
1.0
141
50.0
290
     0
  0
SCALE
  5
53
102
{ACAD_REACTORS
330
47
102
}
330
47
100
AcDbScale
 70
     0
300
1:100
140
1.0
141
100.0
290
     0
  0
SCALE
  5
54
102
{ACAD_REACTORS
330
47
102
}
330
47
100
AcDbScale
 70
     0
300
2:1
140
2.0
141
1.0
290
     0
  0
SCALE
  5
55
102
{ACAD_REACTORS
330
47
102
}
330
47
100
AcDbScale
 70
     0
300
4:1
140
4.0
141
1.0
290
     0
  0
SCALE
  5
56
102
{ACAD_REACTORS
330
47
102
}
330
47
100
AcDbScale
 70
     0
300
8:1
140
8.0
141
1.0
290
     0
  0
SCALE
  5
57
102
{ACAD_REACTORS
330
47
102
}
330
47
100
AcDbScale
 70
     0
300
10:1
140
10.0
141
1.0
290
     0
  0
SCALE
  5
58
102
{ACAD_REACTORS
330
47
102
}
330
47
100
AcDbScale
 70
     0
300
100:1
140
100.0
141
1.0
290
     0
  0
SCALE
  5
59
102
{ACAD_REACTORS
330
47
102
}
330
47
100
AcDbScale
 70
     0
300
1/128" = 1'-0"
140
0.0078125
141
12.0
290
     0
  0
SCALE
  5
5A
102
{ACAD_REACTORS
330
47
102
}
330
47
100
AcDbScale
 70
     0
300
1/64" = 1'-0"
140
0.015625
141
12.0
290
     0
  0
SCALE
  5
5B
102
{ACAD_REACTORS
330
47
102
}
330
47
100
AcDbScale
 70
     0
300
1/32" = 1'-0"
140
0.03125
141
12.0
290
     0
  0
SCALE
  5
5C
102
{ACAD_REACTORS
330
47
102
}
330
47
100
AcDbScale
 70
     0
300
1/16" = 1'-0"
140
0.0625
141
12.0
290
     0
  0
SCALE
  5
5D
102
{ACAD_REACTORS
330
47
102
}
330
47
100
AcDbScale
 70
     0
300
3/32" = 1'-0"
140
0.09375
141
12.0
290
     0
  0
SCALE
  5
5E
102
{ACAD_REACTORS
330
47
102
}
330
47
100
AcDbScale
 70
     0
300
1/8" = 1'-0"
140
0.125
141
12.0
290
     0
  0
SCALE
  5
5F
102
{ACAD_REACTORS
330
47
102
}
330
47
100
AcDbScale
 70
     0
300
3/16" = 1'-0"
140
0.1875
141
12.0
290
     0
  0
SCALE
  5
60
102
{ACAD_REACTORS
330
47
102
}
330
47
100
AcDbScale
 70
     0
300
1/4" = 1'-0"
140
0.25
141
12.0
290
     0
  0
SCALE
  5
61
102
{ACAD_REACTORS
330
47
102
}
330
47
100
AcDbScale
 70
     0
300
3/8" = 1'-0"
140
0.375
141
12.0
290
     0
  0
SCALE
  5
62
102
{ACAD_REACTORS
330
47
102
}
330
47
100
AcDbScale
 70
     0
300
1/2" = 1'-0"
140
0.5
141
12.0
290
     0
  0
SCALE
  5
63
102
{ACAD_REACTORS
330
47
102
}
330
47
100
AcDbScale
 70
     0
300
3/4" = 1'-0"
140
0.75
141
12.0
290
     0
  0
SCALE
  5
64
102
{ACAD_REACTORS
330
47
102
}
330
47
100
AcDbScale
 70
     0
300
1" = 1'-0"
140
1.0
141
12.0
290
     0
  0
SCALE
  5
65
102
{ACAD_REACTORS
330
47
102
}
330
47
100
AcDbScale
 70
     0
300
1-1/2" = 1'-0"
140
1.5
141
12.0
290
     0
  0
SCALE
  5
66
102
{ACAD_REACTORS
330
47
102
}
330
47
100
AcDbScale
 70
     0
300
3" = 1'-0"
140
3.0
141
12.0
290
     0
  0
SCALE
  5
67
102
{ACAD_REACTORS
330
47
102
}
330
47
100
AcDbScale
 70
     0
300
6" = 1'-0"
140
6.0
141
12.0
290
     0
  0
SCALE
  5
68
102
{ACAD_REACTORS
330
47
102
}
330
47
100
AcDbScale
 70
     0
300
1'-0" = 1'-0"
140
12.0
141
12.0
290
     0
  0
ENDSEC
  0
EOF
