  0
SECTION
  2
HEADER
  9
$ACADVER
  1
AC1015
  9
$ACADMAINTVER
 70
     6
  9
$DWGCODEPAGE
  3
ANSI_1252
  9
$INSBASE
 10
0.0
 20
0.0
 30
0.0
  9
$EXTMIN
 10
0.0
 20
0.0
 30
0.0
  9
$EXTMAX
 10
16.5354330709
 20
11.6929133858
 30
0.0
  9
$LIMMIN
 10
0.0
 20
0.0
  9
$LIMMAX
 10
16.5354330709
 20
11.6929133858
  9
$ORTHOMODE
 70
     0
  9
$REGENMODE
 70
     1
  9
$FILLMODE
 70
     1
  9
$QTEXTMODE
 70
     0
  9
$MIRRTEXT
 70
     1
  9
$LTSCALE
 40
1.0
  9
$ATTMODE
 70
     1
  9
$TEXTSIZE
 40
0.1377952756
  9
$TRACEWID
 40
0.05
  9
$TEXTSTYLE
  7
Standard
  9
$CLAYER
  8
0
  9
$CELTYPE
  6
ByLayer
  9
$CECOLOR
 62
   256
  9
$CELTSCALE
 40
1.0
  9
$DISPSILH
 70
     0
  9
$DIMSCALE
 40
1.0
  9
$DIMASZ
 40
0.13
  9
$DIMEXO
 40
0.0393700787
  9
$DIMDLI
 40
0.38
  9
$DIMRND
 40
0.0
  9
$DIMDLE
 40
0.0
  9
$DIMEXE
 40
0.0393700787
  9
$DIMTP
 40
0.0
  9
$DIMTM
 40
0.0
  9
$DIMTXT
 40
0.1377952756
  9
$DIMCEN
 40
0.09
  9
$DIMTSZ
 40
0.0
  9
$DIMTOL
 70
     0
  9
$DIMLIM
 70
     0
  9
$DIMTIH
 70
     1
  9
$DIMTOH
 70
     1
  9
$DIMSE1
 70
     0
  9
$DIMSE2
 70
     0
  9
$DIMTAD
 70
     1
  9
$DIMZIN
 70
     1
  9
$DIMBLK
  1

  9
$DIMASO
 70
     1
  9
$DIMSHO
 70
     1
  9
$DIMPOST
  1

  9
$DIMAPOST
  1

  9
$DIMALT
 70
     0
  9
$DIMALTD
 70
     2
  9
$DIMALTF
 40
25.4
  9
$DIMLFAC
 40
1.0
  9
$DIMTOFL
 70
     0
  9
$DIMTVP
 40
0.0
  9
$DIMTIX
 70
     0
  9
$DIMSOXD
 70
     0
  9
$DIMSAH
 70
     0
  9
$DIMBLK1
  1

  9
$DIMBLK2
  1

  9
$DIMSTYLE
  2
Standard
  9
$DIMCLRD
 70
     0
  9
$DIMCLRE
 70
     0
  9
$DIMCLRT
 70
     0
  9
$DIMTFAC
 40
1.0
  9
$DIMGAP
 40
0.06
  9
$DIMJUST
 70
     0
  9
$DIMSD1
 70
     0
  9
$DIMSD2
 70
     0
  9
$DIMTOLJ
 70
     1
  9
$DIMTZIN
 70
     1
  9
$DIMALTZ
 70
     0
  9
$DIMALTTZ
 70
     0
  9
$DIMUPT
 70
     0
  9
$DIMDEC
 70
     2
  9
$DIMTDEC
 70
     2
  9
$DIMALTU
 70
     2
  9
$DIMALTTD
 70
     2
  9
$DIMTXSTY
  7
Standard
  9
$DIMAUNIT
 70
     0
  9
$DIMADEC
 70
     2
  9
$DIMALTRND
 40
0.0
  9
$DIMAZIN
 70
     0
  9
$DIMDSEP
 70
    46
  9
$DIMATFIT
 70
     3
  9
$DIMFRAC
 70
     0
  9
$DIMLDRBLK
  1

  9
$DIMLUNIT
 70
     2
  9
$DIMLWD
 70
    -2
  9
$DIMLWE
 70
    -2
  9
$DIMTMOVE
 70
     0
  9
$LUNITS
 70
     2
  9
$LUPREC
 70
     2
  9
$SKETCHINC
 40
0.1
  9
$FILLETRAD
 40
0.5
  9
$AUNITS
 70
     0
  9
$AUPREC
 70
     2
  9
$MENU
  1
.
  9
$ELEVATION
 40
0.0
  9
$PELEVATION
 40
0.0
  9
$THICKNESS
 40
0.0
  9
$LIMCHECK
 70
     0
  9
$CHAMFERA
 40
0.0
  9
$CHAMFERB
 40
0.0
  9
$CHAMFERC
 40
0.0
  9
$CHAMFERD
 40
0.0
  9
$SKPOLY
 70
     0
  9
$TDCREATE
 40
2459256.504683982
  9
$TDUCREATE
 40
2459256.504683982
  9
$TDUPDATE
 40
2459256.504684387
  9
$TDUUPDATE
 40
2459256.504684387
  9
$TDINDWG
 40
0.0000000116
  9
$TDUSRTIMER
 40
0.0000000116
  9
$USRTIMER
 70
     1
  9
$ANGBASE
 50
0.0
  9
$ANGDIR
 70
     0
  9
$PDMODE
 70
     0
  9
$PDSIZE
 40
-1.0
  9
$PLINEWID
 40
0.0
  9
$SPLFRAME
 70
     0
  9
$SPLINETYPE
 70
     6
  9
$SPLINESEGS
 70
     8
  9
$HANDSEED
  5
BD
  9
$SURFTAB1
 70
     6
  9
$SURFTAB2
 70
     6
  9
$SURFTYPE
 70
     6
  9
$SURFU
 70
     6
  9
$SURFV
 70
     6
  9
$UCSBASE
  2

  9
$UCSNAME
  2

  9
$UCSORG
 10
0.0
 20
0.0
 30
0.0
  9
$UCSXDIR
 10
1.0
 20
0.0
 30
0.0
  9
$UCSYDIR
 10
0.0
 20
1.0
 30
0.0
  9
$UCSORTHOREF
  2

  9
$UCSORTHOVIEW
 70
     0
  9
$UCSORGTOP
 10
0.0
 20
0.0
 30
0.0
  9
$UCSORGBOTTOM
 10
0.0
 20
0.0
 30
0.0
  9
$UCSORGLEFT
 10
0.0
 20
0.0
 30
0.0
  9
$UCSORGRIGHT
 10
0.0
 20
0.0
 30
0.0
  9
$UCSORGFRONT
 10
0.0
 20
0.0
 30
0.0
  9
$UCSORGBACK
 10
0.0
 20
0.0
 30
0.0
  9
$PUCSBASE
  2

  9
$PUCSNAME
  2

  9
$PUCSORG
 10
0.0
 20
0.0
 30
0.0
  9
$PUCSXDIR
 10
1.0
 20
0.0
 30
0.0
  9
$PUCSYDIR
 10
0.0
 20
1.0
 30
0.0
  9
$PUCSORTHOREF
  2

  9
$PUCSORTHOVIEW
 70
     0
  9
$PUCSORGTOP
 10
0.0
 20
0.0
 30
0.0
  9
$PUCSORGBOTTOM
 10
0.0
 20
0.0
 30
0.0
  9
$PUCSORGLEFT
 10
0.0
 20
0.0
 30
0.0
  9
$PUCSORGRIGHT
 10
0.0
 20
0.0
 30
0.0
  9
$PUCSORGFRONT
 10
0.0
 20
0.0
 30
0.0
  9
$PUCSORGBACK
 10
0.0
 20
0.0
 30
0.0
  9
$USERI1
 70
     0
  9
$USERI2
 70
     0
  9
$USERI3
 70
     0
  9
$USERI4
 70
     0
  9
$USERI5
 70
     0
  9
$USERR1
 40
0.0
  9
$USERR2
 40
0.0
  9
$USERR3
 40
0.0
  9
$USERR4
 40
0.0
  9
$USERR5
 40
0.0
  9
$WORLDVIEW
 70
     1
  9
$SHADEDGE
 70
     3
  9
$SHADEDIF
 70
    70
  9
$TILEMODE
 70
     1
  9
$MAXACTVP
 70
    64
  9
$PINSBASE
 10
0.0
 20
0.0
 30
0.0
  9
$PLIMCHECK
 70
     0
  9
$PEXTMIN
 10
1.0000000000E+20
 20
1.0000000000E+20
 30
1.0000000000E+20
  9
$PEXTMAX
 10
-1.0000000000E+20
 20
-1.0000000000E+20
 30
-1.0000000000E+20
  9
$PLIMMIN
 10
0.0
 20
0.0
  9
$PLIMMAX
 10
12.0
 20
9.0
  9
$UNITMODE
 70
     0
  9
$VISRETAIN
 70
     1
  9
$PLINEGEN
 70
     0
  9
$PSLTSCALE
 70
     1
  9
$TREEDEPTH
 70
  3020
  9
$CMLSTYLE
  2
Standard
  9
$CMLJUST
 70
     0
  9
$CMLSCALE
 40
1.0
  9
$PROXYGRAPHICS
 70
     1
  9
$MEASUREMENT
 70
     0
  9
$CELWEIGHT
370
    -1
  9
$ENDCAPS
280
     0
  9
$JOINSTYLE
280
     0
  9
$LWDISPLAY
290
     1
  9
$INSUNITS
 70
     1
  9
$HYPERLINKBASE
  1

  9
$STYLESHEET
  1

  9
$XEDIT
290
     1
  9
$CEPSNTYPE
380
     0
  9
$PSTYLEMODE
290
     1
  9
$FINGERPRINTGUID
  2
{fd4cf0c3-6b39-463a-a0ab-d0426bf843a0}
  9
$VERSIONGUID
  2
{FAEB1C32-E019-11D5-929B-00C0DF256EC4}
  9
$EXTNAMES
290
     1
  9
$PSVPSCALE
 40
0.0
  9
$OLESTARTUP
290
     0
  0
ENDSEC
  0
SECTION
  2
CLASSES
  0
CLASS
  1
ACDBDICTIONARYWDFLT
  2
AcDbDictionaryWithDefault
  3
ObjectDBX Classes
 90
        0
280
     0
281
     0
  0
CLASS
  1
VISUALSTYLE
  2
AcDbVisualStyle
  3
ObjectDBX Classes
 90
     4095
280
     0
281
     0
  0
CLASS
  1
MATERIAL
  2
AcDbMaterial
  3
ObjectDBX Classes
 90
     1153
280
     0
281
     0
  0
CLASS
  1
SCALE
  2
AcDbScale
  3
ObjectDBX Classes
 90
     1153
280
     0
281
     0
  0
CLASS
  1
TABLESTYLE
  2
AcDbTableStyle
  3
ObjectDBX Classes
 90
     4095
280
     0
281
     0
  0
CLASS
  1
MLEADERSTYLE
  2
AcDbMLeaderStyle
  3
ACDB_MLEADERSTYLE_CLASS
 90
     4095
280
     0
281
     0
  0
CLASS
  1
SUN
  2
AcDbSun
  3
SCENEOE
 90
     1153
280
     0
281
     0
  0
CLASS
  1
ACDBPLACEHOLDER
  2
AcDbPlaceHolder
  3
ObjectDBX Classes
 90
        0
280
     0
281
     0
  0
CLASS
  1
LAYOUT
  2
AcDbLayout
  3
ObjectDBX Classes
 90
        0
280
     0
281
     0
  0
ENDSEC
  0
SECTION
  2
TABLES
  0
TABLE
  2
VPORT
  5
8
330
0
100
AcDbSymbolTable
 70
     1
  0
VPORT
  5
29
330
8
100
AcDbSymbolTableRecord
100
AcDbViewportTableRecord
  2
*Active
 70
     0
 10
0.0
 20
0.0
 11
1.0
 21
1.0
 12
8.2677165354
 22
5.8464566929
 13
0.0
 23
0.0
 14
0.5
 24
0.5
 15
0.5
 25
0.5
 16
0.0
 26
0.0
 36
1.0
 17
0.0
 27
0.0
 37
0.0
 40
11.6929133858
 41
1.4141414141
 42
50.0
 43
0.0
 44
0.0
 50
0.0
 51
0.0
 71
     0
 72
  2000
 73
     1
 74
     3
 75
     0
 76
     0
 77
     0
 78
     0
281
     0
 65
     1
110
0.0
120
0.0
130
0.0
111
1.0
121
0.0
131
0.0
112
0.0
122
1.0
132
0.0
 79
     0
146
0.0
  0
ENDTAB
  0
TABLE
  2
LTYPE
  5
5
330
0
100
AcDbSymbolTable
 70
     6
  0
LTYPE
  5
14
330
5
100
AcDbSymbolTableRecord
100
AcDbLinetypeTableRecord
  2
ByBlock
 70
     0
  3

 72
    65
 73
     0
 40
0.0
  0
LTYPE
  5
15
330
5
100
AcDbSymbolTableRecord
100
AcDbLinetypeTableRecord
  2
ByLayer
 70
     0
  3

 72
    65
 73
     0
 40
0.0
  0
LTYPE
  5
16
330
5
100
AcDbSymbolTableRecord
100
AcDbLinetypeTableRecord
  2
Continuous
 70
     0
  3
Solid line
 72
    65
 73
     0
 40
0.0
  0
LTYPE
  5
6E
330
5
100
AcDbSymbolTableRecord
100
AcDbLinetypeTableRecord
  2
HIDDEN
 70
     0
  3
Hidden __ __ __ __ __ __ __ __ __ __ __ __ __ __
 72
    65
 73
     2
 40
0.075
 49
0.05
 74
     0
 49
-0.025
 74
     0
  0
LTYPE
  5
6F
330
5
100
AcDbSymbolTableRecord
100
AcDbLinetypeTableRecord
  2
PHANTOM
 70
     0
  3
Phantom ______  __  __  ______  __  __  ______
 72
    65
 73
     6
 40
0.5
 49
0.25
 74
     0
 49
-0.05
 74
     0
 49
0.05
 74
     0
 49
-0.05
 74
     0
 49
0.05
 74
     0
 49
-0.05
 74
     0
  0
LTYPE
  5
70
330
5
100
AcDbSymbolTableRecord
100
AcDbLinetypeTableRecord
  2
CENTER
 70
     0
  3
Center ____ _ ____ _ ____ _ ____ _ ____ _ ____
 72
    65
 73
     4
 40
0.4
 49
0.25
 74
     0
 49
-0.05
 74
     0
 49
0.05
 74
     0
 49
-0.05
 74
     0
  0
LTYPE
  5
71
330
5
100
AcDbSymbolTableRecord
100
AcDbLinetypeTableRecord
  2
CENTERX2
 70
     0
  3
Center (2x) ________  __  ________  __  _____
 72
    65
 73
     4
 40
0.8
 49
0.5
 74
     0
 49
-0.1
 74
     0
 49
0.1
 74
     0
 49
-0.1
 74
     0
  0
LTYPE
  5
72
330
5
100
AcDbSymbolTableRecord
100
AcDbLinetypeTableRecord
  2
DOT2
 70
     0
  3
Dot (.5x) ........................................
 72
    65
 73
     2
 40
0.025
 49
0.0
 74
     0
 49
-0.025
 74
     0
  0
ENDTAB
  0
TABLE
  2
LAYER
  5
2
330
0
100
AcDbSymbolTable
 70
     2
  0
LAYER
  5
10
330
2
100
AcDbSymbolTableRecord
100
AcDbLayerTableRecord
  2
0
 70
     0
 62
     7
  6
Continuous
370
    -3
390
F
  0
LAYER
  5
73
330
2
100
AcDbSymbolTableRecord
100
AcDbLayerTableRecord
  2
FORMAT
 70
     0
 62
     7
  6
Continuous
370
    -3
390
F
  0
ENDTAB
  0
TABLE
  2
STYLE
  5
3
330
0
100
AcDbSymbolTable
 70
     2
  0
STYLE
  5
11
330
3
100
AcDbSymbolTableRecord
100
AcDbTextStyleTableRecord
  2
Standard
 70
     0
 40
0.0
 41
1.0
 50
0.0
 71
     0
 42
0.1377952756
  3
txt
  4

  0
STYLE
  5
BA
330
3
100
AcDbSymbolTableRecord
100
AcDbTextStyleTableRecord
  2
SLDTEXTSTYLE0
 70
     0
 40
0.0
 41
0.7
 50
0.0
 71
     0
 42
0.1377952756
  3
TXT
  4

  0
ENDTAB
  0
TABLE
  2
VIEW
  5
6
330
0
100
AcDbSymbolTable
 70
     0
  0
ENDTAB
  0
TABLE
  2
UCS
  5
7
330
0
100
AcDbSymbolTable
 70
     0
  0
ENDTAB
  0
TABLE
  2
APPID
  5
9
330
0
100
AcDbSymbolTable
 70
     1
  0
APPID
  5
12
330
9
100
AcDbSymbolTableRecord
100
AcDbRegAppTableRecord
  2
ACAD
 70
     0
  0
ENDTAB
  0
TABLE
  2
DIMSTYLE
  5
A
330
0
100
AcDbSymbolTable
 70
     1
100
AcDbDimStyleTable
  0
DIMSTYLE
105
27
330
A
100
AcDbSymbolTableRecord
100
AcDbDimStyleTableRecord
  2
Standard
 70
     0
178
     0
340
11
  0
ENDTAB
  0
TABLE
  2
BLOCK_RECORD
  5
1
330
0
100
AcDbSymbolTable
 70
     1
  0
BLOCK_RECORD
  5
1F
330
1
100
AcDbSymbolTableRecord
100
AcDbBlockTableRecord
  2
*Model_Space
340
22
  0
BLOCK_RECORD
  5
1B
330
1
100
AcDbSymbolTableRecord
100
AcDbBlockTableRecord
  2
*Paper_Space
340
1E
  0
BLOCK_RECORD
  5
23
330
1
100
AcDbSymbolTableRecord
100
AcDbBlockTableRecord
  2
*Paper_Space0
340
26
  0
ENDTAB
  0
ENDSEC
  0
SECTION
  2
BLOCKS
  0
BLOCK
  5
20
330
1F
100
AcDbEntity
  8
0
100
AcDbBlockBegin
  2
*Model_Space
 70
     0
 10
0.0
 20
0.0
 30
0.0
  3
*Model_Space
  1

  0
ENDBLK
  5
21
330
1F
100
AcDbEntity
  8
0
100
AcDbBlockEnd
  0
BLOCK
  5
1C
330
1B
100
AcDbEntity
 67
     1
  8
0
100
AcDbBlockBegin
  2
*Paper_Space
 70
     0
 10
0.0
 20
0.0
 30
0.0
  3
*Paper_Space
  1

  0
ENDBLK
  5
1D
330
1B
100
AcDbEntity
 67
     1
  8
0
100
AcDbBlockEnd
  0
BLOCK
  5
24
330
23
100
AcDbEntity
  8
0
100
AcDbBlockBegin
  2
*Paper_Space0
 70
     0
 10
0.0
 20
0.0
 30
0.0
  3
*Paper_Space0
  1

  0
ENDBLK
  5
25
330
23
100
AcDbEntity
  8
0
100
AcDbBlockEnd
  0
ENDSEC
  0
SECTION
  2
ENTITIES
  0
LINE
  5
74
330
1F
100
AcDbEntity
  8
0
  6
Continuous
 62
     7
370
    25
100
AcDbLine
 10
7.0273493458
 20
1.3920831806
 30
0.0
 11
6.9092391096
 21
1.3920831806
 31
0.0
  0
LINE
  5
75
330
1F
100
AcDbEntity
  8
0
  6
Continuous
 62
     7
370
    25
100
AcDbLine
 10
6.9092391096
 20
1.3920831806
 30
0.0
 11
6.9092391096
 21
1.1952327869
 31
0.0
  0
LINE
  5
76
330
1F
100
AcDbEntity
  8
0
  6
Continuous
 62
     7
370
    25
100
AcDbLine
 10
6.9092391096
 20
1.1952327869
 30
0.0
 11
7.0273493458
 21
1.1952327869
 31
0.0
  0
LINE
  5
77
330
1F
100
AcDbEntity
  8
0
  6
Continuous
 62
     7
370
    25
100
AcDbLine
 10
7.0273493458
 20
1.1952327869
 30
0.0
 11
7.0273493458
 21
1.3920831806
 31
0.0
  0
LINE
  5
78
330
1F
100
AcDbEntity
  8
0
  6
Continuous
 62
     7
370
    25
100
AcDbLine
 10
7.0273493458
 20
8.565311527
 30
0.0
 11
6.9092391096
 21
8.565311527
 31
0.0
  0
LINE
  5
79
330
1F
100
AcDbEntity
  8
0
  6
Continuous
 62
     7
370
    25
100
AcDbLine
 10
6.9092391096
 20
8.565311527
 30
0.0
 11
6.9092391096
 21
8.3684611333
 31
0.0
  0
LINE
  5
7A
330
1F
100
AcDbEntity
  8
0
  6
Continuous
 62
     7
370
    25
100
AcDbLine
 10
6.9092391096
 20
8.3684611333
 30
0.0
 11
7.0273493458
 21
8.3684611333
 31
0.0
  0
LINE
  5
7B
330
1F
100
AcDbEntity
  8
0
  6
Continuous
 62
     7
370
    25
100
AcDbLine
 10
7.0273493458
 20
8.3684611333
 30
0.0
 11
7.0273493458
 21
8.565311527
 31
0.0
  0
SPLINE
  5
7C
330
1F
100
AcDbEntity
  8
0
  6
Continuous
 62
     7
370
    25
100
AcDbSpline
210
0.0
220
0.0
230
1.0
 70
     8
 71
     3
 72
     8
 73
     4
 74
     0
 42
0.000000001
 43
0.00000001
 40
0.0
 40
0.0
 40
0.0
 40
0.0
 40
0.9932859672872102
 40
0.9932859672872102
 40
0.9932859672872102
 40
0.9932859672872102
 10
9.743884778906203
 20
9.053500503422086
 30
0.0
 10
6.29586447045826
 20
9.053500503422049
 30
0.0
 10
2.882967537276222
 20
7.840153499234713
 30
0.0
 10
0.9988393678283283
 20
4.939327275176659
 30
0.0
  0
LINE
  5
7D
330
1F
100
AcDbEntity
  8
0
  6
Continuous
 62
     7
370
    25
100
AcDbLine
 10
9.7438847789
 20
8.7582249129
 30
0.0
 11
9.7438847789
 21
9.0535005034
 31
0.0
  0
LINE
  5
7E
330
1F
100
AcDbEntity
  8
0
  6
Continuous
 62
     7
370
    25
100
AcDbLine
 10
9.8619950151
 20
8.7582249129
 30
0.0
 11
9.7438847789
 21
8.7582249129
 31
0.0
  0
LINE
  5
7F
330
1F
100
AcDbEntity
  8
0
  6
Continuous
 62
     7
370
    25
100
AcDbLine
 10
9.8619950151
 20
8.4629493223
 30
0.0
 11
9.8619950151
 21
8.7582249129
 31
0.0
  0
LINE
  5
80
330
1F
100
AcDbEntity
  8
0
  6
Continuous
 62
     7
370
    25
100
AcDbLine
 10
9.7438847789
 20
8.4629493223
 30
0.0
 11
9.8619950151
 21
8.4629493223
 31
0.0
  0
SPLINE
  5
81
330
1F
100
AcDbEntity
  8
0
  6
Continuous
 62
     7
370
    25
100
AcDbSpline
210
0.0
220
0.0
230
1.0
 70
     8
 71
     3
 72
    19
 73
    15
 74
     0
 42
0.000000001
 43
0.00000001
 40
0.0
 40
0.0
 40
0.0
 40
0.0
 40
0.0299917343608761
 40
0.0599834687217522
 40
0.1199669374435044
 40
0.1799504061652566
 40
0.2399338748870087
 40
0.359900812330513
 40
0.4798677497740174
 40
0.5998346872175218
 40
0.719801624661026
 40
0.8397685621045303
 40
0.8997520308262825
 40
0.9597354995480347
 40
0.9597354995480347
 40
0.9597354995480347
 40
0.9597354995480347
 10
1.6759181117095
 20
4.88486820561573
 30
0.0
 10
1.731244396665664
 20
4.962530945576497
 30
0.0
 10
1.845231318230747
 20
5.116205043814142
 30
0.0
 10
2.081940338674476
 20
5.411024429375757
 30
0.0
 10
2.395747645206759
 20
5.759201465071752
 30
0.0
 10
2.798928616038104
 20
6.144524475162529
 30
0.0
 10
3.370306383971647
 20
6.616339618774422
 30
0.0
 10
4.144210821908757
 20
7.129024615234605
 30
0.0
 10
5.156011206305918
 20
7.625051243952735
 30
0.0
 10
6.237147737274045
 20
8.004998898975224
 30
0.0
 10
7.372593429001832
 20
8.271879052137281
 30
0.0
 10
8.351059295330494
 20
8.402779555758745
 30
0.0
 10
9.14465323414922
 20
8.454454242608863
 30
0.0
 10
9.544335537271673
 20
8.462949322319721
 30
0.0
 10
9.74388477890621
 20
8.462949322319723
 30
0.0
  0
SPLINE
  5
82
330
1F
100
AcDbEntity
  8
0
  6
Continuous
 62
     7
370
    25
100
AcDbSpline
210
0.0
220
0.0
230
1.0
 70
     8
 71
     3
 72
    21
 73
    17
 74
     0
 42
0.000000001
 43
0.00000001
 40
0.0
 40
0.0
 40
0.0
 40
0.0
 40
0.0300080345384552
 40
0.0600160690769105
 40
0.1200321381538211
 40
0.1800482072307316
 40
0.2400642763076422
 40
0.3600964144614632
 40
0.4801285526152843
 40
0.6001606907691053
 40
0.7201928289229264
 40
0.780208897999837
 40
0.8402249670767474
 40
0.9002410361536579
 40
0.9302490706921132
 40
0.9602571052305685
 40
0.9602571052305685
 40
0.9602571052305685
 40
0.9602571052305685
 10
9.743884778906285
 20
1.297594991611152
 30
0.0
 10
9.640261685244557
 20
1.297594991611151
 30
0.0
 10
9.432465679178238
 20
1.299727135386669
 30
0.0
 10
9.02140465756081
 20
1.312600003725741
 30
0.0
 10
8.513468995811339
 20
1.344979785910323
 30
0.0
 10
7.91556552280027
 20
1.410352440290607
 30
0.0
 10
7.135148292557013
 20
1.533449758001507
 30
0.0
 10
6.194258123434567
 20
1.755744345263983
 30
0.0
 10
5.12953208918507
 20
2.135187350768931
 30
0.0
 10
4.137127798085088
 20
2.630680814598584
 30
0.0
 10
3.376126008004803
 20
3.143670746476211
 30
0.0
 10
2.80995808791305
 20
3.616882212802615
 30
0.0
 10
2.407456155511032
 20
4.003988323071761
 30
0.0
 10
2.09094609479834
 20
4.354446853731438
 30
0.0
 10
1.849932728357199
 20
4.651475352738489
 30
0.0
 10
1.73285260810853
 20
4.80661820728937
 30
0.0
 10
1.6759181117095
 20
4.884868205615729
 30
0.0
  0
LINE
  5
83
330
1F
100
AcDbEntity
  8
0
  6
Continuous
 62
     7
370
    25
100
AcDbLine
 10
9.8619950151
 20
1.2975949916
 30
0.0
 11
9.7438847789
 21
1.2975949916
 31
0.0
  0
LINE
  5
84
330
1F
100
AcDbEntity
  8
0
  6
Continuous
 62
     7
370
    25
100
AcDbLine
 10
9.8619950151
 20
1.0023194011
 30
0.0
 11
9.8619950151
 21
1.2975949916
 31
0.0
  0
LINE
  5
85
330
1F
100
AcDbEntity
  8
0
  6
Continuous
 62
     7
370
    25
100
AcDbLine
 10
9.7438847789
 20
1.0023194011
 30
0.0
 11
9.8619950151
 21
1.0023194011
 31
0.0
  0
LINE
  5
86
330
1F
100
AcDbEntity
  8
0
  6
Continuous
 62
     7
370
    25
100
AcDbLine
 10
9.7438847789
 20
0.7070438105
 30
0.0
 11
9.7438847789
 21
1.0023194011
 31
0.0
  0
SPLINE
  5
87
330
1F
100
AcDbEntity
  8
0
  6
Continuous
 62
     7
370
    25
100
AcDbSpline
210
0.0
220
0.0
230
1.0
 70
     8
 71
     3
 72
     8
 73
     4
 74
     0
 42
0.000000001
 43
0.00000001
 40
0.0067140327039382
 40
0.0067140327039382
 40
0.0067140327039382
 40
0.0067140327039382
 40
1.0
 40
1.0
 40
1.0
 40
1.0
 10
1.000117848163927
 20
4.821217038809693
 30
0.0
 10
2.945581600048388
 20
1.920390814685957
 30
0.0
 10
6.16792549832927
 20
0.7070438105087525
 30
0.0
 10
9.74388477890629
 20
0.7070438105087896
 30
0.0
  0
LINE
  5
88
330
1F
100
AcDbEntity
  8
0
  6
Continuous
 62
     7
370
    25
100
AcDbLine
 10
1.0001178482
 20
4.8212170388
 30
0.0
 11
1.3346234741
 21
4.8212170388
 31
0.0
  0
LINE
  5
89
330
1F
100
AcDbEntity
  8
0
  6
Continuous
 62
     7
370
    25
100
AcDbLine
 10
1.3346234741
 20
4.8212170388
 30
0.0
 11
1.3346234741
 21
4.9393272751
 31
0.0
  0
LINE
  5
8A
330
1F
100
AcDbEntity
  8
0
  6
Continuous
 62
     7
370
    25
100
AcDbLine
 10
1.3346234741
 20
4.9393272751
 30
0.0
 11
0.9988393678
 21
4.9393272752
 31
0.0
  0
LINE
  5
8B
330
1F
100
AcDbEntity
  8
0
  6
Continuous
 62
     7
370
    25
100
AcDbLine
 10
3.1577411832
 20
3.9752893959
 30
0.0
 11
3.06041149
 21
3.6965160019
 31
0.0
  0
LINE
  5
8C
330
1F
100
AcDbEntity
  8
0
  6
Continuous
 62
     7
370
    25
100
AcDbLine
 10
3.0462318256
 20
4.0142212732
 30
0.0
 11
3.1577411832
 21
3.9752893959
 31
0.0
  0
LINE
  5
8D
330
1F
100
AcDbEntity
  8
0
  6
Continuous
 62
     7
370
    25
100
AcDbLine
 10
3.1435615188
 20
4.2929946672
 30
0.0
 11
3.0462318256
 21
4.0142212732
 31
0.0
  0
LINE
  5
8E
330
1F
100
AcDbEntity
  8
0
  6
Continuous
 62
     7
370
    25
100
AcDbLine
 10
3.2550708764
 20
4.2540627899
 30
0.0
 11
3.1435615188
 21
4.2929946672
 31
0.0
  0
SPLINE
  5
8F
330
1F
100
AcDbEntity
  8
0
  6
Continuous
 62
     7
370
    25
100
AcDbSpline
210
0.0
220
0.0
230
1.0
 70
     8
 71
     3
 72
    24
 73
    20
 74
     0
 42
0.000000001
 43
0.00000001
 40
0.0065827398050234
 40
0.0065827398050234
 40
0.0065827398050234
 40
0.0065827398050234
 40
0.0302259385152195
 40
0.0604518770304389
 40
0.1209037540608777
 40
0.1813556310913165
 40
0.2418075081217553
 40
0.3627112621826329
 40
0.4836150162435107
 40
0.6045187703043884
 40
0.6649706473348271
 40
0.725422524365266
 40
0.7858744013957049
 40
0.8463262784261436
 40
0.8765522169413631
 40
0.9067781554565825
 40
0.937004093971802
 40
0.9521170632294116
 40
0.9672300324870213
 40
0.9672300324870213
 40
0.9672300324870213
 40
0.9672300324870213
 10
13.66415163890719
 20
4.352088442537282
 30
0.0
 10
13.59387827051469
 20
4.302028338631711
 30
0.0
 10
13.43111416588433
 20
4.191374590428696
 30
0.0
 10
13.07829007986382
 20
3.976241447443556
 30
0.0
 10
12.59234438546219
 20
3.731495416072578
 30
0.0
 10
11.98132265471207
 20
3.497893392933514
 30
0.0
 10
11.13278267307858
 20
3.261431532010399
 30
0.0
 10
10.01709405086049
 20
3.09825714304217
 30
0.0
 10
8.62294525407546
 20
3.086960530062272
 30
0.0
 10
7.445749126395165
 20
3.206249241013949
 30
0.0
 10
6.51345499616845
 20
3.36252073841637
 30
0.0
 10
5.823613301116635
 20
3.505868245734372
 30
0.0
 10
5.147767191948132
 20
3.67103526078802
 30
0.0
 10
4.600028721177738
 20
3.823202880402958
 30
0.0
 10
4.173402732158739
 20
3.951433440927837
 30
0.0
 10
3.859732283141255
 20
4.050313847707143
 30
0.0
 10
3.604213542646823
 20
4.134450998326671
 30
0.0
 10
3.403249452391891
 20
4.202646260706135
 30
0.0
 10
3.304563347478021
 20
4.236783197799048
 30
0.0
 10
3.255070876377248
 20
4.254062789918502
 30
0.0
  0
LINE
  5
90
330
1F
100
AcDbEntity
  8
0
  6
Continuous
 62
     7
370
    25
100
AcDbLine
 10
13.8889481964
 20
4.2736039801
 30
0.0
 11
13.6641516389
 21
4.3520884425
 31
0.0
  0
LINE
  5
91
330
1F
100
AcDbEntity
  8
0
  6
Continuous
 62
     7
370
    25
100
AcDbLine
 10
13.9278800737
 20
4.3851133377
 30
0.0
 11
13.8889481964
 21
4.2736039801
 31
0.0
  0
LINE
  5
92
330
1F
100
AcDbEntity
  8
0
  6
Continuous
 62
     7
370
    25
100
AcDbLine
 10
13.7030835162
 20
4.4635978001
 30
0.0
 11
13.9278800737
 21
4.3851133377
 31
0.0
  0
SPLINE
  5
93
330
1F
100
AcDbEntity
  8
0
  6
Continuous
 62
     7
370
    25
100
AcDbSpline
210
0.0
220
0.0
230
1.0
 70
     8
 71
     3
 72
    24
 73
    20
 74
     0
 42
0.000000001
 43
0.00000001
 40
0.0
 40
0.0
 40
0.0
 40
0.0
 40
0.0151129692576097
 40
0.0302259385152194
 40
0.0604518770304388
 40
0.0906778155456583
 40
0.1209037540608777
 40
0.1813556310913165
 40
0.2418075081217554
 40
0.3022593851521942
 40
0.3627112621826331
 40
0.4836150162435108
 40
0.6045187703043884
 40
0.7254225243652661
 40
0.785874401395705
 40
0.8463262784261438
 40
0.9067781554565827
 40
0.9370040939718021
 40
0.9606472926818501
 40
0.9606472926818501
 40
0.9606472926818501
 40
0.9606472926818501
 10
5.616938097771889
 20
11.01896381750971
 30
0.0
 10
5.666430576719431
 20
11.00168424786509
 30
0.0
 10
5.764918827718394
 20
10.96698061416017
 30
0.0
 10
5.964657755737893
 20
10.89527622087336
 30
0.0
 10
6.217018724692765
 20
10.80209452628474
 30
0.0
 10
6.524071109476727
 20
10.68425854523404
 30
0.0
 10
6.937801082447062
 20
10.51909099204945
 30
0.0
 10
7.461223932304082
 20
10.29727814961514
 30
0.0
 10
8.093007114430025
 20
10.00590533529836
 30
0.0
 10
8.72216407641909
 20
9.6887435638519
 30
0.0
 10
9.549131773935237
 20
9.230794272531721
 30
0.0
 10
10.5447653517553
 20
8.591470959720773
 30
0.0
 10
11.62893046592168
 20
7.714906936806869
 30
0.0
 10
12.40061645932227
 20
6.892783034617097
 30
0.0
 10
12.91759166623157
 20
6.179571321629249
 30
0.0
 10
13.25044200872444
 20
5.616430033704095
 30
0.0
 10
13.47845964324891
 20
5.122414045981755
 30
0.0
 10
13.62071453324862
 20
4.734431248479552
 30
0.0
 10
13.67923830945152
 20
4.546518041476292
 30
0.0
 10
13.70308351618288
 20
4.463597800134919
 30
0.0
  0
LINE
  5
94
330
1F
100
AcDbEntity
  8
0
  6
Continuous
 62
     7
370
    25
100
AcDbLine
 10
5.5054287402
 20
11.0578956948
 30
0.0
 11
5.6169380978
 21
11.0189638175
 31
0.0
  0
LINE
  5
95
330
1F
100
AcDbEntity
  8
0
  6
Continuous
 62
     7
370
    25
100
AcDbLine
 10
5.6027584334
 20
11.3366690888
 30
0.0
 11
5.5054287402
 21
11.0578956948
 31
0.0
  0
LINE
  5
96
330
1F
100
AcDbEntity
  8
0
  6
Continuous
 62
     7
370
    25
100
AcDbLine
 10
5.714267791
 20
11.2977372115
 30
0.0
 11
5.6027584334
 21
11.3366690888
 31
0.0
  0
LINE
  5
97
330
1F
100
AcDbEntity
  8
0
  6
Continuous
 62
     7
370
    25
100
AcDbLine
 10
5.8115974842
 20
11.5765106055
 30
0.0
 11
5.714267791
 21
11.2977372115
 31
0.0
  0
SPLINE
  5
98
330
1F
100
AcDbEntity
  8
0
  6
Continuous
 62
     7
370
    25
100
AcDbSpline
210
0.0
220
0.0
230
1.0
 70
     8
 71
     3
 72
     8
 73
     4
 74
     0
 42
0.000000001
 43
0.00000001
 40
0.0
 40
0.0
 40
0.0
 40
0.0
 40
1.0
 40
1.0
 40
1.0
 40
1.0
 10
14.38573834008253
 20
4.162707825529918
 30
0.0
 10
13.54839909822195
 20
8.164243018982836
 30
0.0
 10
9.138711078927276
 20
10.41489707866158
 30
0.0
 10
5.811597484150576
 20
11.57651060549801
 30
0.0
  0
SPLINE
  5
99
330
1F
100
AcDbEntity
  8
0
  6
Continuous
 62
     7
370
    25
100
AcDbSpline
210
0.0
220
0.0
230
1.0
 70
     8
 71
     3
 72
     8
 73
     4
 74
     0
 42
0.000000001
 43
0.00000001
 40
0.0
 40
0.0
 40
0.0
 40
0.0
 40
1.0
 40
1.0
 40
1.0
 40
1.0
 10
3.06041148999856
 20
3.696516001930207
 30
0.0
 10
6.387525084775262
 20
2.534902475093777
 30
0.0
 10
11.23978843551393
 20
1.551880349738629
 30
0.0
 10
14.38573834008253
 20
4.162707825529918
 30
0.0
  0
LINE
  5
9A
330
1F
100
AcDbEntity
  8
0
  6
Continuous
 62
     7
370
    25
100
AcDbLine
 10
8.8025195895
 20
10.4120446508
 30
0.0
 11
8.1840832213
 21
10.6715689362
 31
0.0
  0
LINE
  5
9B
330
1F
100
AcDbEntity
  8
0
  6
Continuous
 62
     7
370
    25
100
AcDbLine
 10
8.1840832213
 20
10.6715689362
 30
0.0
 11
8.343715533
 21
11.0519665819
 31
0.0
  0
LINE
  5
9C
330
1F
100
AcDbEntity
  8
0
  6
Continuous
 62
     7
370
    25
100
AcDbLine
 10
8.2348062452
 20
11.0976699178
 30
0.0
 11
8.343715533
 21
11.0519665819
 31
0.0
  0
LINE
  5
9D
330
1F
100
AcDbEntity
  8
0
  6
Continuous
 62
     7
370
    25
100
AcDbLine
 10
8.3871506983
 20
11.4607008773
 30
0.0
 11
8.2348062452
 21
11.0976699178
 31
0.0
  0
LINE
  5
9E
330
1F
100
AcDbEntity
  8
0
  6
Continuous
 62
     7
370
    25
100
AcDbLine
 10
8.4960599862
 20
11.4149975414
 30
0.0
 11
8.3871506983
 21
11.4607008773
 31
0.0
  0
SPLINE
  5
9F
330
1F
100
AcDbEntity
  8
0
  6
Continuous
 62
     7
370
    25
100
AcDbSpline
210
0.0
220
0.0
230
1.0
 70
     8
 71
     3
 72
     8
 73
     4
 74
     0
 42
0.000000001
 43
0.00000001
 40
0.0
 40
0.0
 40
0.0
 40
0.0
 40
0.9929736866775807
 40
0.9929736866775807
 40
0.9929736866775807
 40
0.9929736866775807
 10
8.496059986207634
 20
11.41499754139686
 30
0.0
 10
11.95964359553889
 20
9.961518885887404
 30
0.0
 10
15.11088915565133
 20
6.801776247980946
 30
0.0
 10
16.43402169973406
 20
3.237849347872505
 30
0.0
  0
LINE
  5
A0
330
1F
100
AcDbEntity
  8
0
  6
Continuous
 62
     7
370
    25
100
AcDbLine
 10
16.4340216997
 20
3.2378493479
 30
0.0
 11
16.0184914015
 21
3.4122249331
 31
0.0
  0
LINE
  5
A1
330
1F
100
AcDbEntity
  8
0
  6
Continuous
 62
     7
370
    25
100
AcDbLine
 10
16.0184914015
 20
3.4122249331
 30
0.0
 11
15.9727880656
 21
3.3033156452
 31
0.0
  0
LINE
  5
A2
330
1F
100
AcDbEntity
  8
0
  6
Continuous
 62
     7
370
    25
100
AcDbLine
 10
15.9727880656
 20
3.3033156452
 30
0.0
 11
16.388639259
 21
3.1288053975
 31
0.0
  0
SPLINE
  5
A3
330
1F
100
AcDbEntity
  8
0
  6
Continuous
 62
     7
370
    25
100
AcDbSpline
210
0.0
220
0.0
230
1.0
 70
     8
 71
     3
 72
     8
 73
     4
 74
     0
 42
0.000000001
 43
0.00000001
 40
0.4982604013792186
 40
0.4982604013792186
 40
0.4982604013792186
 40
0.4982604013792186
 40
0.5017290625861307
 40
0.5017290625861307
 40
0.5017290625861307
 40
0.5017290625861307
 10
16.38863925896943
 20
3.128805397531761
 30
0.0
 10
13.88446811603493
 20
1.995143404193547
 30
0.0
 10
11.25943432251987
 20
1.481389696945941
 30
0.0
 10
8.513537878424248
 20
1.587544275788941
 30
0.0
  0
LINE
  5
A4
330
1F
100
AcDbEntity
  8
0
  6
Continuous
 62
     7
370
    25
100
AcDbLine
 10
8.5135378784
 20
1.5875442758
 30
0.0
 11
8.6697935682
 21
1.9598955798
 31
0.0
  0
LINE
  5
A5
330
1F
100
AcDbEntity
  8
0
  6
Continuous
 62
     7
370
    25
100
AcDbLine
 10
8.6697935682
 20
1.9598955798
 30
0.0
 11
8.5608842803
 21
2.0055989158
 31
0.0
  0
LINE
  5
A6
330
1F
100
AcDbEntity
  8
0
  6
Continuous
 62
     7
370
    25
100
AcDbLine
 10
8.5608842803
 20
2.0055989158
 30
0.0
 11
8.7132287286
 21
2.3686298756
 31
0.0
  0
SPLINE
  5
A7
330
1F
100
AcDbEntity
  8
0
  6
Continuous
 62
     7
370
    25
100
AcDbSpline
210
0.0
220
0.0
230
1.0
 70
     8
 71
     3
 72
    17
 73
    13
 74
     0
 42
0.000000001
 43
0.00000001
 40
0.4986783576085747
 40
0.4986783576085747
 40
0.4986783576085747
 40
0.4986783576085747
 40
0.4988690266698731
 40
0.4990596957311715
 40
0.4994410338537683
 40
0.499822371976365
 40
0.5002037100989618
 40
0.5005850482215586
 40
0.5009663863441554
 40
0.5013477244667521
 40
0.5015383935280505
 40
0.5016544184643201
 40
0.5016544184643201
 40
0.5016544184643201
 40
0.5016544184643201
 10
15.1929907626047
 20
3.479955203059366
 30
0.0
 10
15.06021981502755
 20
3.428369229074182
 30
0.0
 10
14.79292254354755
 20
3.3283671384681
 30
0.0
 10
14.25702617563665
 20
3.143247480419766
 30
0.0
 10
13.58198501780175
 20
2.938668235505894
 30
0.0
 10
12.76421243679539
 20
2.736254379457491
 30
0.0
 10
11.93818993867997
 20
2.576724488613551
 30
0.0
 10
11.10362964099861
 20
2.460040942499236
 30
0.0
 10
10.2602709333354
 20
2.386184149889134
 30
0.0
 10
9.54961897239758
 20
2.360370499937026
 30
0.0
 10
9.032879587774957
 20
2.361101423806273
 30
0.0
 10
8.80096438248258
 20
2.366085708180796
 30
0.0
 10
8.713228728569783
 20
2.368629875638432
 30
0.0
  0
LINE
  5
A8
330
1F
100
AcDbEntity
  8
0
  6
Continuous
 62
     7
370
    25
100
AcDbLine
 10
15.3363033633
 20
3.8214636063
 30
0.0
 11
15.1929907626
 21
3.4799552031
 31
0.0
  0
SPLINE
  5
A9
330
1F
100
AcDbEntity
  8
0
  6
Continuous
 62
     7
370
    25
100
AcDbSpline
210
0.0
220
0.0
230
1.0
 70
     8
 71
     3
 72
    21
 73
    17
 74
     0
 42
0.000000001
 43
0.00000001
 40
0.0626053330073355
 40
0.0626053330073355
 40
0.0626053330073355
 40
0.0626053330073355
 40
0.0889888209647748
 40
0.115372308922214
 40
0.1681392848370926
 40
0.2209062607519712
 40
0.2736732366668498
 40
0.379207188496607
 40
0.4847411403263641
 40
0.5902750921561213
 40
0.6958090439858784
 40
0.748576019900757
 40
0.8013429958156355
 40
0.8541099717305141
 40
0.8804934596879535
 40
0.9068769476453927
 40
0.9068769476453927
 40
0.9068769476453927
 40
0.9068769476453927
 10
8.802519589463216
 20
10.41204465082806
 30
0.0
 10
8.888194644084018
 20
10.37035081442626
 30
0.0
 10
9.058226241581098
 20
10.28518438833927
 30
0.0
 10
9.397296935597579
 20
10.10570680048087
 30
0.0
 10
9.81670069289661
 20
9.865571869185073
 30
0.0
 10
10.31200714890488
 20
9.552949927236797
 30
0.0
 10
10.95951299500437
 20
9.105158278495958
 30
0.0
 10
11.74102411353939
 20
8.49024646375217
 30
0.0
 10
12.62230649173318
 20
7.67378328710739
 30
0.0
 10
13.43544764009756
 20
6.788755521870726
 30
0.0
 10
14.04685050585886
 20
6.002638133529032
 30
0.0
 10
14.49076930974291
 20
5.349840590564838
 30
0.0
 10
14.79980109338295
 20
4.84958293720364
 30
0.0
 10
15.03626847053416
 20
4.425045738573345
 30
0.0
 10
15.21230210199304
 20
4.081223336699899
 30
0.0
 10
15.29562523181915
 20
3.908477713874518
 30
0.0
 10
15.33630336331217
 20
3.821463606323598
 30
0.0
  0
LINE
  5
AA
330
1F
100
AcDbEntity
  8
0
  6
Continuous
 62
     7
370
    25
100
AcDbLine
 10
8.928007807
 20
0.1160444542
 30
0.0
 11
8.928007807
 21
0.5097452416
 31
0.0
  0
LINE
  5
AB
330
1F
100
AcDbEntity
  8
0
  6
Continuous
 62
     7
370
    25
100
AcDbLine
 10
8.8098975708
 20
0.5097452416
 30
0.0
 11
8.928007807
 21
0.5097452416
 31
0.0
  0
LINE
  5
AC
330
1F
100
AcDbEntity
  8
0
  6
Continuous
 62
     7
370
    25
100
AcDbLine
 10
8.8098975708
 20
0.5097452416
 30
0.0
 11
8.8098975708
 21
0.7065956353
 31
0.0
  0
SPLINE
  5
AD
330
1F
100
AcDbEntity
  8
0
  6
Continuous
 62
     7
370
    25
100
AcDbSpline
210
0.0
220
0.0
230
1.0
 70
     8
 71
     3
 72
    27
 73
    23
 74
     0
 42
0.000000001
 43
0.00000001
 40
0.0058818716770496
 40
0.0058818716770496
 40
0.0058818716770496
 40
0.0058818716770496
 40
0.0151613101496384
 40
0.0303226202992767
 40
0.0606452405985534
 40
0.09096786089783
 40
0.1212904811971067
 40
0.1819357217956601
 40
0.2425809623942135
 40
0.3032262029927668
 40
0.3638714435913202
 40
0.4851619247884268
 40
0.6064524059855335
 40
0.6670976465840869
 40
0.7277428871826401
 40
0.7883881277811935
 40
0.8490333683797469
 40
0.8793559886790235
 40
0.9096786089783002
 40
0.9400012292775769
 40
0.9551625394272153
 40
0.9703238495768536
 40
0.9703238495768536
 40
0.9703238495768536
 40
0.9703238495768536
 10
0.7352819347738102
 20
4.584548392127726
 30
0.0
 10
0.7518549750334209
 20
4.55605279529046
 30
0.0
 10
0.7958654015269913
 20
4.481255831999953
 30
0.0
 10
0.8952061056012153
 20
4.317581435580076
 30
0.0
 10
1.036028074943342
 20
4.098514703617467
 30
0.0
 10
1.209850219929589
 20
3.848127882795051
 30
0.0
 10
1.448231281344674
 20
3.530246983318692
 30
0.0
 10
1.758589279379097
 20
3.162174817359181
 30
0.0
 10
2.151251167809642
 20
2.764676817786332
 30
0.0
 10
2.564877727131175
 20
2.408739043285514
 30
0.0
 10
3.14572448752813
 20
1.986252842024155
 30
0.0
 10
3.929954435451195
 20
1.550007192702136
 30
0.0
 10
4.800560110954356
 20
1.22439772934362
 30
0.0
 10
5.552745982537678
 20
1.025402876321312
 30
0.0
 10
6.1452807440251
 20
0.9058561079520344
 30
0.0
 10
6.766617881905838
 20
0.8149393388825246
 30
0.0
 10
7.308571783692657
 20
0.7621180110406041
 30
0.0
 10
7.756708205185668
 20
0.733041624151019
 30
0.0
 10
8.100051143610033
 20
0.7176707746981188
 30
0.0
 10
8.392374859484129
 20
0.7100942967986807
 30
0.0
 10
8.629574786706439
 20
0.7070914427371967
 30
0.0
 10
8.749936250470794
 20
0.7065956287671203
 30
0.0
 10
8.809897570787127
 20
0.7065956353166286
 30
0.0
  0
LINE
  5
AE
330
1F
100
AcDbEntity
  8
0
  6
Continuous
 62
     7
370
    25
100
AcDbLine
 10
0.7352819348
 20
4.5845483921
 30
0.0
 11
0.400636266
 21
4.5845483912
 31
0.0
  0
LINE
  5
AF
330
1F
100
AcDbEntity
  8
0
  6
Continuous
 62
     7
370
    25
100
AcDbLine
 10
0.400636266
 20
4.5845483912
 30
0.0
 11
0.400636266
 21
4.7026586274
 31
0.0
  0
LINE
  5
B0
330
1F
100
AcDbEntity
  8
0
  6
Continuous
 62
     7
370
    25
100
AcDbLine
 10
0.400636266
 20
4.7026586274
 30
0.0
 11
0.7420727631
 21
4.7026586234
 31
0.0
  0
SPLINE
  5
B1
330
1F
100
AcDbEntity
  8
0
  6
Continuous
 62
     7
370
    25
100
AcDbSpline
210
0.0
220
0.0
230
1.0
 70
     8
 71
     3
 72
    21
 73
    17
 74
     0
 42
0.000000001
 43
0.00000001
 40
0.4977527433463887
 40
0.4977527433463887
 40
0.4977527433463887
 40
0.4977527433463887
 40
0.4978056213768663
 40
0.4979427340424075
 40
0.4982169593734899
 40
0.4984911847045722
 40
0.4987654100356544
 40
0.499313860697819
 40
0.4998623113599836
 40
0.5004107620221482
 40
0.5009592126843128
 40
0.5012334380153951
 40
0.5015076633464773
 40
0.5017818886775596
 40
0.5019190013431007
 40
0.5020110467990666
 40
0.5020110467990666
 40
0.5020110467990666
 40
0.5020110467990666
 10
5.975251904768527
 20
8.56282519622021
 30
0.0
 10
5.946456387417436
 20
8.555493692848541
 30
0.0
 10
5.843243172961166
 20
8.528743972882719
 30
0.0
 10
5.594933133867354
 20
8.460217427909653
 30
0.0
 10
5.237125143787598
 20
8.348091917200048
 30
0.0
 10
4.82291822754889
 20
8.196411597910597
 30
0.0
 10
4.290219073878842
 20
7.971320983673452
 30
0.0
 10
3.660700286540635
 20
7.647259489269068
 30
0.0
 10
2.961495434870623
 20
7.189889198843597
 30
0.0
 10
2.316622853825752
 20
6.663176093017274
 30
0.0
 10
1.823203680601057
 20
6.165288072605391
 30
0.0
 10
1.454357336659898
 20
5.730705569508478
 30
0.0
 10
1.190648045419221
 20
5.386464488357764
 30
0.0
 10
0.9815275573116173
 20
5.083972032614668
 30
0.0
 10
0.834077830487448
 20
4.85356339858089
 30
0.0
 10
0.768198971738655
 20
4.746044452186004
 30
0.0
 10
0.7420727630947341
 20
4.702658623442685
 30
0.0
  0
LINE
  5
B2
330
1F
100
AcDbEntity
  8
0
  6
Continuous
 62
     7
370
    25
100
AcDbLine
 10
5.9752519048
 20
8.777461777
 30
0.0
 11
5.9752519048
 21
8.5628251962
 31
0.0
  0
LINE
  5
B3
330
1F
100
AcDbEntity
  8
0
  6
Continuous
 62
     7
370
    25
100
AcDbLine
 10
6.0933621377
 20
8.777461777
 30
0.0
 11
5.9752519048
 21
8.777461777
 31
0.0
  0
LINE
  5
B4
330
1F
100
AcDbEntity
  8
0
  6
Continuous
 62
     7
370
    25
100
AcDbLine
 10
6.0933621377
 20
8.9743121707
 30
0.0
 11
6.0933621377
 21
8.777461777
 31
0.0
  0
LINE
  5
B5
330
1F
100
AcDbEntity
  8
0
  6
Continuous
 62
     7
370
    25
100
AcDbLine
 10
5.9752519048
 20
8.9743121707
 30
0.0
 11
6.0933621377
 21
8.9743121707
 31
0.0
  0
LINE
  5
B6
330
1F
100
AcDbEntity
  8
0
  6
Continuous
 62
     7
370
    25
100
AcDbLine
 10
5.9752519043
 20
9.1711625651
 30
0.0
 11
5.9752519048
 21
8.9743121707
 31
0.0
  0
SPLINE
  5
B7
330
1F
100
AcDbEntity
  8
0
  6
Continuous
 62
     7
370
    25
100
AcDbSpline
210
0.0
220
0.0
230
1.0
 70
     8
 71
     3
 72
     8
 73
     4
 74
     0
 42
0.000000001
 43
0.00000001
 40
0.4976685087097225
 40
0.4976685087097225
 40
0.4976685087097225
 40
0.4976685087097225
 40
0.5022489810762444
 40
0.5022489810762444
 40
0.5022489810762444
 40
0.5022489810762444
 10
5.975251904285868
 20
9.17116256512269
 30
0.0
 10
3.31845521226291
 20
8.533009991360432
 30
0.0
 10
1.335656361384416
 20
7.023823639430328
 30
0.0
 10
0.0268553516503906
 20
4.643603509332372
 30
0.0
  0
SPLINE
  5
B8
330
1F
100
AcDbEntity
  8
0
  6
Continuous
 62
     7
370
    25
100
AcDbSpline
210
0.0
220
0.0
230
1.0
 70
     8
 71
     3
 72
     8
 73
     4
 74
     0
 42
0.000000001
 43
0.00000001
 40
0.0
 40
0.0
 40
0.0
 40
0.0
 40
1.0
 40
1.0
 40
1.0
 40
1.0
 10
8.809897570787129
 20
0.1160444542142648
 30
0.0
 10
4.728209290168242
 20
0.1160444542142648
 30
0.0
 10
1.84534536832493
 20
1.223525042821368
 30
0.0
 10
0.0268553516496192
 20
4.643603509332277
 30
0.0
  0
LINE
  5
B9
330
1F
100
AcDbEntity
  8
0
  6
Continuous
 62
     7
370
    25
100
AcDbLine
 10
8.8098975708
 20
0.1160444542
 30
0.0
 11
8.928007807
 21
0.1160444542
 31
0.0
  0
MTEXT
  5
BB
330
1F
100
AcDbEntity
  8
0
  6
Continuous
 62
     7
100
AcDbMText
 10
0.0
 20
0.5641932659
 30
0.0
 40
0.2022874016
 41
0.0
 71
     1
 72
     1
  1
SOLIDWORKS Educational Product.
  7
SLDTEXTSTYLE0
 73
     1
 44
1.0
  0
MTEXT
  5
BC
330
1F
100
AcDbEntity
  8
0
  6
Continuous
 62
     7
100
AcDbMText
 10
0.0
 20
0.2607621635
 30
0.0
 40
0.2022874016
 41
0.0
 71
     1
 72
     1
  1
For Instructional Use Only.
  7
SLDTEXTSTYLE0
 73
     1
 44
1.0
  0
ENDSEC
  0
SECTION
  2
OBJECTS
  0
DICTIONARY
  5
C
330
0
100
AcDbDictionary
281
     1
  3
ACAD_GROUP
350
D
  3
ACAD_LAYOUT
350
1A
  3
ACAD_MLINESTYLE
350
17
  3
ACAD_PLOTSETTINGS
350
19
  3
ACAD_PLOTSTYLENAME
350
E
  3
ACAD_SCALELIST
350
47
  0
DICTIONARY
  5
D
102
{ACAD_REACTORS
330
C
102
}
330
C
100
AcDbDictionary
281
     1
  0
DICTIONARY
  5
1A
102
{ACAD_REACTORS
330
C
102
}
330
C
100
AcDbDictionary
281
     1
  3
Layout1
350
1E
  3
Layout2
350
26
  3
Model
350
22
  0
DICTIONARY
  5
17
102
{ACAD_REACTORS
330
C
102
}
330
C
100
AcDbDictionary
281
     1
  3
Standard
350
18
  0
DICTIONARY
  5
19
102
{ACAD_REACTORS
330
C
102
}
330
C
100
AcDbDictionary
281
     1
  0
ACDBDICTIONARYWDFLT
  5
E
102
{ACAD_REACTORS
330
C
102
}
330
C
100
AcDbDictionary
281
     1
  3
Normal
350
F
100
AcDbDictionaryWithDefault
340
F
  0
DICTIONARY
  5
47
102
{ACAD_REACTORS
330
C
102
}
330
C
100
AcDbDictionary
281
     1
  3
A0
350
48
  3
A1
350
49
  3
A2
350
4A
  3
A3
350
4B
  3
A4
350
4C
  3
A5
350
4D
  3
A6
350
4E
  3
A7
350
4F
  3
A8
350
50
  3
A9
350
51
  3
B0
350
52
  3
B1
350
53
  3
B2
350
54
  3
B3
350
55
  3
B4
350
56
  3
B5
350
57
  3
B6
350
58
  3
B7
350
59
  3
B8
350
5A
  3
B9
350
5B
  3
C0
350
5C
  3
C1
350
5D
  3
C2
350
5E
  3
C3
350
5F
  3
C4
350
60
  3
C5
350
61
  3
C6
350
62
  3
C7
350
63
  3
C8
350
64
  3
C9
350
65
  3
D0
350
66
  3
D1
350
67
  3
D2
350
68
  0
LAYOUT
  5
1E
102
{ACAD_REACTORS
330
1A
102
}
330
1A
100
AcDbPlotSettings
  1

  2
none_device
  4

  6

 40
0.0
 41
0.0
 42
0.0
 43
0.0
 44
0.0
 45
0.0
 46
0.0
 47
0.0
 48
0.0
 49
0.0
140
0.0
141
0.0
142
1.0
143
1.0
 70
   688
 72
     0
 73
     0
 74
     5
  7

 75
    16
147
1.0
148
0.0
149
0.0
100
AcDbLayout
  1
Layout1
 70
     1
 71
     1
 10
0.0
 20
0.0
 11
12.0
 21
9.0
 12
0.0
 22
0.0
 32
0.0
 14
1.0000000000E+20
 24
1.0000000000E+20
 34
1.0000000000E+20
 15
-1.0000000000E+20
 25
-1.0000000000E+20
 35
-1.0000000000E+20
146
0.0
 13
0.0
 23
0.0
 33
0.0
 16
1.0
 26
0.0
 36
0.0
 17
0.0
 27
1.0
 37
0.0
 76
     0
330
1B
  0
LAYOUT
  5
26
102
{ACAD_REACTORS
330
1A
102
}
330
1A
100
AcDbPlotSettings
  1

  2
none_device
  4

  6

 40
0.0
 41
0.0
 42
0.0
 43
0.0
 44
0.0
 45
0.0
 46
0.0
 47
0.0
 48
0.0
 49
0.0
140
0.0
141
0.0
142
1.0
143
1.0
 70
   688
 72
     0
 73
     0
 74
     5
  7

 75
    16
147
1.0
148
0.0
149
0.0
100
AcDbLayout
  1
Layout2
 70
     1
 71
     2
 10
0.0
 20
0.0
 11
0.0
 21
0.0
 12
0.0
 22
0.0
 32
0.0
 14
0.0
 24
0.0
 34
0.0
 15
0.0
 25
0.0
 35
0.0
146
0.0
 13
0.0
 23
0.0
 33
0.0
 16
1.0
 26
0.0
 36
0.0
 17
0.0
 27
1.0
 37
0.0
 76
     0
330
23
  0
LAYOUT
  5
22
102
{ACAD_REACTORS
330
1A
102
}
330
1A
100
AcDbPlotSettings
  1

  2
none_device
  4
Letter_(8.50_x_11.00_Inches)
  6

 40
6.35
 41
6.35
 42
6.35000508
 43
6.35000508
 44
215.9
 45
279.4
 46
0.0
 47
0.0
 48
0.0
 49
0.0
140
0.0
141
0.0
142
1.0
143
1.0
 70
  1712
 72
     0
 73
     0
 74
     0
  7

 75
     0
147
1.0
148
0.0
149
0.0
100
AcDbLayout
  1
Model
 70
     1
 71
     0
 10
0.0
 20
0.0
 11
16.5354330709
 21
11.6929133858
 12
0.0
 22
0.0
 32
0.0
 14
0.0
 24
0.0
 34
0.0
 15
16.5354330709
 25
11.6929133858
 35
0.0
146
0.0
 13
0.0
 23
0.0
 33
0.0
 16
1.0
 26
0.0
 36
0.0
 17
0.0
 27
1.0
 37
0.0
 76
     0
330
1F
331
29
  0
MLINESTYLE
  5
18
102
{ACAD_REACTORS
330
17
102
}
330
17
100
AcDbMlineStyle
  2
Standard
 70
     0
  3

 62
   256
 51
90.0
 52
90.0
 71
     2
 49
0.5
 62
   256
  6
BYLAYER
 49
-0.5
 62
   256
  6
BYLAYER
  0
ACDBPLACEHOLDER
  5
F
102
{ACAD_REACTORS
330
E
102
}
330
E
  0
SCALE
  5
48
102
{ACAD_REACTORS
330
47
102
}
330
47
100
AcDbScale
 70
     0
300
1:1
140
1.0
141
1.0
290
     1
  0
SCALE
  5
49
102
{ACAD_REACTORS
330
47
102
}
330
47
100
AcDbScale
 70
     0
300
1:2
140
1.0
141
2.0
290
     0
  0
SCALE
  5
4A
102
{ACAD_REACTORS
330
47
102
}
330
47
100
AcDbScale
 70
     0
300
1:4
140
1.0
141
4.0
290
     0
  0
SCALE
  5
4B
102
{ACAD_REACTORS
330
47
102
}
330
47
100
AcDbScale
 70
     0
300
1:5
140
1.0
141
5.0
290
     0
  0
SCALE
  5
4C
102
{ACAD_REACTORS
330
47
102
}
330
47
100
AcDbScale
 70
     0
300
1:8
140
1.0
141
8.0
290
     0
  0
SCALE
  5
4D
102
{ACAD_REACTORS
330
47
102
}
330
47
100
AcDbScale
 70
     0
300
1:10
140
1.0
141
10.0
290
     0
  0
SCALE
  5
4E
102
{ACAD_REACTORS
330
47
102
}
330
47
100
AcDbScale
 70
     0
300
1:16
140
1.0
141
16.0
290
     0
  0
SCALE
  5
4F
102
{ACAD_REACTORS
330
47
102
}
330
47
100
AcDbScale
 70
     0
300
1:20
140
1.0
141
20.0
290
     0
  0
SCALE
  5
50
102
{ACAD_REACTORS
330
47
102
}
330
47
100
AcDbScale
 70
     0
300
1:30
140
1.0
141
30.0
290
     0
  0
SCALE
  5
51
102
{ACAD_REACTORS
330
47
102
}
330
47
100
AcDbScale
 70
     0
300
1:40
140
1.0
141
40.0
290
     0
  0
SCALE
  5
52
102
{ACAD_REACTORS
330
47
102
}
330
47
100
AcDbScale
 70
     0
300
1:50
140
1.0
141
50.0
290
     0
  0
SCALE
  5
53
102
{ACAD_REACTORS
330
47
102
}
330
47
100
AcDbScale
 70
     0
300
1:100
140
1.0
141
100.0
290
     0
  0
SCALE
  5
54
102
{ACAD_REACTORS
330
47
102
}
330
47
100
AcDbScale
 70
     0
300
2:1
140
2.0
141
1.0
290
     0
  0
SCALE
  5
55
102
{ACAD_REACTORS
330
47
102
}
330
47
100
AcDbScale
 70
     0
300
4:1
140
4.0
141
1.0
290
     0
  0
SCALE
  5
56
102
{ACAD_REACTORS
330
47
102
}
330
47
100
AcDbScale
 70
     0
300
8:1
140
8.0
141
1.0
290
     0
  0
SCALE
  5
57
102
{ACAD_REACTORS
330
47
102
}
330
47
100
AcDbScale
 70
     0
300
10:1
140
10.0
141
1.0
290
     0
  0
SCALE
  5
58
102
{ACAD_REACTORS
330
47
102
}
330
47
100
AcDbScale
 70
     0
300
100:1
140
100.0
141
1.0
290
     0
  0
SCALE
  5
59
102
{ACAD_REACTORS
330
47
102
}
330
47
100
AcDbScale
 70
     0
300
1/128" = 1'-0"
140
0.0078125
141
12.0
290
     0
  0
SCALE
  5
5A
102
{ACAD_REACTORS
330
47
102
}
330
47
100
AcDbScale
 70
     0
300
1/64" = 1'-0"
140
0.015625
141
12.0
290
     0
  0
SCALE
  5
5B
102
{ACAD_REACTORS
330
47
102
}
330
47
100
AcDbScale
 70
     0
300
1/32" = 1'-0"
140
0.03125
141
12.0
290
     0
  0
SCALE
  5
5C
102
{ACAD_REACTORS
330
47
102
}
330
47
100
AcDbScale
 70
     0
300
1/16" = 1'-0"
140
0.0625
141
12.0
290
     0
  0
SCALE
  5
5D
102
{ACAD_REACTORS
330
47
102
}
330
47
100
AcDbScale
 70
     0
300
3/32" = 1'-0"
140
0.09375
141
12.0
290
     0
  0
SCALE
  5
5E
102
{ACAD_REACTORS
330
47
102
}
330
47
100
AcDbScale
 70
     0
300
1/8" = 1'-0"
140
0.125
141
12.0
290
     0
  0
SCALE
  5
5F
102
{ACAD_REACTORS
330
47
102
}
330
47
100
AcDbScale
 70
     0
300
3/16" = 1'-0"
140
0.1875
141
12.0
290
     0
  0
SCALE
  5
60
102
{ACAD_REACTORS
330
47
102
}
330
47
100
AcDbScale
 70
     0
300
1/4" = 1'-0"
140
0.25
141
12.0
290
     0
  0
SCALE
  5
61
102
{ACAD_REACTORS
330
47
102
}
330
47
100
AcDbScale
 70
     0
300
3/8" = 1'-0"
140
0.375
141
12.0
290
     0
  0
SCALE
  5
62
102
{ACAD_REACTORS
330
47
102
}
330
47
100
AcDbScale
 70
     0
300
1/2" = 1'-0"
140
0.5
141
12.0
290
     0
  0
SCALE
  5
63
102
{ACAD_REACTORS
330
47
102
}
330
47
100
AcDbScale
 70
     0
300
3/4" = 1'-0"
140
0.75
141
12.0
290
     0
  0
SCALE
  5
64
102
{ACAD_REACTORS
330
47
102
}
330
47
100
AcDbScale
 70
     0
300
1" = 1'-0"
140
1.0
141
12.0
290
     0
  0
SCALE
  5
65
102
{ACAD_REACTORS
330
47
102
}
330
47
100
AcDbScale
 70
     0
300
1-1/2" = 1'-0"
140
1.5
141
12.0
290
     0
  0
SCALE
  5
66
102
{ACAD_REACTORS
330
47
102
}
330
47
100
AcDbScale
 70
     0
300
3" = 1'-0"
140
3.0
141
12.0
290
     0
  0
SCALE
  5
67
102
{ACAD_REACTORS
330
47
102
}
330
47
100
AcDbScale
 70
     0
300
6" = 1'-0"
140
6.0
141
12.0
290
     0
  0
SCALE
  5
68
102
{ACAD_REACTORS
330
47
102
}
330
47
100
AcDbScale
 70
     0
300
1'-0" = 1'-0"
140
12.0
141
12.0
290
     0
  0
ENDSEC
  0
EOF
